<svg width="900" height="600" viewBox="0 0 900 600" fill="none" xmlns="http://www.w3.org/2000/svg"><path fill="transparent" d="M0 0h900v600H0z"/><path d="M708.513 371.868c-2.945 74.724-162.487 212.247-336.386 139.475-80.878-33.849-69.765-76.382-127.778-139.26-34.579-37.477-86.431-68.229-96.892-118.966-9.04-43.796 3.251-88.803 28.647-116.443 57.117-62.162 164.041-98.36 255.254 16.593s284.73 25.884 277.155 218.601z" fill="url(#a)"/><mask id="b" mask-type="alpha" maskUnits="userSpaceOnUse" x="144" y="78" width="565" height="454"><path d="M708.513 371.868c-2.945 74.724-162.487 212.247-336.386 139.475-80.878-33.849-69.765-76.382-127.778-139.26-34.579-37.477-86.431-68.229-96.892-118.966-9.04-43.796 3.251-88.803 28.647-116.443 57.117-62.162 164.041-98.36 255.254 16.593s284.73 25.884 277.155 218.601z" fill="#66B2F5"/></mask><g mask="url(#b)" stroke="#fff" stroke-width="4.211"><path d="M873.547 227.278c36.302 59.597 60.065 126.815 69.295 196.01 5.709 42.808 3.706 91.904-27.763 121.436-23.583 22.137-58.348 27.644-90.651 26.454-32.302-1.189-64.423-7.988-96.691-6.089-32.267 1.902-66.436 14.658-82.807 42.569-15.493 26.413-11.635 59.316-9.736 89.889 1.895 30.575-.385 65.284-23.427 85.429-32.634 28.529-85.806 10.901-124.274 30.848-36.487 18.918-51.303 67.183-88.898 83.78-31.424 13.877-67.594.982-99.375-12.046a10632.756 10632.756 0 0 1-99.188-41.249"/><path d="M835.632 187.843c35.531 58.208 58.793 123.856 67.829 191.437 5.588 41.81 3.628 89.761-27.176 118.606-23.083 21.62-57.112 27-88.731 25.835-31.617-1.16-63.059-7.802-94.646-5.944-31.586 1.857-65.031 14.316-81.055 41.573-15.165 25.8-11.389 57.934-9.53 87.795 1.856 29.861-.373 63.758-22.931 83.436-31.944 27.864-83.99 10.647-121.644 30.128-35.713 18.477-50.216 65.615-87.017 81.829-30.756 13.548-66.162.957-97.273-11.767a10504.095 10504.095 0 0 1-97.086-40.286"/><path d="M765.923 53.798c33.904 55.601 56.092 118.311 64.714 182.865 5.333 39.939 3.462 85.742-25.925 113.295-22.026 20.651-54.49 25.791-84.655 24.68-30.167-1.112-60.164-7.455-90.298-5.679-30.134 1.773-62.042 13.672-77.33 39.711-14.47 24.644-10.867 55.339-9.094 83.863 1.772 28.526-.357 60.904-21.874 79.699-30.477 26.616-80.134 10.171-116.058 28.779-34.073 17.651-47.905 62.678-83.016 78.165-29.345 12.944-63.125.915-92.803-11.239a9944.701 9944.701 0 0 1-92.628-38.484"/><path d="M709.209 6.55c33.134 54.387 54.822 115.722 63.247 178.868 5.212 39.062 3.383 83.864-25.339 110.816-21.525 20.198-53.253 25.224-82.735 24.137-29.483-1.085-58.801-7.289-88.252-5.555-29.45 1.736-60.637 13.376-75.578 38.845-14.141 24.104-10.62 54.127-8.886 82.029 1.732 27.901-.35 59.571-21.381 77.957-29.786 26.032-78.315 9.946-113.427 28.147-33.3 17.266-46.821 61.307-81.136 76.455-28.679 12.661-61.693.896-90.701-10.993a9745.218 9745.218 0 0 1-90.525-37.641"/><path d="M632.161-119.809c29.87 48.999 49.42 104.263 57.013 161.15 4.7 35.195 3.05 75.56-22.841 99.842-19.404 18.199-48.005 22.726-74.581 21.748-26.579-.979-53.005-6.568-79.553-5.005-26.55 1.565-54.663 12.05-68.132 34.998-12.748 21.715-9.573 48.767-8.011 73.903 1.562 25.137-.314 53.672-19.274 70.235-26.848 23.457-70.596 8.963-102.245 25.363-30.018 15.556-42.209 55.233-73.14 68.881-25.854 11.407-55.613.808-81.764-9.906a8809.197 8809.197 0 0 1-81.605-33.911"/><path d="M572.15-158.266c29.101 47.784 48.148 101.675 55.545 157.151 4.58 34.322 2.971 73.685-22.252 97.363-18.906 17.746-46.769 22.162-72.665 21.21-25.893-.955-51.642-6.407-77.504-4.883-25.867 1.525-53.257 11.751-66.379 34.129-12.419 21.176-9.325 47.556-7.806 72.068 1.523 24.515-.303 52.34-18.778 68.491-26.158 22.875-68.778 8.74-99.615 24.733-29.247 15.17-41.122 53.863-71.259 67.173-25.188 11.124-54.182.787-79.657-9.659a8548.593 8548.593 0 0 1-79.51-33.071"/><path d="M524.415-205.513c28.236 46.392 46.717 98.717 53.896 152.578 4.443 33.323 2.885 71.54-21.591 94.53-18.344 17.23-45.383 21.517-70.507 20.592-25.122-.927-50.107-6.22-75.205-4.738-25.096 1.48-51.674 11.41-64.405 33.136-12.051 20.561-9.049 46.172-7.573 69.972 1.475 23.8-.298 50.816-18.222 66.499-25.381 22.209-66.735 8.487-96.656 24.014-28.38 14.725-39.902 52.294-69.141 65.217-24.442 10.8-52.576.764-77.294-9.379A8286.53 8286.53 0 0 1 .571 274.799"/><path d="M425.945-225.412c27.467 45.003 45.447 95.758 52.432 148.008 4.319 32.323 2.801 69.396-21.006 91.698-17.846 16.712-44.147 20.872-68.588 19.975-24.441-.9-48.744-6.034-73.159-4.597-24.412 1.436-50.264 11.067-62.652 32.143-11.724 19.944-8.803 44.788-7.368 67.876 1.437 23.086-.288 49.293-17.725 64.506-24.689 21.541-64.92 8.232-94.026 23.294-27.606 14.286-38.815 50.729-67.26 63.263-23.776 10.476-51.143.741-75.19-9.097a8155.165 8155.165 0 0 1-75.047-31.146"/><path d="M390.003-264.847c26.697 43.788 44.174 93.17 50.963 144.007 4.201 31.452 2.727 67.52-20.418 89.221-17.345 16.262-42.913 20.309-66.668 19.435-23.757-.876-47.38-5.87-71.113-4.475-23.731 1.4-48.859 10.769-60.9 31.274-11.395 19.406-8.557 43.58-7.163 66.042 1.397 22.464-.279 47.963-17.226 62.764-24.004 20.96-63.106 8.01-91.396 22.664-26.835 13.899-37.732 49.357-65.38 61.554-23.112 10.193-49.712.719-73.086-8.851a7762.221 7762.221 0 0 1-72.948-30.306"/><path d="M391.456-289.319c25.832 42.396 42.746 90.213 49.314 139.434 4.064 30.454 2.638 65.38-19.755 86.389-16.787 15.747-41.523 19.664-64.514 18.817-22.986-.846-45.844-5.683-68.809-4.33-22.963 1.354-47.278 10.425-58.928 30.28-11.027 18.792-8.28 42.198-6.929 63.947 1.351 21.749-.272 46.439-16.671 60.769-23.225 20.296-61.061 7.757-88.437 21.946-25.967 13.458-36.51 47.791-63.264 59.599-22.36 9.87-48.103.697-70.72-8.57a7552.925 7552.925 0 0 1-70.585-29.344"/></g><path d="M749.933 276.009c10.713 9.361 29.142 5.811 29.142 5.811s1.047-18.727-9.675-28.081c-10.713-9.361-29.133-5.818-29.133-5.818s-1.047 18.727 9.666 28.088z" fill="url(#c)"/><path d="M131.596 353.023c10.713 9.361 29.141 5.81 29.141 5.81s1.047-18.727-9.674-28.081c-10.713-9.361-29.133-5.818-29.133-5.818s-1.047 18.727 9.666 28.089z" fill="url(#d)"/><path opacity=".76" fill-rule="evenodd" clip-rule="evenodd" d="M680.496 136.059c-3.976-6.125-12.942-6.125-16.918 0l-22.728 35.012c-4.355 6.71.46 15.576 8.459 15.576h45.455c7.999 0 12.814-8.866 8.459-15.576l-22.727-35.012z" fill="url(#e)"/><path opacity=".76" fill-rule="evenodd" clip-rule="evenodd" d="M218.527 421.782c-3.976-6.125-12.942-6.125-16.918 0l-22.727 35.013c-4.355 6.709.46 15.576 8.459 15.576h45.455c7.999 0 12.814-8.867 8.459-15.576l-22.728-35.013z" fill="url(#f)"/><circle cx="282.424" cy="220.933" r="53.265" fill="#31597D"/><path d="M635.833 454.284c-93.341 93.341-182.059 56.365-214.751 26.21l78.629-42.274 131.894-52.419 31.283-49.883c26.379 43.965-7.046 97.23-27.055 118.366z" fill="#31597D"/><path d="M315.398 224.316c-8.793-50.729-45.374-53.265-62.565-48.193 96.045-56.815 193.331-83.42 229.969-89.62 81.165-3.382 82.856 92.72 73.556 141.194 3.382 85.224 57.211 131.894 83.702 144.576-19.446 40.583-97.511 80.884-123.439 84.548-10.991 109.912-132.74 10.146-168.25-54.956-35.51-65.101-21.982-114.139-32.973-177.549z" fill="#66B2F5"/><path d="m366.246 294.109 149.793-56.964m-135.496 95.771 149.793-56.964m-133.453 95.771 149.793-56.964m-129.368 92.708 149.793-56.964" stroke="#fff" stroke-width="18.632" stroke-linecap="round" stroke-linejoin="round"/><defs><linearGradient id="a" x1="492.952" y1="801.19" x2="336.234" y2="-450.978" gradientUnits="userSpaceOnUse"><stop stop-color="#fff"/><stop offset="1" stop-color="#EEE"/></linearGradient><linearGradient id="c" x1="792.234" y1="307.55" x2="711.773" y2="200.358" gradientUnits="userSpaceOnUse"><stop stop-color="#fff"/><stop offset="1" stop-color="#EEE"/></linearGradient><linearGradient id="d" x1="173.896" y1="384.563" x2="93.435" y2="277.372" gradientUnits="userSpaceOnUse"><stop stop-color="#fff"/><stop offset="1" stop-color="#EEE"/></linearGradient><linearGradient id="e" x1="670.275" y1="222.316" x2="671.787" y2="53.811" gradientUnits="userSpaceOnUse"><stop stop-color="#fff"/><stop offset="1" stop-color="#EEE"/></linearGradient><linearGradient id="f" x1="208.307" y1="508.039" x2="209.818" y2="339.534" gradientUnits="userSpaceOnUse"><stop stop-color="#fff"/><stop offset="1" stop-color="#EEE"/></linearGradient></defs></svg>