<svg width="340" height="340" viewBox="0 0 340 340" fill="none" xmlns="http://www.w3.org/2000/svg">
<mask id="mask0_963_14000" style="mask-type:alpha" maskUnits="userSpaceOnUse" x="0" y="0" width="340" height="340">
<circle cx="170" cy="170" r="170" fill="#D9D9D9"/>
</mask>
<g mask="url(#mask0_963_14000)">
<rect x="-30" y="-30" width="400" height="400" fill="#66B2F5"/>
<path d="M178.901 124.899L113.206 111.916L98.6777 120.992L146.311 156.992C157.18 146.3 168.05 135.608 178.901 124.899Z" fill="white"/>
<mask id="mask1_963_14000" style="mask-type:luminance" maskUnits="userSpaceOnUse" x="194" y="165" width="55" height="85">
<path d="M194.158 165.819H248.718V249.861H194.158V165.819Z" fill="white"/>
</mask>
<g mask="url(#mask1_963_14000)">
<path d="M195.898 198.427L236.232 249.808L245.468 235.564L231.543 167.791C219.413 177.736 207.656 188.073 195.898 198.427Z" fill="white"/>
</g>
<mask id="mask2_963_14000" style="mask-type:luminance" maskUnits="userSpaceOnUse" x="63" y="90" width="213" height="149">
<path d="M63 90H276V238.565H63V90Z" fill="white"/>
</mask>
<g mask="url(#mask2_963_14000)">
<path d="M267.386 93.8896C259.199 89.9823 227.923 93.5877 217.604 101.242C202.348 112.573 109.212 206.65 109.212 206.65L74.0469 213.097L63.1953 227.785C63.1953 227.785 81.1333 231.017 99.2844 234.481C107.703 236.079 122.071 231.799 122.071 231.799C164.305 222.315 299.834 109.394 267.386 93.8896ZM261.703 106.997C261.063 109.998 259.039 112.573 256.801 114.616C255.629 115.682 254.35 116.658 253 117.529C252.308 117.973 249.75 118.949 249.448 119.589C259.572 98.5251 240.248 96.4649 240.248 96.4649C244.831 95.4703 250.425 94.1205 255.096 95.5058C260.033 96.9621 262.715 102.148 261.703 106.997Z" fill="white"/>
</g>
<path d="M23.3938 230.425C23.3118 230.344 23.2161 230.278 23.1111 230.23C20.5568 228.803 18.244 226.981 16.2585 224.83C16.1773 224.744 16.0798 224.674 15.9717 224.625C15.8635 224.576 15.7467 224.548 15.6279 224.544C15.5092 224.54 15.3909 224.56 15.2797 224.602C15.1685 224.644 15.0666 224.707 14.9799 224.788C14.8932 224.869 14.8233 224.967 14.7742 225.075C14.7252 225.184 14.6979 225.3 14.694 225.419C14.69 225.538 14.7095 225.657 14.7513 225.768C14.7932 225.879 14.8564 225.981 14.9376 226.068C17.0482 228.36 19.5148 230.297 22.242 231.803C22.3451 231.862 22.459 231.901 22.5771 231.916C22.6951 231.932 22.815 231.923 22.9299 231.892C23.0448 231.861 23.1524 231.807 23.2465 231.734C23.3406 231.662 23.4194 231.571 23.4783 231.467C23.569 231.305 23.6094 231.119 23.5943 230.933C23.5793 230.748 23.5095 230.571 23.3938 230.425V230.425ZM9.12847 208.577C9.03119 208.475 8.91324 208.395 8.78249 208.342C8.65174 208.289 8.5112 208.265 8.3703 208.271C8.25175 208.28 8.13632 208.313 8.03083 208.368C7.92533 208.423 7.8319 208.499 7.75606 208.59C7.68022 208.682 7.62349 208.788 7.58924 208.902C7.55499 209.016 7.54391 209.136 7.55664 209.254C7.61212 210.153 7.72573 211.081 7.83668 212.038C8.19118 214.208 8.84369 216.317 9.7757 218.307C9.87273 218.524 10.0517 218.693 10.2731 218.777C10.4946 218.861 10.7404 218.854 10.9566 218.757C11.1727 218.66 11.3414 218.481 11.4257 218.259C11.5099 218.037 11.5027 217.791 11.4056 217.575C10.5605 215.723 9.96535 213.767 9.63569 211.758C9.5221 210.888 9.41115 209.987 9.35567 209.114C9.3384 208.918 9.25876 208.733 9.12847 208.585V208.577ZM40.8503 231.946C40.7232 231.802 40.556 231.701 40.3705 231.653C40.1849 231.606 39.9895 231.616 39.8095 231.681C37.1267 232.746 34.2275 233.151 31.356 232.861C31.2378 232.849 31.1187 232.862 31.0053 232.897C30.8919 232.932 30.7865 232.989 30.6952 233.064C30.6038 233.14 30.5282 233.233 30.4727 233.338C30.4173 233.443 30.383 233.558 30.3719 233.676C30.3608 233.794 30.3731 233.914 30.408 234.027C30.443 234.141 30.4999 234.246 30.5756 234.338C30.6513 234.429 30.7442 234.505 30.8491 234.56C30.954 234.616 31.0688 234.65 31.1869 234.661C34.3453 234.985 37.5353 234.542 40.4858 233.368C40.5973 233.325 40.699 233.26 40.7851 233.176C40.8711 233.093 40.9398 232.994 40.987 232.884C41.0342 232.774 41.0591 232.655 41.0601 232.536C41.0611 232.416 41.0383 232.297 40.993 232.186C40.9714 232.087 40.9229 231.996 40.853 231.922L40.8503 231.946ZM12.7291 191.118C12.6594 191.055 12.5843 190.999 12.5046 190.949C12.4048 190.883 12.2921 190.838 12.1739 190.817C12.0557 190.797 11.9345 190.801 11.8181 190.83C11.7017 190.859 11.5926 190.912 11.498 190.986C11.4033 191.06 11.3251 191.153 11.2683 191.259C9.65702 193.946 8.54288 196.901 7.97933 199.984C7.93693 200.221 7.9901 200.466 8.12721 200.664C8.26433 200.862 8.47425 200.998 8.71109 201.042C8.82738 201.062 8.94664 201.06 9.06198 201.034C9.17731 201.009 9.28644 200.961 9.383 200.892C9.47957 200.824 9.56166 200.738 9.62454 200.638C9.68741 200.537 9.72982 200.426 9.74929 200.309C10.2859 197.442 11.3232 194.691 12.8137 192.184C12.9147 192.022 12.9611 191.832 12.9458 191.641C12.9306 191.451 12.8546 191.27 12.7291 191.126V191.118ZM53.4804 219.439C53.4042 219.359 53.3149 219.293 53.2162 219.244C53.1131 219.188 53 219.153 52.8834 219.141C52.7667 219.129 52.6488 219.14 52.5366 219.174C52.4243 219.208 52.3199 219.264 52.2294 219.338C52.1388 219.413 52.0639 219.505 52.009 219.608C50.6047 222.197 48.8665 224.589 46.8391 226.724C46.7546 226.81 46.6882 226.912 46.6438 227.024C46.5994 227.136 46.5779 227.256 46.5806 227.376C46.5834 227.497 46.6102 227.616 46.6596 227.726C46.709 227.836 46.7799 227.935 46.8682 228.017C46.9528 228.098 47.0527 228.162 47.1621 228.205C47.2715 228.247 47.3882 228.268 47.5056 228.265C47.6229 228.262 47.7386 228.236 47.8459 228.189C47.9533 228.141 48.0501 228.073 48.1309 227.987C50.2677 225.735 52.0999 223.211 53.5808 220.481C53.675 220.318 53.715 220.129 53.6951 219.942C53.6751 219.755 53.5963 219.579 53.4698 219.439H53.4804ZM175.909 360.583C175.823 360.486 175.718 360.41 175.599 360.358C175.493 360.306 175.376 360.275 175.258 360.268C175.139 360.261 175.02 360.278 174.907 360.317C174.795 360.357 174.692 360.418 174.603 360.498C174.515 360.577 174.443 360.674 174.392 360.781C173.151 363.492 171.724 366.113 170.121 368.626C170.003 368.831 169.969 369.073 170.026 369.302C170.083 369.532 170.225 369.73 170.424 369.857C170.623 369.983 170.863 370.028 171.094 369.982C171.326 369.937 171.53 369.803 171.666 369.61C173.291 367.022 174.755 364.336 176.049 361.567C176.118 361.406 176.142 361.229 176.117 361.055C176.092 360.882 176.02 360.718 175.909 360.583V360.583ZM26.4556 179.778C26.3362 179.624 26.169 179.515 25.9805 179.467C25.792 179.419 25.5929 179.435 25.4147 179.513C22.5614 180.735 19.8794 182.323 17.4367 184.238C17.3443 184.312 17.2673 184.403 17.2102 184.507C17.1531 184.61 17.117 184.724 17.104 184.841C17.091 184.959 17.1013 185.078 17.1344 185.191C17.1674 185.304 17.2226 185.41 17.2967 185.502C17.366 185.6 17.4546 185.683 17.5571 185.745C17.6596 185.807 17.7738 185.847 17.8926 185.863C18.0113 185.879 18.132 185.87 18.2472 185.837C18.3624 185.804 18.4696 185.748 18.5621 185.672C20.879 183.842 23.4296 182.33 26.1465 181.177C26.3617 181.078 26.5296 180.899 26.6137 180.678C26.6978 180.457 26.6913 180.211 26.5956 179.995C26.5655 179.911 26.5178 179.834 26.4556 179.77V179.778ZM59.6066 202.422C59.481 202.279 59.3137 202.18 59.1284 202.139C59.0104 202.112 58.8881 202.108 58.7688 202.129C58.6495 202.15 58.5355 202.195 58.4337 202.26C58.3318 202.326 58.244 202.411 58.1755 202.511C58.107 202.611 58.0591 202.724 58.0347 202.842C57.3939 205.754 56.5869 208.627 55.6176 211.446C55.5376 211.669 55.5482 211.915 55.6469 212.13C55.7457 212.346 55.9248 212.514 56.1459 212.599C56.3768 212.68 56.6303 212.666 56.8513 212.561C57.0723 212.456 57.2432 212.268 57.3268 212.038C58.3335 209.149 59.1593 206.199 59.7994 203.207C59.8392 203.069 59.8418 202.923 59.807 202.784C59.7722 202.645 59.7012 202.517 59.6013 202.414L59.6066 202.422ZM181.358 343.375C181.23 343.207 181.04 343.096 180.83 343.066C180.714 343.045 180.594 343.047 180.478 343.072C180.363 343.098 180.253 343.146 180.156 343.214C180.06 343.282 179.977 343.369 179.914 343.469C179.851 343.57 179.809 343.682 179.789 343.798C179.235 346.724 178.513 349.615 177.628 352.458C177.559 352.689 177.582 352.938 177.692 353.153C177.801 353.367 177.99 353.532 178.217 353.611C178.33 353.646 178.448 353.659 178.565 353.648C178.683 353.637 178.797 353.604 178.901 353.549C179.005 353.494 179.098 353.419 179.173 353.329C179.248 353.238 179.305 353.134 179.34 353.021C180.259 350.107 181 347.139 181.559 344.134C181.586 344.001 181.583 343.864 181.549 343.732C181.515 343.601 181.452 343.479 181.364 343.375H181.358ZM44.0204 175.547C43.9251 175.432 43.8033 175.341 43.6653 175.282C43.5273 175.224 43.3772 175.199 43.2279 175.212C40.1856 175.525 37.165 176.022 34.1826 176.7C34.0639 176.725 33.9513 176.773 33.8514 176.842C33.7515 176.911 33.6663 176.999 33.6009 177.101C33.5354 177.203 33.491 177.317 33.4702 177.437C33.4495 177.557 33.4528 177.679 33.4799 177.797C33.5428 178.028 33.6912 178.226 33.8948 178.352C34.0985 178.477 34.3421 178.52 34.5762 178.472C37.4821 177.802 40.4286 177.323 43.3969 177.039C43.5614 177.022 43.7183 176.961 43.8511 176.862C43.9839 176.764 44.0876 176.631 44.1515 176.478C44.2153 176.326 44.2368 176.159 44.2137 175.995C44.1907 175.831 44.1239 175.676 44.0204 175.547V175.547ZM61.889 184.461C61.8123 184.362 61.714 184.284 61.6017 184.23C61.4894 184.176 61.3662 184.149 61.2418 184.151C60.9995 184.14 60.7628 184.226 60.5836 184.39C60.4043 184.553 60.2971 184.781 60.2855 185.024C60.2036 187.977 59.95 190.984 59.5854 193.992C59.5707 194.111 59.5795 194.232 59.6114 194.347C59.6433 194.462 59.6976 194.57 59.7713 194.664C59.8449 194.758 59.9364 194.837 60.0406 194.895C60.1447 194.954 60.2593 194.991 60.3779 195.005C60.6152 195.024 60.8507 194.952 61.038 194.806C61.2253 194.659 61.3508 194.447 61.3897 194.212C61.7543 191.147 62.0079 188.083 62.1215 185.074C62.1196 184.848 62.0404 184.63 61.8969 184.455L61.889 184.461ZM182.764 325.324C182.676 325.225 182.568 325.145 182.447 325.092C182.325 325.038 182.194 325.012 182.061 325.015C181.942 325.015 181.824 325.039 181.714 325.086C181.605 325.133 181.506 325.203 181.424 325.29C181.343 325.377 181.279 325.48 181.239 325.592C181.199 325.704 181.182 325.824 181.189 325.943C181.245 328.978 181.163 332.024 180.925 334.912C180.917 335.03 180.932 335.149 180.97 335.262C181.007 335.374 181.067 335.478 181.146 335.567C181.224 335.656 181.32 335.729 181.427 335.781C181.533 335.833 181.649 335.862 181.768 335.869C181.885 335.881 182.003 335.87 182.116 335.835C182.228 335.8 182.332 335.742 182.421 335.666C182.511 335.59 182.584 335.496 182.636 335.39C182.688 335.285 182.718 335.169 182.724 335.052C182.949 332.072 183.033 329.007 182.988 325.914C182.986 325.697 182.907 325.488 182.764 325.324V325.324ZM-3.40652 101.338C-3.49254 101.235 -3.5998 101.151 -3.72105 101.093C-3.8423 101.034 -3.97468 101.003 -4.10921 101C-7.18395 101.053 -10.2483 101.373 -13.2681 101.954C-13.3843 101.977 -13.495 102.022 -13.5939 102.087C-13.6927 102.152 -13.7779 102.236 -13.8443 102.334C-13.9108 102.432 -13.9574 102.542 -13.9813 102.658C-14.0053 102.774 -14.0062 102.893 -13.984 103.009C-13.9618 103.126 -13.9169 103.237 -13.8519 103.336C-13.7869 103.435 -13.7031 103.52 -13.6052 103.586C-13.5073 103.653 -13.3973 103.699 -13.2815 103.723C-13.1656 103.747 -13.0462 103.748 -12.9299 103.726C-10.0132 103.165 -7.0526 102.864 -4.0828 102.827C-3.96417 102.825 -3.84713 102.799 -3.73862 102.751C-3.63012 102.703 -3.53234 102.634 -3.45107 102.547C-3.3698 102.461 -3.30668 102.359 -3.26545 102.247C-3.22422 102.136 -3.20571 102.018 -3.21102 101.899C-3.2115 101.695 -3.28037 101.498 -3.40652 101.338V101.338ZM180.909 307.329C180.81 307.206 180.679 307.113 180.53 307.058C180.382 307.004 180.222 306.99 180.067 307.019C179.95 307.038 179.838 307.081 179.738 307.143C179.638 307.206 179.551 307.288 179.483 307.385C179.415 307.482 179.367 307.591 179.341 307.707C179.316 307.822 179.314 307.942 179.335 308.058C179.863 311.067 180.291 314.076 180.6 316.972C180.613 317.092 180.649 317.208 180.707 317.315C180.764 317.421 180.842 317.515 180.936 317.591C181.03 317.667 181.139 317.723 181.254 317.757C181.37 317.791 181.492 317.802 181.612 317.789C181.852 317.757 182.071 317.635 182.222 317.446C182.374 317.257 182.447 317.017 182.426 316.776C182.088 313.822 181.668 310.787 181.105 307.749C181.087 307.591 181.018 307.444 180.909 307.329ZM61.0939 166.346C61.0007 166.229 60.8783 166.139 60.7391 166.085C60.6 166.03 60.449 166.014 60.3013 166.037C60.1822 166.049 60.0667 166.086 59.9619 166.144C59.8571 166.202 59.765 166.281 59.6911 166.375C59.6172 166.47 59.563 166.578 59.5317 166.694C59.5004 166.809 59.4926 166.93 59.5088 167.049C59.8481 169.688 60.0359 172.345 60.0715 175.005C57.4588 174.836 54.8752 174.741 52.3471 174.741C52.2272 174.742 52.1087 174.767 51.9985 174.815C51.8883 174.862 51.7885 174.93 51.7048 175.016C51.6211 175.102 51.5552 175.204 51.5108 175.316C51.4665 175.427 51.4445 175.546 51.4463 175.666C51.4529 175.903 51.55 176.129 51.7175 176.297C51.885 176.464 52.1103 176.561 52.3471 176.568C55.2689 176.568 58.2725 176.679 61.329 176.904C61.5668 176.924 61.8032 176.851 61.9871 176.698C62.171 176.546 62.2876 176.327 62.3117 176.089C62.3281 175.923 62.2972 175.756 62.2223 175.606C62.1475 175.457 62.032 175.332 61.889 175.246C61.8572 172.425 61.6605 169.609 61.2999 166.811C61.2713 166.634 61.1935 166.468 61.0754 166.333L61.0939 166.346ZM14.375 104.21C14.2686 104.086 14.1334 103.989 13.9813 103.93C11.0835 102.923 8.10389 102.17 5.07607 101.679C4.9577 101.657 4.83604 101.66 4.71858 101.686C4.60111 101.713 4.49034 101.763 4.39308 101.834C4.29582 101.905 4.21412 101.996 4.15303 102.1C4.09194 102.203 4.05276 102.319 4.03788 102.438C3.99998 102.673 4.05494 102.913 4.1911 103.107C4.32726 103.302 4.53386 103.436 4.76698 103.48C7.69644 103.964 10.5812 104.689 13.3922 105.646C13.5047 105.685 13.624 105.702 13.743 105.695C13.8621 105.688 13.9785 105.657 14.0857 105.605C14.1928 105.553 14.2885 105.479 14.3672 105.39C14.4459 105.3 14.506 105.196 14.544 105.082C14.5954 104.935 14.6068 104.777 14.5771 104.623C14.5474 104.47 14.4777 104.327 14.375 104.21V104.21ZM80.0271 178.099C79.9101 177.948 79.74 177.848 79.5516 177.819C76.5717 177.142 73.5654 176.608 70.5697 176.158C70.4531 176.138 70.3337 176.142 70.2187 176.17C70.1038 176.198 69.9957 176.249 69.901 176.32C69.8064 176.391 69.7272 176.481 69.6682 176.583C69.6092 176.686 69.5717 176.799 69.5579 176.917C69.5373 177.035 69.5407 177.157 69.5679 177.274C69.5951 177.391 69.6456 177.502 69.7163 177.599C69.787 177.696 69.8766 177.778 69.9797 177.84C70.0827 177.902 70.1971 177.942 70.3161 177.959C73.2643 178.379 76.2441 178.942 79.1659 179.59C79.3984 179.63 79.6374 179.579 79.8338 179.449C80.0303 179.318 80.1693 179.117 80.2226 178.887C80.2646 178.749 80.2684 178.602 80.2335 178.463C80.1986 178.323 80.1263 178.195 80.0245 178.094L80.0271 178.099ZM176.556 289.727C176.443 289.589 176.291 289.489 176.121 289.439C175.95 289.389 175.769 289.392 175.599 289.447C175.371 289.517 175.179 289.674 175.063 289.883C174.948 290.093 174.919 290.339 174.981 290.57C175.909 293.495 176.722 296.419 177.425 299.259C177.453 299.375 177.503 299.485 177.573 299.582C177.643 299.679 177.732 299.761 177.834 299.823C177.935 299.886 178.048 299.928 178.166 299.947C178.284 299.965 178.405 299.961 178.521 299.933C178.637 299.905 178.747 299.855 178.844 299.785C178.941 299.715 179.023 299.626 179.085 299.524C179.148 299.422 179.19 299.309 179.208 299.191C179.227 299.073 179.223 298.952 179.195 298.836C178.466 295.927 177.649 292.987 176.722 290.036C176.684 289.925 176.628 289.82 176.556 289.727V289.727ZM56.7112 148.797C56.5761 148.628 56.3846 148.512 56.1716 148.472C55.9586 148.432 55.7384 148.47 55.551 148.579C55.3637 148.688 55.2217 148.861 55.151 149.066C55.0803 149.271 55.0855 149.495 55.1658 149.696C56.2029 152.497 57.0935 155.351 57.834 158.244C57.8619 158.36 57.9127 158.469 57.9834 158.564C58.0541 158.66 58.1431 158.74 58.2454 158.8C58.3476 158.861 58.4609 158.9 58.5785 158.916C58.6962 158.931 58.8158 158.924 58.9303 158.892C59.1648 158.836 59.3674 158.689 59.4936 158.483C59.6199 158.277 59.6595 158.03 59.6039 157.795C58.8488 154.832 57.9299 151.912 56.8512 149.051C56.8226 148.954 56.775 148.865 56.7112 148.787V148.797ZM30.2834 112.724C30.2509 112.665 30.2023 112.616 30.1434 112.584C27.6822 110.749 25.0909 109.095 22.3899 107.637C22.1805 107.53 21.938 107.508 21.7131 107.576C21.4881 107.644 21.2981 107.797 21.1827 108.002C21.1225 108.106 21.0842 108.222 21.07 108.341C21.0558 108.461 21.0661 108.583 21.1001 108.698C21.1342 108.814 21.1914 108.922 21.2683 109.015C21.3451 109.107 21.44 109.184 21.5472 109.239C24.1657 110.654 26.6815 112.251 29.0761 114.019C29.2509 114.159 29.4719 114.228 29.695 114.211C29.9181 114.195 30.1268 114.095 30.2793 113.931C30.4319 113.768 30.517 113.552 30.5178 113.328C30.5186 113.104 30.4349 112.889 30.2834 112.724V112.724ZM48.6276 132.605C48.4847 132.439 48.2867 132.33 48.0701 132.299C47.8535 132.268 47.6331 132.317 47.4493 132.436C47.3475 132.496 47.2591 132.577 47.1894 132.673C47.1197 132.769 47.0701 132.878 47.0437 132.994C47.0173 133.109 47.0145 133.229 47.0357 133.346C47.0568 133.463 47.1014 133.574 47.1667 133.673C48.7777 136.192 50.259 138.792 51.6048 141.462C51.6564 141.57 51.7287 141.666 51.8176 141.745C51.9064 141.824 52.01 141.885 52.1225 141.924C52.2349 141.963 52.3539 141.98 52.4727 141.973C52.5915 141.966 52.7077 141.935 52.8147 141.883C53.0295 141.77 53.1911 141.576 53.2648 141.345C53.3384 141.113 53.3181 140.862 53.2083 140.645C51.8431 137.914 50.3325 135.259 48.683 132.689C48.6566 132.66 48.6276 132.631 48.6276 132.605V132.605ZM41.9995 123.692C40.4541 121.891 38.7951 120.148 37.1387 118.517C36.9625 118.351 36.7284 118.262 36.4868 118.267C36.2452 118.273 36.0154 118.373 35.8469 118.546C35.765 118.63 35.7008 118.73 35.6577 118.84C35.6147 118.949 35.5938 119.066 35.5963 119.184C35.5988 119.301 35.6245 119.417 35.672 119.525C35.7196 119.632 35.788 119.729 35.8733 119.81C38.0087 121.899 40.0257 124.106 41.9149 126.42C41.9881 126.52 42.0808 126.603 42.1872 126.665C42.2936 126.728 42.4116 126.768 42.534 126.783C42.6564 126.798 42.7806 126.788 42.899 126.754C43.0175 126.72 43.1278 126.662 43.2231 126.583C43.3184 126.505 43.3968 126.408 43.4535 126.299C43.5101 126.189 43.5439 126.069 43.5528 125.946C43.5617 125.823 43.5454 125.699 43.5049 125.582C43.4645 125.466 43.4008 125.359 43.3177 125.267C42.8977 124.739 42.4486 124.228 41.9968 123.694L41.9995 123.692ZM170.261 272.715C170.14 272.564 169.973 272.456 169.786 272.408C169.598 272.361 169.401 272.375 169.222 272.45C169.004 272.546 168.832 272.723 168.743 272.944C168.653 273.165 168.654 273.412 168.744 273.632C169.951 276.446 171.048 279.285 172.089 282.041C172.129 282.151 172.191 282.253 172.271 282.339C172.351 282.426 172.447 282.496 172.555 282.545C172.662 282.594 172.777 282.622 172.895 282.626C173.013 282.63 173.13 282.611 173.24 282.569C173.467 282.482 173.649 282.309 173.748 282.088C173.847 281.866 173.855 281.614 173.769 281.387C172.757 278.603 171.605 275.764 170.424 272.926C170.385 272.84 170.327 272.763 170.255 272.702L170.261 272.715ZM97.4176 183.215C97.3216 183.096 97.1958 183.005 97.053 182.951C94.2977 181.909 91.405 180.925 88.3987 180.042C88.1679 179.977 87.9206 180.005 87.7104 180.121C87.5002 180.237 87.3441 180.431 87.276 180.661C87.2404 180.774 87.2275 180.892 87.2378 181.01C87.2482 181.128 87.2817 181.242 87.3365 181.347C87.3912 181.452 87.4661 181.544 87.5569 181.62C87.6476 181.696 87.7523 181.752 87.8651 181.787C90.8423 182.657 93.7086 183.614 96.4058 184.654C96.6327 184.737 96.883 184.728 97.1036 184.629C97.3241 184.531 97.4975 184.35 97.5867 184.125C97.6372 183.968 97.6483 183.801 97.6187 183.639C97.5892 183.477 97.5201 183.325 97.4176 183.197V183.215ZM162.507 256.322C162.374 256.16 162.19 256.05 161.986 256.009C161.781 255.968 161.569 255.999 161.384 256.097C161.178 256.218 161.025 256.413 160.957 256.643C160.889 256.873 160.912 257.12 161.02 257.334C162.425 260.007 163.772 262.733 165.035 265.404C165.087 265.511 165.159 265.607 165.248 265.687C165.337 265.766 165.44 265.827 165.553 265.866C165.665 265.906 165.784 265.922 165.903 265.916C166.022 265.909 166.138 265.879 166.245 265.827C166.463 265.725 166.632 265.541 166.716 265.315C166.8 265.089 166.792 264.839 166.694 264.619C165.402 261.919 164.026 259.19 162.621 256.491C162.597 256.426 162.558 256.368 162.507 256.322V256.322ZM153.491 240.576C153.353 240.411 153.16 240.303 152.947 240.272C152.735 240.24 152.518 240.289 152.339 240.407C152.236 240.466 152.146 240.546 152.074 240.641C152.002 240.736 151.951 240.844 151.922 240.96C151.893 241.075 151.888 241.195 151.906 241.313C151.925 241.431 151.967 241.543 152.03 241.644C153.631 244.204 155.176 246.819 156.664 249.405C156.785 249.612 156.982 249.763 157.213 249.826C157.444 249.889 157.691 249.86 157.9 249.743C158.005 249.686 158.097 249.608 158.171 249.514C158.246 249.42 158.3 249.312 158.332 249.196C158.363 249.081 158.371 248.96 158.355 248.841C158.339 248.723 158.299 248.609 158.238 248.506C156.748 245.891 155.176 243.276 153.575 240.69C153.546 240.661 153.517 240.605 153.491 240.576V240.576ZM113.458 191.594C113.403 191.568 113.345 191.512 113.289 191.483C110.827 189.64 108.204 188.023 105.451 186.653C105.231 186.547 104.978 186.531 104.747 186.61C104.516 186.689 104.325 186.855 104.215 187.073C104.107 187.286 104.088 187.533 104.161 187.76C104.235 187.987 104.396 188.175 104.608 188.284C107.275 189.607 109.822 191.159 112.222 192.922C112.316 192.994 112.423 193.047 112.538 193.078C112.653 193.108 112.772 193.116 112.89 193.1C113.007 193.084 113.121 193.046 113.223 192.986C113.326 192.926 113.415 192.847 113.487 192.752C113.606 192.582 113.667 192.379 113.662 192.171C113.656 191.964 113.585 191.764 113.458 191.6V191.594ZM143.376 225.505C143.232 225.33 143.025 225.218 142.8 225.191C142.575 225.165 142.349 225.227 142.168 225.365C142.072 225.434 141.99 225.523 141.928 225.624C141.865 225.726 141.824 225.839 141.806 225.957C141.787 226.075 141.793 226.195 141.822 226.311C141.85 226.427 141.902 226.535 141.973 226.631C143.714 229.048 145.455 231.552 147.14 234.053C147.205 234.154 147.29 234.242 147.389 234.31C147.488 234.378 147.6 234.426 147.718 234.45C147.836 234.474 147.957 234.475 148.075 234.451C148.193 234.427 148.305 234.38 148.405 234.313C148.504 234.245 148.589 234.158 148.655 234.057C148.72 233.956 148.765 233.843 148.786 233.724C148.807 233.606 148.804 233.484 148.777 233.366C148.75 233.249 148.7 233.138 148.63 233.04C146.945 230.51 145.196 228.017 143.434 225.563C143.434 225.534 143.405 225.534 143.376 225.505V225.505ZM126.326 204.334H126.297C124.218 202.028 122.11 199.807 120.031 197.723C119.862 197.558 119.635 197.466 119.399 197.466C119.163 197.466 118.937 197.558 118.768 197.724C118.599 197.889 118.502 198.113 118.496 198.349C118.491 198.586 118.578 198.814 118.739 198.987C120.792 201.068 122.897 203.263 124.947 205.539C125.113 205.716 125.341 205.82 125.583 205.831C125.825 205.841 126.061 205.756 126.241 205.595C126.415 205.435 126.521 205.215 126.537 204.98C126.552 204.744 126.477 204.512 126.326 204.331V204.334ZM132.254 211.192C132.179 211.102 132.086 211.027 131.982 210.972C131.877 210.917 131.763 210.884 131.646 210.874C131.528 210.863 131.41 210.876 131.298 210.912C131.185 210.948 131.081 211.005 130.991 211.081C130.814 211.237 130.703 211.455 130.682 211.69C130.661 211.926 130.731 212.16 130.878 212.345C132.788 214.624 134.7 216.985 136.552 219.405C136.704 219.587 136.921 219.703 137.157 219.73C137.392 219.756 137.629 219.69 137.818 219.545C137.912 219.473 137.991 219.383 138.051 219.281C138.11 219.178 138.149 219.065 138.165 218.947C138.181 218.829 138.173 218.71 138.142 218.595C138.112 218.48 138.059 218.373 137.987 218.278C136.103 215.862 134.193 213.471 132.283 211.192H132.254Z" fill="white"/>
</g>
</svg>
