<svg width="383" height="191" viewBox="0 0 383 191" fill="none" xmlns="http://www.w3.org/2000/svg">
<path d="M233.592 1.44263C233.504 1.44323 233.419 1.41613 233.347 1.3652C233.275 1.31427 233.222 1.24208 233.193 1.15888C233.16 1.0529 233.17 0.938191 233.221 0.83936C233.271 0.740528 233.359 0.665435 233.464 0.63018C234.826 0.173151 236.258 -0.0382985 237.693 0.00568696C237.803 0.00979914 237.906 0.0567627 237.981 0.136418C238.056 0.216073 238.096 0.322014 238.094 0.431314C238.095 0.486391 238.084 0.541108 238.063 0.591912C238.042 0.642716 238.01 0.688471 237.97 0.726207C237.93 0.763943 237.882 0.792815 237.83 0.81095C237.778 0.829086 237.723 0.836078 237.668 0.831474C236.329 0.79815 234.995 0.994611 233.722 1.41231C233.68 1.42539 233.636 1.43392 233.592 1.43778V1.44263ZM245.083 4.15038C245.025 4.15129 244.968 4.14035 244.915 4.11825C244.861 4.09614 244.813 4.06333 244.773 4.02185C244.102 3.26982 243.309 2.63749 242.426 2.15201C242.143 1.9961 241.85 1.85799 241.549 1.73851C241.496 1.71844 241.447 1.6877 241.406 1.64815C241.364 1.6086 241.332 1.56107 241.309 1.50845C241.287 1.45582 241.275 1.3992 241.276 1.34202C241.276 1.28484 241.288 1.22829 241.31 1.17581C241.333 1.12333 241.366 1.07601 241.408 1.03672C241.449 0.997438 241.498 0.967008 241.552 0.94728C241.606 0.927551 241.663 0.918938 241.72 0.92196C241.777 0.924983 241.833 0.939578 241.884 0.964861C242.193 1.10674 242.504 1.26195 242.813 1.41717C243.783 1.94289 244.656 2.63205 245.392 3.45435C245.466 3.53692 245.505 3.64537 245.5 3.75629C245.495 3.86722 245.447 3.97174 245.366 4.04731C245.328 4.08266 245.283 4.11001 245.235 4.12773C245.186 4.14544 245.135 4.15315 245.083 4.15038V4.15038ZM226.565 5.80075C226.509 5.79922 226.453 5.7858 226.402 5.76136C226.35 5.73692 226.305 5.702 226.268 5.65887C226.229 5.62078 226.199 5.57515 226.179 5.52481C226.158 5.47447 226.148 5.42048 226.149 5.36617C226.151 5.31186 226.163 5.25839 226.186 5.20904C226.208 5.15969 226.241 5.11552 226.282 5.07924C227.318 4.11722 228.436 3.24581 229.621 2.47456C229.668 2.44494 229.719 2.42477 229.774 2.4152C229.828 2.40563 229.884 2.40685 229.937 2.41878C229.991 2.43072 230.042 2.45314 230.087 2.48476C230.133 2.51639 230.171 2.5566 230.201 2.6031C230.23 2.6496 230.25 2.70147 230.26 2.75577C230.27 2.81006 230.268 2.86571 230.256 2.91953C230.245 2.97336 230.222 3.0243 230.19 3.06946C230.159 3.11462 230.119 3.15311 230.072 3.18273C228.922 3.91618 227.843 4.754 226.847 5.68555C226.772 5.76194 226.67 5.80555 226.563 5.80681L226.565 5.80075ZM248.635 11.591C248.54 11.591 248.448 11.5593 248.373 11.5008C248.298 11.4423 248.245 11.3605 248.222 11.2684C247.931 9.93857 247.501 8.64291 246.94 7.4026C246.896 7.30141 246.894 7.1875 246.932 7.08437C246.97 6.98125 247.047 6.89679 247.146 6.84844C247.247 6.80302 247.361 6.79919 247.465 6.83778C247.569 6.87636 247.653 6.95425 247.7 7.05459C248.283 8.35002 248.73 9.70245 249.034 11.0901C249.056 11.1955 249.036 11.3054 248.978 11.3961C248.92 11.4868 248.828 11.5511 248.723 11.5752C248.695 11.5861 248.664 11.5907 248.634 11.5885L248.635 11.591ZM221.22 12.1585C221.136 12.1587 221.054 12.1315 220.987 12.0808C220.941 12.0509 220.901 12.0121 220.87 11.9667C220.839 11.9213 220.817 11.8702 220.806 11.8163C220.795 11.7624 220.794 11.7068 220.804 11.6528C220.815 11.5987 220.836 11.5472 220.866 11.5012C221.647 10.3359 222.486 9.21076 223.38 8.13017C223.415 8.08704 223.458 8.05141 223.507 8.0254C223.556 7.99939 223.61 7.98353 223.665 7.97878C223.721 7.97403 223.776 7.98047 223.829 7.99773C223.882 8.01499 223.931 8.04271 223.973 8.07924C224.054 8.15052 224.105 8.2506 224.115 8.35859C224.125 8.46657 224.093 8.57414 224.025 8.65887C223.143 9.71267 222.321 10.8146 221.562 11.9596C221.522 12.0158 221.47 12.0624 221.41 12.0959C221.35 12.1295 221.283 12.1492 221.214 12.1536L221.22 12.1585ZM314.941 12.7769H314.877C313.517 12.5922 312.148 12.4849 310.776 12.4555C310.668 12.4488 310.566 12.4009 310.492 12.3218C310.418 12.2427 310.377 12.1383 310.377 12.0299C310.376 11.9742 310.386 11.9188 310.407 11.8672C310.428 11.8155 310.46 11.7688 310.499 11.73C310.539 11.6912 310.587 11.661 310.639 11.6415C310.691 11.6219 310.747 11.6134 310.803 11.6164C312.205 11.6573 313.603 11.7695 314.994 11.9523C315.104 11.9686 315.204 12.0275 315.272 12.1166C315.34 12.2056 315.371 12.3177 315.357 12.4289C315.343 12.5274 315.294 12.6173 315.218 12.6815C315.142 12.7457 315.045 12.7797 314.945 12.7769H314.941ZM302.513 13.2547C302.419 13.2541 302.327 13.2221 302.252 13.1637C302.178 13.1054 302.124 13.0239 302.101 12.9321C302.089 12.8778 302.087 12.8217 302.097 12.7668C302.106 12.712 302.127 12.6596 302.157 12.6127C302.187 12.5658 302.226 12.5254 302.272 12.4939C302.317 12.4623 302.369 12.4402 302.424 12.4289C303.795 12.1139 305.187 11.8943 306.589 11.7716C306.643 11.7658 306.698 11.7709 306.75 11.7866C306.803 11.8023 306.851 11.8284 306.893 11.8632C306.935 11.898 306.97 11.9409 306.995 11.9893C307.02 12.0377 307.036 12.0907 307.04 12.1451C307.045 12.2533 307.01 12.3594 306.941 12.4429C306.871 12.5263 306.774 12.5809 306.667 12.5962C305.3 12.7229 303.943 12.9384 302.604 13.2413C302.579 13.2413 302.54 13.2547 302.513 13.2547ZM322.957 14.9208C322.899 14.9187 322.841 14.9055 322.788 14.882C321.529 14.353 320.232 13.9177 318.908 13.5796C318.801 13.5485 318.711 13.4773 318.656 13.3811C318.6 13.2848 318.584 13.1709 318.611 13.0631C318.641 12.9586 318.71 12.8696 318.803 12.8145C318.897 12.7594 319.008 12.7425 319.114 12.7672C320.483 13.1178 321.825 13.5693 323.128 14.118C323.228 14.1618 323.307 14.243 323.348 14.3443C323.389 14.4456 323.389 14.559 323.347 14.6601C323.314 14.7352 323.26 14.7993 323.191 14.845C323.123 14.8907 323.043 14.9161 322.96 14.9184L322.957 14.9208ZM294.832 16.3517C294.762 16.3533 294.693 16.3363 294.631 16.3024C294.57 16.2685 294.519 16.219 294.484 16.1589C294.454 16.1122 294.434 16.0602 294.424 16.0057C294.415 15.9513 294.416 15.8955 294.428 15.8416C294.44 15.7876 294.463 15.7366 294.494 15.6914C294.526 15.6461 294.567 15.6076 294.613 15.578C295.811 14.8306 297.076 14.1953 298.391 13.6803C298.441 13.6569 298.496 13.6439 298.551 13.6422C298.607 13.6405 298.662 13.6502 298.714 13.6705C298.766 13.6908 298.813 13.7214 298.852 13.7605C298.892 13.7996 298.923 13.8462 298.944 13.8977C298.965 13.9492 298.976 14.0044 298.975 14.06C298.974 14.1156 298.962 14.1705 298.939 14.2212C298.916 14.272 298.883 14.3176 298.842 14.3553C298.801 14.393 298.753 14.422 298.701 14.4406C297.432 14.9458 296.211 15.563 295.051 16.285C294.985 16.3257 294.909 16.3479 294.832 16.3492V16.3517ZM193.244 16.4802C193.174 16.4818 193.105 16.4648 193.044 16.4309C192.983 16.3971 192.932 16.3475 192.896 16.2874C192.159 15.0783 191.534 13.8051 191.026 12.4834C191.007 12.4328 190.998 12.3789 191 12.3249C191.002 12.2709 191.015 12.2178 191.037 12.1686C191.06 12.1195 191.092 12.0753 191.132 12.0386C191.171 12.0019 191.218 11.9734 191.269 11.9547C191.318 11.9346 191.372 11.9247 191.426 11.9255C191.479 11.9263 191.532 11.9378 191.582 11.9594C191.631 11.9809 191.675 12.0121 191.712 12.0511C191.749 12.0901 191.778 12.1361 191.797 12.1863C192.291 13.4617 192.895 14.6915 193.603 15.8618C193.643 15.9244 193.665 15.9968 193.666 16.071C193.667 16.1453 193.648 16.2185 193.611 16.2825C193.573 16.3465 193.518 16.3988 193.453 16.4337C193.387 16.4686 193.313 16.4847 193.239 16.4802H193.244ZM329.817 19.5238C329.759 19.5249 329.702 19.514 329.648 19.4919C329.595 19.4697 329.547 19.4369 329.507 19.3953C328.589 18.4011 327.549 17.5261 326.413 16.7906C326.366 16.7628 326.325 16.7257 326.293 16.6817C326.261 16.6377 326.239 16.5877 326.227 16.5346C326.214 16.4816 326.213 16.4266 326.223 16.3731C326.233 16.3196 326.253 16.2685 326.283 16.2231C326.313 16.1765 326.351 16.1361 326.396 16.1043C326.442 16.0725 326.493 16.05 326.547 16.0379C326.6 16.0259 326.656 16.0246 326.711 16.0341C326.765 16.0436 326.817 16.0638 326.864 16.0934C328.062 16.8642 329.158 17.7829 330.126 18.8278C330.162 18.8674 330.191 18.9139 330.209 18.9646C330.228 19.0152 330.236 19.069 330.234 19.1229C330.231 19.1768 330.218 19.2297 330.195 19.2785C330.173 19.3274 330.14 19.3712 330.1 19.4074C330.063 19.4454 330.019 19.4757 329.971 19.4965C329.922 19.5173 329.87 19.5283 329.817 19.5287V19.5238ZM217.448 19.5627C217.399 19.5677 217.35 19.5589 217.306 19.5372C217.202 19.497 217.118 19.4175 217.073 19.316C217.028 19.2145 217.024 19.0992 217.063 18.9952C217.427 18.0542 217.825 17.0865 218.25 16.1322C218.404 15.7975 218.56 15.4749 218.727 15.1391C218.779 15.0402 218.867 14.9659 218.974 14.9322C219.08 14.8986 219.195 14.9084 219.294 14.9596C219.343 14.9838 219.386 15.0173 219.422 15.0584C219.457 15.0995 219.484 15.1472 219.501 15.1988C219.518 15.2504 219.524 15.3048 219.52 15.3589C219.515 15.4129 219.5 15.4656 219.475 15.5138C219.308 15.8484 219.153 16.1589 219.011 16.4681C218.598 17.4224 218.198 18.3767 217.837 19.3044C217.805 19.3807 217.751 19.4459 217.682 19.4918C217.614 19.5378 217.533 19.5624 217.45 19.5627H217.448ZM249.171 19.8719H249.132C249.021 19.8617 248.919 19.8089 248.847 19.7247C248.775 19.6405 248.738 19.5315 248.745 19.4208C248.822 18.6471 248.848 17.8601 248.848 17.0744C248.848 16.4935 248.835 15.9006 248.796 15.3197C248.793 15.2647 248.8 15.2096 248.818 15.1575C248.836 15.1054 248.864 15.0573 248.901 15.016C248.937 14.9748 248.982 14.9411 249.031 14.9169C249.081 14.8928 249.135 14.8787 249.19 14.8753C249.301 14.8686 249.41 14.9062 249.493 14.98C249.535 15.0166 249.568 15.0609 249.592 15.1104C249.616 15.16 249.631 15.2138 249.634 15.2688C249.661 15.8618 249.686 16.4681 249.686 17.0744C249.686 17.8868 249.647 18.6981 249.583 19.4996C249.57 19.6008 249.521 19.694 249.446 19.7624C249.37 19.8309 249.273 19.8702 249.171 19.8731V19.8719ZM288.944 22.1285C288.867 22.1272 288.791 22.105 288.725 22.0643C288.678 22.0347 288.638 21.9961 288.606 21.9509C288.574 21.9057 288.552 21.8547 288.54 21.8007C288.528 21.7468 288.526 21.691 288.536 21.6366C288.545 21.5821 288.565 21.5301 288.595 21.4834C289.36 20.2895 290.259 19.1862 291.273 18.1948C291.312 18.1567 291.359 18.1268 291.411 18.1068C291.462 18.0868 291.517 18.0771 291.572 18.0783C291.627 18.0794 291.681 18.0915 291.732 18.1137C291.782 18.1358 291.828 18.1678 291.866 18.2076C291.904 18.2474 291.934 18.2943 291.954 18.3457C291.974 18.3971 291.984 18.4519 291.983 18.507C291.981 18.5621 291.969 18.6164 291.947 18.6669C291.925 18.7174 291.893 18.763 291.853 18.8011C290.884 19.7463 290.023 20.7973 289.287 21.9345C289.252 21.9946 289.201 22.0442 289.14 22.0781C289.078 22.1119 289.009 22.1289 288.939 22.1273L288.944 22.1285ZM198.484 22.9289C198.431 22.9284 198.378 22.9175 198.33 22.8967C198.281 22.8759 198.237 22.8456 198.2 22.8076C197.185 21.8382 196.23 20.8088 195.338 19.7251C195.271 19.638 195.238 19.5286 195.248 19.4187C195.257 19.3088 195.308 19.2066 195.389 19.1322C195.477 19.0631 195.588 19.0311 195.699 19.0431C195.81 19.0551 195.911 19.1102 195.982 19.1964C196.857 20.2551 197.791 21.2628 198.781 22.2146C198.819 22.2525 198.85 22.2977 198.87 22.3474C198.891 22.3972 198.902 22.4505 198.902 22.5044C198.902 22.5584 198.891 22.6117 198.87 22.6615C198.85 22.7112 198.819 22.7564 198.781 22.7943C198.744 22.8369 198.699 22.8707 198.647 22.8932C198.596 22.9156 198.54 22.9262 198.484 22.924V22.9289ZM333.831 26.7328C333.742 26.7335 333.654 26.7048 333.582 26.6512C333.51 26.5976 333.458 26.5219 333.433 26.4357C333.061 25.1262 332.542 23.8631 331.885 22.6706C331.859 22.6233 331.843 22.5713 331.838 22.5178C331.832 22.4642 331.837 22.41 331.853 22.3585C331.868 22.3069 331.894 22.2589 331.928 22.2174C331.963 22.1758 332.005 22.1415 332.053 22.1164C332.148 22.0623 332.262 22.0481 332.368 22.0769C332.474 22.1057 332.565 22.1752 332.62 22.2704C333.299 23.5163 333.838 24.8336 334.227 26.1981C334.257 26.304 334.244 26.4176 334.191 26.514C334.138 26.6105 334.049 26.6822 333.943 26.7134C333.904 26.725 333.863 26.7295 333.822 26.7267L333.831 26.7328ZM215.076 27.5319H214.998C214.892 27.5086 214.799 27.445 214.739 27.3545C214.679 27.264 214.656 27.1538 214.676 27.0469C214.934 25.713 215.282 24.3512 215.694 22.9713C215.73 22.8657 215.804 22.7777 215.903 22.725C216.001 22.6723 216.115 22.6589 216.223 22.6875C216.275 22.7036 216.323 22.7297 216.364 22.7643C216.406 22.799 216.44 22.8416 216.466 22.8896C216.491 22.9376 216.506 22.9901 216.511 23.0441C216.516 23.0981 216.51 23.1524 216.493 23.2041C216.094 24.5707 215.746 25.9119 215.488 27.2057C215.472 27.3022 215.421 27.3894 215.345 27.4511C215.269 27.5129 215.174 27.5451 215.076 27.5416V27.5319ZM246.656 27.7126C246.574 27.7095 246.495 27.6875 246.423 27.6483C246.334 27.5837 246.273 27.4885 246.251 27.3812C246.228 27.2739 246.246 27.1621 246.302 27.0675C246.567 26.6865 246.81 26.2905 247.029 25.8816C247.444 25.1013 247.777 24.28 248.022 23.4309C248.054 23.3253 248.125 23.2362 248.222 23.1831C248.318 23.13 248.432 23.1171 248.538 23.1471C248.59 23.1632 248.638 23.1893 248.679 23.2239C248.721 23.2586 248.755 23.3011 248.781 23.3491C248.806 23.3971 248.821 23.4495 248.826 23.5035C248.831 23.5575 248.826 23.6119 248.809 23.6637C248.552 24.5698 248.202 25.4467 247.764 26.2805C247.522 26.7061 247.279 27.1293 247.004 27.5319C246.965 27.5886 246.914 27.6349 246.853 27.6664C246.792 27.698 246.724 27.7139 246.656 27.7126V27.7126ZM205.017 28.0764C204.939 28.0746 204.864 28.052 204.798 28.0109C203.598 27.2373 202.451 26.4127 201.367 25.5748C201.325 25.5409 201.289 25.499 201.263 25.4515C201.237 25.4039 201.22 25.3517 201.214 25.2977C201.208 25.2437 201.213 25.1891 201.228 25.137C201.244 25.0849 201.269 25.0362 201.303 24.9939C201.335 24.9492 201.376 24.9115 201.423 24.8832C201.47 24.8548 201.522 24.8365 201.577 24.8292C201.631 24.8219 201.686 24.8259 201.739 24.8409C201.792 24.8559 201.841 24.8815 201.884 24.9163C202.941 25.7542 204.076 26.5546 205.249 27.3149C205.295 27.3432 205.335 27.3807 205.367 27.425C205.398 27.4693 205.42 27.5195 205.431 27.5726C205.443 27.6257 205.443 27.6805 205.433 27.7338C205.422 27.787 205.401 27.8376 205.37 27.8824C205.334 27.9426 205.283 27.9923 205.222 28.0264C205.161 28.0605 205.092 28.0778 205.022 28.0764H205.017ZM286.012 29.8553H285.947C285.893 29.8464 285.842 29.8269 285.796 29.798C285.75 29.7691 285.711 29.7314 285.68 29.6871C285.648 29.6427 285.626 29.5926 285.615 29.5397C285.603 29.4867 285.602 29.432 285.612 29.3787C285.845 27.9853 286.207 26.6168 286.695 25.291C286.736 25.1879 286.815 25.1049 286.917 25.0596C287.018 25.0143 287.133 25.0103 287.237 25.0485C287.288 25.0671 287.334 25.0956 287.374 25.1323C287.414 25.169 287.446 25.2132 287.468 25.2624C287.491 25.3115 287.503 25.3646 287.505 25.4187C287.507 25.4727 287.498 25.5266 287.479 25.5772C287.006 26.857 286.652 28.1779 286.422 29.523C286.405 29.619 286.354 29.7056 286.278 29.7671C286.203 29.8285 286.107 29.8607 286.01 29.8577L286.012 29.8553ZM212.355 31.9907C212.297 31.9907 212.239 31.9774 212.187 31.9519C210.91 31.3977 209.634 30.7914 208.409 30.133C208.36 30.1074 208.317 30.0723 208.282 30.0296C208.246 29.987 208.22 29.9377 208.205 29.8848C208.189 29.8318 208.184 29.7762 208.191 29.7214C208.197 29.6665 208.214 29.6135 208.242 29.5655C208.266 29.5168 208.299 29.4736 208.341 29.4386C208.382 29.4035 208.43 29.3773 208.482 29.3617C208.534 29.346 208.589 29.3411 208.643 29.3474C208.697 29.3537 208.749 29.3709 208.796 29.3981C210.008 30.0432 211.258 30.6483 212.522 31.1904C212.611 31.2279 212.684 31.2951 212.729 31.3806C212.774 31.466 212.787 31.5644 212.767 31.6588C212.748 31.7533 212.696 31.8379 212.62 31.8982C212.545 31.9585 212.451 31.9908 212.355 31.9895V31.9907ZM240.556 33.2421C240.482 33.2419 240.408 33.2213 240.344 33.1827C240.28 33.144 240.228 33.0887 240.193 33.0226C240.167 32.9753 240.151 32.9234 240.145 32.8698C240.14 32.8163 240.145 32.7622 240.161 32.7107C240.176 32.6591 240.202 32.6112 240.236 32.5696C240.27 32.5281 240.312 32.4937 240.36 32.4685C241.556 31.8296 242.669 31.0456 243.674 30.1342C243.715 30.0969 243.763 30.0683 243.816 30.05C243.868 30.0318 243.924 30.0242 243.979 30.0278C244.035 30.0315 244.089 30.0462 244.138 30.0711C244.188 30.096 244.232 30.1307 244.268 30.173C244.305 30.2129 244.334 30.2599 244.352 30.3111C244.37 30.3624 244.378 30.4169 244.374 30.4712C244.37 30.5255 244.356 30.5784 244.331 30.6268C244.306 30.6752 244.271 30.718 244.229 30.7526C243.177 31.7072 242.012 32.5302 240.76 33.2033C240.695 33.2296 240.625 33.2428 240.554 33.2421H240.556ZM220.233 34.6475C220.202 34.6497 220.172 34.6451 220.143 34.6342C218.802 34.3128 217.448 33.9066 216.107 33.4616C216.054 33.4446 216.006 33.4172 215.965 33.3812C215.923 33.3451 215.89 33.3011 215.866 33.2518C215.842 33.2025 215.828 33.1488 215.825 33.094C215.822 33.0392 215.831 32.9844 215.849 32.9329C215.887 32.8297 215.963 32.745 216.062 32.6968C216.16 32.6486 216.274 32.6407 216.378 32.6746C217.693 33.1257 219.022 33.5125 220.336 33.8217C220.442 33.8506 220.533 33.9187 220.591 34.0121C220.648 34.1055 220.668 34.2174 220.647 34.325C220.623 34.4171 220.57 34.4988 220.495 34.5572C220.42 34.6156 220.328 34.6474 220.233 34.6475V34.6475ZM334.446 34.9834C334.428 34.984 334.41 34.9793 334.394 34.9701C334.287 34.957 334.189 34.9025 334.121 34.8183C334.053 34.7341 334.02 34.6267 334.03 34.519C334.134 33.6672 334.186 32.8099 334.186 31.9519C334.186 31.4499 334.16 30.9333 334.135 30.4313C334.13 30.3779 334.136 30.3241 334.152 30.273C334.169 30.2219 334.195 30.1746 334.23 30.1337C334.264 30.0929 334.307 30.0594 334.355 30.0351C334.403 30.0108 334.455 29.9963 334.508 29.9923C334.563 29.988 334.618 29.9946 334.671 30.0117C334.723 30.0288 334.772 30.0562 334.814 30.0921C334.856 30.128 334.89 30.1719 334.915 30.2211C334.94 30.2704 334.955 30.3241 334.959 30.3791C334.998 30.8945 335.011 31.4232 335.011 31.9555C335.011 32.8434 334.959 33.7305 334.856 34.6123C334.846 34.7146 334.798 34.8095 334.722 34.8786C334.646 34.9478 334.547 34.9864 334.444 34.987L334.446 34.9834ZM232.626 35.6018C232.518 35.604 232.414 35.564 232.335 35.4904C232.257 35.4168 232.21 35.3154 232.205 35.2078C232.2 35.1002 232.237 34.9949 232.308 34.9142C232.38 34.8336 232.48 34.784 232.587 34.776C233.943 34.6273 235.285 34.3644 236.597 33.9903C236.703 33.9594 236.817 33.9719 236.914 34.025C237.011 34.0781 237.082 34.1675 237.113 34.2734C237.144 34.3794 237.132 34.4933 237.078 34.59C237.025 34.6868 236.936 34.7585 236.83 34.7894C235.471 35.1782 234.082 35.45 232.677 35.6018H232.626ZM228.474 35.7777H228.461C227.058 35.7368 225.659 35.6154 224.27 35.4139C224.215 35.4086 224.163 35.3921 224.115 35.3653C224.068 35.3385 224.026 35.3021 223.993 35.2584C223.961 35.2147 223.937 35.1647 223.925 35.1115C223.913 35.0583 223.912 35.0031 223.922 34.9495C223.928 34.8947 223.944 34.8418 223.971 34.7937C223.998 34.7455 224.034 34.7033 224.077 34.6693C224.12 34.6354 224.17 34.6105 224.223 34.5962C224.276 34.5818 224.332 34.5782 224.386 34.5857C225.744 34.789 227.113 34.9056 228.486 34.9349C228.593 34.942 228.694 34.9901 228.767 35.0691C228.84 35.1481 228.879 35.2521 228.878 35.3596C228.876 35.4671 228.833 35.5699 228.758 35.6468C228.683 35.7237 228.581 35.7688 228.474 35.7728V35.7777ZM214.417 35.8031C214.31 35.8029 214.207 35.761 214.13 35.6863C214.053 35.6117 214.009 35.5101 214.005 35.403C213.966 34.8876 213.953 34.3589 213.953 33.8436C213.953 32.979 213.992 32.0889 214.074 31.2001C214.084 31.0896 214.137 30.9875 214.221 30.9153C214.306 30.8431 214.415 30.8065 214.525 30.8132C214.58 30.8175 214.633 30.8326 214.681 30.8577C214.73 30.8829 214.773 30.9175 214.808 30.9596C214.843 31.0016 214.869 31.0503 214.885 31.1026C214.901 31.155 214.906 31.21 214.9 31.2643C214.836 32.1411 214.797 33.0044 214.797 33.8436C214.797 34.3456 214.809 34.8621 214.836 35.3654C214.841 35.4744 214.804 35.5812 214.731 35.663C214.659 35.7447 214.558 35.795 214.449 35.8031H214.417ZM286.154 38.1071C286.057 38.1086 285.962 38.0757 285.886 38.0143C285.811 37.9529 285.759 37.8668 285.741 37.7712C285.461 36.3909 285.306 34.9884 285.276 33.5804C285.275 33.5253 285.285 33.4706 285.306 33.4194C285.326 33.3682 285.356 33.3215 285.395 33.282C285.433 33.2424 285.479 33.2109 285.53 33.189C285.58 33.1672 285.635 33.1556 285.69 33.1548V33.1548C285.8 33.1553 285.906 33.1985 285.985 33.2754C286.065 33.3522 286.111 33.4567 286.115 33.5671C286.136 34.9277 286.283 36.2835 286.553 37.6172C286.564 37.6702 286.564 37.7249 286.554 37.7781C286.544 37.8313 286.523 37.8819 286.493 37.927C286.463 37.9721 286.424 38.0108 286.379 38.0409C286.334 38.071 286.284 38.0918 286.23 38.1022L286.154 38.1071ZM332.034 42.8908C331.967 42.8918 331.9 42.8737 331.842 42.8387C331.793 42.8145 331.75 42.7809 331.714 42.7399C331.679 42.6988 331.652 42.6511 331.635 42.5995C331.618 42.5479 331.612 42.4935 331.616 42.4394C331.621 42.3853 331.636 42.3327 331.661 42.2845C332.28 41.071 332.792 39.8059 333.192 38.5036C333.206 38.4494 333.231 38.3986 333.265 38.3542C333.299 38.3098 333.341 38.2728 333.39 38.2454C333.439 38.218 333.493 38.2008 333.548 38.1949C333.604 38.1889 333.66 38.1943 333.714 38.2108C333.767 38.2273 333.816 38.2544 333.859 38.2906C333.902 38.3268 333.936 38.3713 333.961 38.4214C333.986 38.4715 334.001 38.5261 334.004 38.5819C334.007 38.6377 333.999 38.6936 333.979 38.7461C333.567 40.0971 333.037 41.4091 332.393 42.6665C332.362 42.7366 332.311 42.7959 332.246 42.8371C332.182 42.8783 332.106 42.8995 332.03 42.8981L332.034 42.8908ZM216.236 43.8609C216.155 43.8636 216.075 43.8419 216.006 43.7987C215.937 43.7555 215.882 43.6927 215.849 43.6184C215.306 42.318 214.879 40.972 214.573 39.5962C214.56 39.5428 214.558 39.4875 214.566 39.4333C214.575 39.3791 214.594 39.3272 214.623 39.2804C214.651 39.2337 214.689 39.193 214.734 39.1609C214.778 39.1287 214.828 39.1056 214.882 39.0929C214.936 39.081 214.992 39.0798 215.047 39.0896C215.101 39.0993 215.154 39.1198 215.2 39.1498C215.247 39.1797 215.287 39.2186 215.319 39.2642C215.351 39.3098 215.373 39.3612 215.385 39.4155C215.68 40.742 216.09 42.0404 216.61 43.2958C216.632 43.3456 216.644 43.3994 216.645 43.4539C216.646 43.5083 216.636 43.5625 216.615 43.613C216.595 43.6635 216.564 43.7093 216.525 43.7477C216.487 43.7862 216.441 43.8164 216.39 43.8367C216.342 43.8575 216.289 43.8662 216.236 43.8621V43.8609ZM288.926 45.9224C288.85 45.9236 288.774 45.9038 288.709 45.8651C288.643 45.8264 288.589 45.7702 288.553 45.7029C287.921 44.4479 287.366 43.1561 286.889 41.8347C286.869 41.7841 286.86 41.7301 286.862 41.6759C286.863 41.6216 286.876 41.5683 286.898 41.519C286.921 41.4696 286.953 41.4254 286.993 41.3888C287.033 41.3522 287.08 41.324 287.131 41.306C287.234 41.2693 287.346 41.2741 287.445 41.3194C287.544 41.3648 287.621 41.447 287.66 41.5485C288.129 42.84 288.675 44.1018 289.297 45.327C289.321 45.376 289.335 45.4292 289.338 45.4837C289.342 45.5381 289.334 45.5927 289.316 45.6442C289.298 45.6957 289.27 45.7431 289.234 45.7838C289.198 45.8245 289.154 45.8575 289.104 45.8811C289.048 45.9073 288.986 45.9206 288.924 45.9199L288.926 45.9224ZM327.095 49.5456C327.038 49.5465 326.981 49.5356 326.927 49.5134C326.874 49.4913 326.826 49.4585 326.786 49.4171C326.749 49.3782 326.719 49.3323 326.7 49.282C326.68 49.2316 326.67 49.1779 326.672 49.1239C326.673 49.0699 326.685 49.0166 326.707 48.9673C326.729 48.9179 326.76 48.8734 326.8 48.8363C327.787 47.8867 328.692 46.856 329.507 45.755C329.54 45.7117 329.581 45.6754 329.628 45.648C329.675 45.6207 329.727 45.6029 329.781 45.5957C329.835 45.5884 329.89 45.592 329.942 45.606C329.995 45.62 330.044 45.6443 330.087 45.6774C330.174 45.7437 330.232 45.841 330.249 45.949C330.266 46.0569 330.24 46.1673 330.178 46.257C329.333 47.3888 328.397 48.4497 327.379 49.4292C327.342 49.4672 327.298 49.4975 327.249 49.5183C327.201 49.5391 327.148 49.5501 327.095 49.5505V49.5456ZM220.775 50.7704C220.719 50.7727 220.663 50.7623 220.612 50.7401C220.56 50.7178 220.515 50.6842 220.478 50.6418C219.504 49.6183 218.623 48.5091 217.848 47.3278C217.818 47.2828 217.797 47.2323 217.787 47.1791C217.776 47.1259 217.777 47.0713 217.788 47.0183C217.8 46.9654 217.821 46.9153 217.852 46.8709C217.883 46.8266 217.923 46.789 217.969 46.7603C218.015 46.7298 218.066 46.7088 218.121 46.6984C218.175 46.688 218.23 46.6884 218.284 46.6997C218.338 46.711 218.389 46.7329 218.435 46.7641C218.48 46.7953 218.519 46.8352 218.549 46.8815C219.307 48.0166 220.159 49.0862 221.095 50.0792C221.132 50.1189 221.16 50.1655 221.179 50.2162C221.197 50.267 221.206 50.3209 221.203 50.3749C221.201 50.4289 221.188 50.4819 221.165 50.5308C221.142 50.5797 221.11 50.6236 221.07 50.66C221.033 50.6981 220.989 50.7284 220.94 50.7492C220.891 50.77 220.839 50.7809 220.786 50.7813L220.775 50.7704ZM293.336 52.9761C293.271 52.9768 293.207 52.962 293.148 52.9329C293.09 52.9038 293.039 52.8612 293.001 52.8088C292.152 51.6604 291.35 50.5048 290.629 49.3528C290.57 49.2605 290.551 49.1489 290.575 49.0425C290.599 48.936 290.665 48.8435 290.757 48.7853C290.849 48.7271 290.961 48.708 291.068 48.7321C291.174 48.7562 291.266 48.8216 291.325 48.9139C292.034 50.0355 292.82 51.1839 293.671 52.3189C293.704 52.3619 293.729 52.411 293.743 52.4635C293.757 52.516 293.76 52.5707 293.753 52.6246C293.746 52.6784 293.729 52.7304 293.701 52.7774C293.674 52.8244 293.638 52.8655 293.595 52.8985C293.518 52.9494 293.428 52.9764 293.336 52.9761V52.9761ZM320.3 54.31C320.222 54.3114 320.145 54.2903 320.079 54.2492C320.013 54.2082 319.96 54.1488 319.926 54.0784C319.903 54.0294 319.889 53.9761 319.885 53.9217C319.882 53.8672 319.89 53.8127 319.908 53.7612C319.925 53.7097 319.953 53.6622 319.99 53.6215C320.026 53.5809 320.07 53.5478 320.119 53.5242C321.342 52.9167 322.518 52.2183 323.636 51.4349C323.681 51.4002 323.732 51.3751 323.786 51.3608C323.841 51.3466 323.898 51.3436 323.954 51.3521C324.01 51.3605 324.063 51.3802 324.111 51.41C324.159 51.4398 324.201 51.479 324.233 51.5253C324.266 51.5716 324.288 51.624 324.3 51.6793C324.311 51.7346 324.312 51.7917 324.3 51.8471C324.289 51.9025 324.267 51.955 324.235 52.0015C324.203 52.048 324.161 52.0875 324.114 52.1176C322.958 52.9201 321.747 53.6398 320.49 54.2712C320.429 54.2967 320.363 54.3099 320.296 54.31H320.3ZM227.261 55.9506C227.184 55.9474 227.109 55.9254 227.042 55.8864C225.84 55.1617 224.685 54.3605 223.586 53.4878C223.505 53.4179 223.454 53.3193 223.444 53.2127C223.434 53.1061 223.466 52.9998 223.533 52.9163C223.6 52.8327 223.697 52.7784 223.803 52.7646C223.909 52.7509 224.017 52.7789 224.102 52.8427C225.18 53.6897 226.308 54.4701 227.481 55.1794C227.574 55.2367 227.641 55.3282 227.667 55.4342C227.694 55.5403 227.678 55.6525 227.623 55.7469C227.585 55.8094 227.531 55.8612 227.468 55.8973C227.404 55.9334 227.332 55.9526 227.259 55.9531L227.261 55.9506ZM312.601 57.4591C312.514 57.4579 312.429 57.4302 312.357 57.3795C312.286 57.3288 312.232 57.2576 312.202 57.1754C312.184 57.1238 312.176 57.0691 312.179 57.0145C312.182 56.9598 312.196 56.9064 312.22 56.8572C312.244 56.8079 312.277 56.764 312.318 56.7279C312.36 56.6917 312.407 56.6641 312.459 56.6467C313.814 56.1822 315.116 55.6924 316.34 55.2025C316.441 55.1664 316.553 55.171 316.651 55.2153C316.749 55.2596 316.826 55.3402 316.866 55.4402C316.906 55.5402 316.906 55.6518 316.866 55.7517C316.826 55.8516 316.748 55.932 316.65 55.9761C315.412 56.4611 314.096 56.9559 312.73 57.4312C312.688 57.4455 312.644 57.4541 312.6 57.4567L312.601 57.4591ZM298.74 59.3156C298.684 59.3164 298.629 59.3053 298.577 59.2832C298.526 59.261 298.48 59.2283 298.443 59.1871C297.45 58.1685 296.503 57.1257 295.632 56.0925C295.596 56.051 295.569 56.0029 295.552 55.951C295.535 55.8991 295.529 55.8443 295.533 55.7898C295.537 55.7353 295.552 55.6821 295.576 55.6334C295.601 55.5846 295.635 55.5412 295.677 55.5056C295.718 55.47 295.766 55.4429 295.818 55.4259C295.87 55.4089 295.925 55.4023 295.979 55.4065C296.034 55.4107 296.087 55.4255 296.136 55.4502C296.185 55.4749 296.228 55.509 296.264 55.5505C297.127 56.5691 298.069 57.601 299.053 58.6196C299.125 58.6997 299.164 58.8046 299.162 58.9127C299.159 59.0207 299.115 59.1237 299.039 59.2004C298.959 59.2752 298.853 59.3183 298.743 59.3217L298.74 59.3156ZM234.753 59.5448C234.704 59.5423 234.656 59.529 234.612 59.506C233.271 59.0028 231.969 58.4486 230.743 57.8678C230.645 57.8189 230.569 57.7336 230.533 57.63C230.497 57.5264 230.503 57.4128 230.55 57.3136C230.6 57.2163 230.685 57.1419 230.788 57.106C230.892 57.0701 231.005 57.0754 231.104 57.1208C232.303 57.6871 233.58 58.2291 234.908 58.7324C235.001 58.7671 235.078 58.8334 235.127 58.9198C235.175 59.0061 235.192 59.1068 235.173 59.2041C235.155 59.3013 235.102 59.3889 235.025 59.4512C234.948 59.5136 234.852 59.5467 234.753 59.5448V59.5448ZM304.62 59.8407C304.527 59.8383 304.437 59.8054 304.365 59.7471C304.293 59.6888 304.242 59.6084 304.22 59.5181C304.206 59.4657 304.203 59.411 304.211 59.3574C304.218 59.3038 304.236 59.2522 304.264 59.2056C304.292 59.1589 304.328 59.1182 304.372 59.0857C304.415 59.0532 304.464 59.0295 304.517 59.0161C305.87 58.6681 307.224 58.2885 308.518 57.9066C308.572 57.8885 308.628 57.8815 308.684 57.8858C308.74 57.8902 308.795 57.9058 308.845 57.9319C308.895 57.9579 308.939 57.9938 308.975 58.0373C309.01 58.0808 309.037 58.1311 309.052 58.1852C309.068 58.2392 309.073 58.2959 309.066 58.3518C309.059 58.4077 309.041 58.4616 309.013 58.5104C308.985 58.5591 308.947 58.6017 308.902 58.6354C308.857 58.6692 308.806 58.6935 308.751 58.7069C307.449 59.0937 306.094 59.4672 304.728 59.8286C304.689 59.8286 304.663 59.8407 304.625 59.8407H304.62ZM296.495 61.6717C296.397 61.6703 296.302 61.6348 296.227 61.5714C296.152 61.5079 296.101 61.4204 296.083 61.3237C296.073 61.2704 296.074 61.2157 296.086 61.1627C296.097 61.1098 296.119 61.0597 296.151 61.0154C296.182 60.971 296.221 60.9333 296.267 60.9044C296.313 60.8755 296.364 60.8561 296.418 60.8472C297.785 60.5755 299.152 60.293 300.48 59.9983C300.588 59.9728 300.701 59.991 300.795 60.049C300.89 60.1069 300.957 60.1999 300.983 60.3075C301.006 60.4169 300.985 60.5309 300.925 60.625C300.864 60.7191 300.769 60.7858 300.661 60.8108C299.327 61.1067 297.953 61.3904 296.573 61.6596C296.547 61.6596 296.521 61.6717 296.495 61.6717V61.6717ZM242.722 61.9434C242.697 61.9434 242.658 61.93 242.632 61.93C241.24 61.5953 239.886 61.234 238.583 60.8472C238.478 60.8159 238.388 60.7441 238.335 60.6473C238.282 60.5506 238.269 60.4367 238.3 60.3306C238.335 60.225 238.41 60.137 238.508 60.0843C238.606 60.0316 238.721 60.0182 238.828 60.0468C240.105 60.4349 241.446 60.795 242.83 61.1176C242.931 61.1409 243.02 61.2009 243.079 61.2859C243.138 61.3709 243.164 61.4748 243.151 61.5775C243.138 61.6803 243.087 61.7746 243.009 61.8422C242.93 61.9097 242.829 61.9458 242.726 61.9434H242.722ZM288.281 63.0262C288.176 63.0253 288.075 62.9846 287.999 62.9124C287.923 62.8401 287.877 62.7418 287.871 62.637C287.864 62.5323 287.898 62.429 287.965 62.348C288.031 62.267 288.126 62.2143 288.23 62.2004C289.597 62.0076 290.977 61.8015 292.33 61.582C292.438 61.5648 292.548 61.5911 292.636 61.6551C292.725 61.7191 292.784 61.8156 292.801 61.9233C292.818 62.0311 292.792 62.1412 292.728 62.2296C292.664 62.3179 292.567 62.3772 292.46 62.3944C291.105 62.626 289.713 62.8322 288.337 63.0262H288.281ZM250.911 63.4518C250.893 63.4538 250.875 63.449 250.86 63.4385C249.454 63.2457 248.061 63.0262 246.737 62.7813C246.683 62.7735 246.631 62.7547 246.584 62.726C246.538 62.6974 246.497 62.6596 246.466 62.6148C246.435 62.5701 246.413 62.5194 246.401 62.4659C246.39 62.4123 246.39 62.3571 246.401 62.3035C246.41 62.25 246.43 62.1988 246.459 62.153C246.488 62.1071 246.526 62.0674 246.57 62.0363C246.615 62.0052 246.665 61.9832 246.718 61.9716C246.771 61.96 246.826 61.9591 246.879 61.9688C248.213 62.2113 249.587 62.4332 250.979 62.626C251.033 62.6327 251.084 62.6501 251.131 62.6773C251.178 62.7045 251.219 62.7408 251.252 62.7842C251.284 62.8276 251.308 62.877 251.32 62.9297C251.333 62.9823 251.335 63.037 251.327 63.0905C251.314 63.1908 251.265 63.283 251.189 63.3499C251.113 63.4168 251.016 63.4539 250.914 63.4543L250.911 63.4518ZM280.003 63.9551C279.897 63.9559 279.796 63.9161 279.719 63.8441C279.642 63.7721 279.596 63.6733 279.59 63.5682C279.58 63.4589 279.614 63.35 279.684 63.2654C279.754 63.1807 279.854 63.127 279.964 63.1159C281.344 62.9947 282.736 62.8734 284.104 62.717C284.158 62.7095 284.214 62.7131 284.267 62.7275C284.32 62.7419 284.369 62.7667 284.413 62.8007C284.456 62.8346 284.492 62.8769 284.519 62.925C284.545 62.9731 284.562 63.0261 284.568 63.0808C284.574 63.1358 284.569 63.1915 284.554 63.2447C284.538 63.2978 284.512 63.3474 284.477 63.3904C284.442 63.4335 284.399 63.4692 284.351 63.4956C284.302 63.522 284.248 63.5384 284.193 63.544C282.827 63.6992 281.421 63.8277 280.041 63.9442C280.036 63.9492 280.03 63.9531 280.024 63.9554C280.017 63.9577 280.01 63.9584 280.003 63.9575V63.9551ZM259.203 64.274H259.177C257.772 64.183 256.365 64.0678 255.012 63.9381C254.956 63.9358 254.9 63.9221 254.849 63.8978C254.799 63.8735 254.753 63.8391 254.716 63.7967C254.679 63.7543 254.651 63.7048 254.634 63.6511C254.616 63.5975 254.61 63.5409 254.616 63.4848C254.621 63.4288 254.637 63.3743 254.664 63.3249C254.691 63.2754 254.728 63.232 254.773 63.1973C254.817 63.1625 254.868 63.1372 254.922 63.1228C254.977 63.1084 255.034 63.1052 255.089 63.1135C256.443 63.2421 257.836 63.356 259.228 63.4361C259.337 63.4429 259.44 63.4929 259.512 63.5749C259.585 63.657 259.622 63.7645 259.615 63.8738C259.61 63.9804 259.564 64.0809 259.488 64.1552C259.411 64.2295 259.309 64.272 259.203 64.274V64.274ZM271.685 64.4413C271.579 64.4393 271.477 64.3969 271.4 64.3226C271.324 64.2483 271.278 64.1477 271.273 64.0412C271.27 63.9308 271.31 63.8235 271.384 63.7418C271.459 63.6602 271.562 63.6106 271.672 63.6034C273.04 63.5646 274.445 63.5003 275.825 63.4227C275.934 63.4167 276.041 63.454 276.123 63.5264C276.205 63.5987 276.255 63.7005 276.263 63.8096C276.269 63.9202 276.233 64.029 276.16 64.1132C276.088 64.1973 275.986 64.2502 275.876 64.2606C274.484 64.3383 273.077 64.4025 271.699 64.4413H271.685ZM267.211 64.5056C265.921 64.5056 264.618 64.4935 263.355 64.4547C263.299 64.4553 263.243 64.4446 263.192 64.4233C263.14 64.4019 263.094 64.3704 263.055 64.3305C263.015 64.2906 262.985 64.2432 262.965 64.1912C262.944 64.1392 262.935 64.0836 262.937 64.0278C262.939 63.972 262.952 63.9172 262.975 63.8666C262.999 63.816 263.032 63.7707 263.074 63.7334C263.115 63.6962 263.164 63.6677 263.217 63.6497C263.27 63.6317 263.326 63.6246 263.381 63.6289C264.657 63.6543 265.959 63.681 267.25 63.681H267.52C267.629 63.6792 267.735 63.721 267.813 63.7971C267.892 63.8731 267.937 63.9773 267.939 64.0866C267.941 64.196 267.899 64.3015 267.823 64.3801C267.747 64.4587 267.643 64.5038 267.533 64.5056H267.211V64.5056ZM304.787 65.061C304.687 65.0601 304.591 65.023 304.517 64.9567C303.446 64.029 302.402 63.0881 301.409 62.1459C301.37 62.1088 301.338 62.0643 301.316 62.0151C301.295 61.9658 301.283 61.9127 301.281 61.8588C301.28 61.8049 301.29 61.7514 301.309 61.7011C301.329 61.6509 301.358 61.6051 301.395 61.5662C301.471 61.4852 301.576 61.437 301.686 61.432C301.797 61.427 301.906 61.4656 301.988 61.5396C302.969 62.4684 304 63.4094 305.057 64.3286C305.14 64.4029 305.191 64.5067 305.198 64.6177C305.205 64.7288 305.169 64.8383 305.096 64.9227C305.058 64.967 305.01 65.0025 304.957 65.0269C304.904 65.0514 304.846 65.0642 304.787 65.0646V65.061ZM311.273 70.2825C311.184 70.2833 311.098 70.2513 311.031 70.1927C309.909 69.3548 308.787 68.4951 307.717 67.639C307.671 67.6054 307.633 67.5629 307.604 67.514C307.576 67.4652 307.557 67.411 307.55 67.3548C307.543 67.2986 307.548 67.2416 307.564 67.1873C307.579 67.1329 307.606 67.0823 307.642 67.0385C307.678 66.9948 307.722 66.9588 307.773 66.9328C307.823 66.9067 307.878 66.8912 307.934 66.8872C307.991 66.8831 308.047 66.8906 308.101 66.9091C308.154 66.9277 308.204 66.9569 308.245 66.9951C309.303 67.8439 310.412 68.6927 311.519 69.5222C311.565 69.5545 311.604 69.5957 311.633 69.6433C311.663 69.691 311.682 69.744 311.691 69.7993C311.699 69.8547 311.696 69.9112 311.683 69.9654C311.669 70.0197 311.644 70.0706 311.61 70.1151C311.571 70.1666 311.52 70.2085 311.462 70.2374C311.404 70.2664 311.34 70.2818 311.275 70.2825H311.273ZM318.121 75.0286C318.039 75.0314 317.957 75.0089 317.888 74.9643C316.716 74.2028 315.555 73.4292 314.42 72.6422C314.331 72.5775 314.271 72.4811 314.252 72.3731C314.233 72.2651 314.256 72.1539 314.317 72.0626C314.348 72.0174 314.388 71.9789 314.434 71.9493C314.48 71.9196 314.531 71.8994 314.585 71.8898C314.639 71.8803 314.694 71.8815 314.748 71.8934C314.801 71.9054 314.852 71.9278 314.897 71.9595C316.018 72.7331 317.18 73.5201 318.353 74.2635C318.399 74.2934 318.439 74.3323 318.47 74.3778C318.501 74.4233 318.523 74.4745 318.534 74.5286C318.546 74.5826 318.546 74.6383 318.536 74.6925C318.525 74.7467 318.504 74.7983 318.474 74.8443C318.435 74.901 318.383 74.9473 318.323 74.9788C318.262 75.0104 318.194 75.0262 318.126 75.025L318.121 75.0286ZM325.264 79.3358C325.192 79.3386 325.121 79.3205 325.058 79.2837C323.846 78.6131 322.633 77.9037 321.435 77.1822C321.388 77.1543 321.348 77.1173 321.316 77.0733C321.284 77.0293 321.261 76.9792 321.249 76.9262C321.237 76.8732 321.235 76.8182 321.245 76.7647C321.255 76.7111 321.275 76.6601 321.305 76.6147C321.362 76.5214 321.454 76.4542 321.56 76.4276C321.666 76.4011 321.778 76.4173 321.873 76.4728C323.06 77.1822 324.271 77.8916 325.458 78.5622C325.506 78.5874 325.548 78.6218 325.582 78.6633C325.616 78.7049 325.642 78.7528 325.658 78.8044C325.673 78.8559 325.678 78.91 325.673 78.9635C325.667 79.0171 325.651 79.069 325.626 79.1163C325.591 79.1824 325.538 79.2377 325.474 79.2764C325.41 79.315 325.337 79.3356 325.262 79.3358H325.264ZM332.661 83.1519C332.603 83.1517 332.546 83.1384 332.494 83.1131C331.256 82.5335 329.992 81.9138 328.735 81.2566C328.637 81.2069 328.564 81.1205 328.53 81.0165C328.496 80.9124 328.505 80.7993 328.555 80.7018C328.604 80.6044 328.691 80.5306 328.795 80.4969C328.899 80.4631 329.012 80.472 329.11 80.5217C330.36 81.1668 331.611 81.7853 332.836 82.3528C332.935 82.4011 333.011 82.4856 333.05 82.5887C333.088 82.6918 333.085 82.8057 333.042 82.9069C333.006 82.9791 332.951 83.04 332.883 83.0828C332.815 83.1256 332.736 83.1487 332.655 83.1495L332.661 83.1519ZM340.365 86.3435C340.317 86.34 340.269 86.331 340.223 86.3168C338.972 85.8657 337.657 85.3625 336.316 84.7962C336.266 84.775 336.221 84.7442 336.183 84.7055C336.145 84.6668 336.114 84.621 336.094 84.5706C336.074 84.5203 336.063 84.4664 336.064 84.4121C336.064 84.3578 336.075 84.3042 336.097 84.2542C336.118 84.2041 336.149 84.1588 336.187 84.1207C336.226 84.0826 336.272 84.0525 336.322 84.0321C336.373 84.0118 336.426 84.0015 336.481 84.0019C336.535 84.0024 336.589 84.0135 336.639 84.0347C337.966 84.5888 339.269 85.0921 340.507 85.531C340.611 85.5674 340.696 85.6433 340.745 85.7423C340.793 85.8413 340.8 85.9553 340.765 86.0597C340.733 86.1408 340.679 86.2109 340.607 86.2613C340.536 86.3117 340.452 86.3403 340.365 86.3435V86.3435Z" fill="white"/>
<path d="M380.288 99.0758C380.017 98.8952 371.649 95.5168 371.649 95.5168C369.572 88.4837 367.793 82.3503 365.807 75.0771L364.015 74.4453L364.079 79.9263C363.55 79.8875 362.699 79.8487 362.624 80.107C362.533 80.3907 363.513 80.8418 364.093 81.0868L364.119 84.1814C364.119 84.1814 362.391 83.9231 362.274 84.3099C362.158 84.6967 364.144 85.4449 364.144 85.4449L364.171 88.1915C364.171 88.1915 362.34 87.9853 362.249 88.5662C362.158 89.147 364.235 89.9194 364.235 89.9194L364.403 92.6927C360.527 91.1106 356.561 89.7586 352.526 88.6438L350.231 82.3382L348.606 81.9744C349.625 89.221 349.612 88.3697 344.287 92.8964L345.473 93.9404L351.65 90.9623C351.65 90.9623 352.229 91.3261 353.945 92.1094C355.661 92.8927 362.945 96.0431 362.945 96.0431L360.933 97.7711C360.933 97.7711 358.819 96.9841 358.612 97.286C358.406 97.588 360.302 98.6526 360.302 98.6526L357.968 101.063C357.968 101.063 356.214 100.29 356.06 100.69C355.906 101.09 357.143 101.864 357.143 101.864L355.156 103.875C354.55 103.72 353.545 103.501 353.459 103.754C353.373 104.008 353.91 104.411 354.348 104.695L350.346 108.744L352.397 109.789C358.65 105.788 364.131 102.207 370.501 98.7897C377.502 101.252 378.69 101.717 378.69 101.717C382.377 102.4 384.183 101.596 380.288 99.0734V99.0758Z" fill="white"/>
<path d="M45.942 156.699C45.9637 156.72 45.9889 156.738 46.0166 156.75C46.6899 157.126 47.2996 157.606 47.8229 158.172C47.8443 158.195 47.87 158.213 47.8985 158.226C47.9271 158.239 47.9578 158.247 47.9891 158.248C48.0204 158.249 48.0516 158.243 48.0809 158.232C48.1102 158.221 48.1371 158.205 48.16 158.183C48.1828 158.162 48.2012 158.136 48.2142 158.108C48.2271 158.079 48.2343 158.048 48.2353 158.017C48.2364 157.986 48.2312 157.955 48.2202 157.925C48.2092 157.896 48.1925 157.869 48.1711 157.846C47.6147 157.242 46.9646 156.732 46.2457 156.336C46.2185 156.32 46.1885 156.31 46.1573 156.306C46.1262 156.302 46.0946 156.304 46.0643 156.312C46.034 156.321 46.0057 156.335 45.9809 156.354C45.9561 156.373 45.9353 156.397 45.9198 156.424C45.8959 156.467 45.8852 156.516 45.8892 156.565C45.8932 156.614 45.9116 156.66 45.942 156.699V156.699ZM49.7024 162.453C49.7281 162.48 49.7591 162.501 49.7936 162.515C49.8281 162.529 49.8651 162.535 49.9023 162.533C49.9335 162.531 49.9639 162.522 49.9917 162.508C50.0196 162.493 50.0442 162.473 50.0642 162.449C50.0842 162.425 50.0991 162.397 50.1082 162.367C50.1172 162.337 50.1201 162.306 50.1167 162.274C50.1021 162.038 50.0722 161.793 50.0429 161.541C49.9495 160.97 49.7775 160.414 49.5318 159.89C49.5062 159.833 49.4591 159.789 49.4007 159.766C49.3423 159.744 49.2775 159.746 49.2205 159.772C49.1635 159.797 49.1191 159.844 49.0969 159.903C49.0747 159.961 49.0766 160.026 49.1021 160.083C49.3249 160.571 49.4818 161.086 49.5687 161.615C49.5986 161.844 49.6279 162.082 49.6425 162.311C49.6471 162.363 49.6681 162.412 49.7024 162.451V162.453ZM41.3405 156.298C41.374 156.336 41.4181 156.363 41.467 156.375C41.5159 156.388 41.5674 156.385 41.6149 156.368C42.322 156.087 43.0863 155.981 43.8432 156.057C43.8743 156.06 43.9058 156.057 43.9356 156.048C43.9655 156.039 43.9933 156.024 44.0174 156.004C44.0415 155.984 44.0614 155.959 44.076 155.932C44.0906 155.904 44.0997 155.874 44.1026 155.842C44.1055 155.811 44.1023 155.78 44.0931 155.75C44.0839 155.72 44.0689 155.692 44.0489 155.668C44.029 155.644 44.0045 155.624 43.9768 155.61C43.9492 155.595 43.9189 155.586 43.8878 155.583C43.0552 155.498 42.2143 155.614 41.4366 155.924C41.4072 155.935 41.3804 155.952 41.3577 155.974C41.335 155.996 41.3169 156.022 41.3045 156.051C41.292 156.08 41.2855 156.111 41.2852 156.143C41.2849 156.174 41.2909 156.206 41.3029 156.235C41.3086 156.261 41.3213 156.285 41.3398 156.305L41.3405 156.298ZM48.7533 167.051C48.7717 167.067 48.7915 167.082 48.8125 167.095C48.8388 167.113 48.8685 167.125 48.8996 167.13C48.9308 167.136 48.9627 167.134 48.9934 167.127C49.0241 167.119 49.0528 167.105 49.0778 167.086C49.1028 167.066 49.1234 167.042 49.1384 167.014C49.5631 166.306 49.8568 165.528 50.0053 164.716C50.0165 164.653 50.0025 164.589 49.9663 164.537C49.9302 164.485 49.8749 164.449 49.8124 164.437C49.7818 164.432 49.7503 164.432 49.7199 164.439C49.6895 164.446 49.6608 164.459 49.6353 164.477C49.6099 164.495 49.5882 164.517 49.5716 164.544C49.5551 164.57 49.5439 164.6 49.5388 164.63C49.3973 165.385 49.1239 166.11 48.731 166.77C48.7043 166.813 48.6921 166.863 48.6961 166.913C48.7002 166.963 48.7202 167.011 48.7533 167.049V167.051ZM38.0112 159.592C38.0313 159.613 38.0548 159.631 38.0808 159.644C38.108 159.658 38.1378 159.668 38.1686 159.671C38.1993 159.674 38.2304 159.671 38.26 159.662C38.2896 159.653 38.3171 159.638 38.341 159.619C38.3648 159.599 38.3846 159.575 38.3991 159.547C38.7692 158.866 39.2274 158.236 39.7618 157.674C39.7841 157.651 39.8016 157.624 39.8133 157.595C39.825 157.565 39.8307 157.533 39.83 157.502C39.8292 157.47 39.8222 157.439 39.8092 157.41C39.7961 157.381 39.7774 157.355 39.7542 157.333C39.7319 157.312 39.7055 157.295 39.6767 157.284C39.6479 157.272 39.6171 157.267 39.5861 157.268C39.5552 157.268 39.5247 157.275 39.4964 157.288C39.4681 157.3 39.4426 157.318 39.4213 157.341C38.8581 157.934 38.3751 158.599 37.9847 159.318C37.9599 159.361 37.9493 159.41 37.9546 159.46C37.9598 159.509 37.9806 159.555 38.014 159.592H38.0112ZM5.73895 122.42C5.76141 122.445 5.78923 122.465 5.82042 122.479C5.84859 122.493 5.87922 122.501 5.91054 122.502C5.94186 122.504 5.97323 122.5 6.00284 122.49C6.03245 122.479 6.05971 122.463 6.08302 122.442C6.10634 122.421 6.12525 122.396 6.13866 122.367C6.46582 121.653 6.84206 120.963 7.26468 120.301C7.29557 120.247 7.30449 120.183 7.28959 120.123C7.27469 120.063 7.23711 120.011 7.18467 119.977C7.13222 119.944 7.06893 119.932 7.00797 119.944C6.947 119.956 6.89304 119.991 6.8573 120.042C6.42887 120.724 6.04304 121.431 5.70204 122.16C5.68374 122.203 5.6775 122.249 5.68401 122.295C5.69053 122.341 5.70954 122.384 5.73895 122.42V122.42ZM45.135 170.037C45.1664 170.078 45.2105 170.107 45.2602 170.119C45.3099 170.132 45.3624 170.128 45.4093 170.107C46.1615 169.786 46.8684 169.367 47.5123 168.863C47.5367 168.843 47.557 168.819 47.572 168.792C47.5871 168.765 47.5966 168.735 47.6 168.704C47.6035 168.673 47.6008 168.642 47.592 168.612C47.5833 168.582 47.5688 168.554 47.5493 168.53C47.531 168.504 47.5076 168.482 47.4806 168.466C47.4536 168.45 47.4235 168.439 47.3922 168.435C47.3609 168.431 47.3291 168.433 47.2987 168.442C47.2683 168.45 47.2401 168.465 47.2157 168.485C46.605 168.967 45.9326 169.365 45.2164 169.669C45.1597 169.695 45.1154 169.742 45.0933 169.8C45.0711 169.859 45.0728 169.923 45.0981 169.98C45.106 170.003 45.1186 170.023 45.135 170.04V170.037ZM36.3963 164.074C36.4294 164.111 36.4735 164.137 36.5224 164.148C36.5535 164.156 36.5857 164.156 36.6171 164.151C36.6486 164.145 36.6786 164.134 36.7055 164.116C36.7324 164.099 36.7555 164.077 36.7735 164.05C36.7916 164.024 36.8042 163.994 36.8106 163.963C36.9796 163.196 37.1923 162.44 37.4478 161.697C37.4689 161.638 37.4661 161.574 37.4401 161.517C37.4141 161.46 37.3668 161.416 37.3085 161.394C37.2477 161.372 37.1809 161.376 37.1226 161.403C37.0643 161.431 37.0193 161.481 36.9973 161.541C36.7319 162.302 36.5142 163.079 36.3455 163.867C36.335 163.903 36.3343 163.942 36.3435 163.979C36.3526 164.015 36.3714 164.049 36.3977 164.076L36.3963 164.074ZM4.30235 126.951C4.33625 126.996 4.38629 127.025 4.44162 127.033C4.47233 127.039 4.50384 127.038 4.53432 127.031C4.56481 127.025 4.59365 127.012 4.61919 126.994C4.64472 126.976 4.66642 126.953 4.68304 126.927C4.69966 126.9 4.71086 126.871 4.71599 126.84C4.8622 126.07 5.05239 125.308 5.28561 124.559C5.30385 124.499 5.29787 124.433 5.26894 124.376C5.24001 124.32 5.19035 124.277 5.13033 124.256C5.1007 124.247 5.06953 124.243 5.03861 124.246C5.00769 124.249 4.97763 124.258 4.95014 124.272C4.92265 124.287 4.89827 124.306 4.87841 124.33C4.85854 124.354 4.84358 124.381 4.83437 124.411C4.59205 125.179 4.39671 125.96 4.24943 126.752C4.24227 126.787 4.24319 126.823 4.25212 126.857C4.26105 126.892 4.27775 126.924 4.30096 126.951H4.30235ZM40.5048 171.152C40.53 171.182 40.5621 171.206 40.5985 171.222C40.6348 171.237 40.6744 171.243 40.7138 171.24C41.5157 171.158 42.3119 171.027 43.0981 170.848C43.1294 170.842 43.1591 170.829 43.1854 170.811C43.2118 170.793 43.2342 170.769 43.2515 170.742C43.2687 170.716 43.2804 170.685 43.2859 170.654C43.2914 170.623 43.2905 170.59 43.2833 170.559C43.2667 170.498 43.2276 170.446 43.174 170.413C43.1203 170.38 43.0561 170.369 42.9943 170.381C42.2284 170.558 41.4516 170.684 40.6692 170.759C40.6258 170.763 40.5845 170.779 40.5495 170.805C40.5145 170.831 40.4871 170.866 40.4703 170.906C40.4535 170.947 40.4478 170.991 40.4539 171.034C40.46 171.077 40.4776 171.118 40.5048 171.152V171.152ZM35.7947 168.804C35.8149 168.83 35.8408 168.851 35.8704 168.865C35.9 168.879 35.9325 168.886 35.9653 168.886C36.0291 168.889 36.0915 168.866 36.1388 168.823C36.186 168.78 36.2143 168.72 36.2173 168.656C36.2389 167.878 36.3058 167.086 36.4019 166.294C36.4058 166.263 36.4034 166.231 36.395 166.201C36.3866 166.17 36.3723 166.142 36.3529 166.117C36.3335 166.092 36.3094 166.072 36.2819 166.056C36.2545 166.041 36.2242 166.031 36.193 166.027C36.1304 166.022 36.0684 166.041 36.019 166.08C35.9696 166.118 35.9365 166.174 35.9263 166.236C35.8302 167.043 35.7633 167.85 35.7334 168.643C35.7339 168.702 35.7548 168.76 35.7926 168.806L35.7947 168.804ZM3.93188 131.706C3.95497 131.732 3.98351 131.753 4.0155 131.767C4.0475 131.781 4.08217 131.788 4.11712 131.787C4.14857 131.787 4.17969 131.781 4.20857 131.768C4.23745 131.756 4.26346 131.738 4.28501 131.715C4.30655 131.692 4.32316 131.665 4.33381 131.635C4.34446 131.605 4.34892 131.574 4.34692 131.543C4.33229 130.743 4.35388 129.941 4.41655 129.181C4.41882 129.149 4.41484 129.118 4.40486 129.088C4.39487 129.059 4.37907 129.031 4.35839 129.008C4.33771 128.984 4.31255 128.965 4.2844 128.952C4.25624 128.938 4.22565 128.93 4.19441 128.928C4.16358 128.925 4.1324 128.928 4.10278 128.937C4.07316 128.947 4.04572 128.962 4.02213 128.982C3.99855 129.002 3.97931 129.027 3.96559 129.055C3.95187 129.082 3.94396 129.113 3.94233 129.144C3.88314 129.928 3.86086 130.735 3.87269 131.55C3.87326 131.607 3.89426 131.662 3.93188 131.706V131.706ZM53.0066 190.696C53.0293 190.723 53.0576 190.745 53.0896 190.761C53.1215 190.776 53.1564 190.784 53.1919 190.785C54.0024 190.771 54.8102 190.687 55.6062 190.534C55.6368 190.528 55.666 190.516 55.692 190.499C55.7181 190.482 55.7405 190.459 55.7581 190.434C55.7756 190.408 55.7879 190.379 55.7942 190.348C55.8005 190.318 55.8007 190.286 55.7949 190.256C55.789 190.225 55.7772 190.196 55.7601 190.17C55.7429 190.144 55.7208 190.121 55.695 190.104C55.6692 190.086 55.6402 190.074 55.6097 190.068C55.5792 190.061 55.5477 190.061 55.517 190.067C54.7482 190.215 53.9678 190.294 53.1849 190.304C53.1536 190.304 53.1228 190.311 53.0942 190.324C53.0656 190.336 53.0398 190.355 53.0184 190.377C52.997 190.4 52.9803 190.427 52.9695 190.456C52.9586 190.486 52.9537 190.517 52.9551 190.548C52.9552 190.602 52.9734 190.654 53.0066 190.696V190.696ZM4.42073 136.445C4.44704 136.477 4.48154 136.502 4.52063 136.516C4.55971 136.531 4.60194 136.534 4.64287 136.526C4.67363 136.521 4.70307 136.51 4.72949 136.494C4.7559 136.477 4.77875 136.456 4.79671 136.43C4.81467 136.405 4.82737 136.376 4.83407 136.345C4.84078 136.315 4.84135 136.283 4.83576 136.253C4.69649 135.46 4.58368 134.668 4.50221 133.905C4.49891 133.874 4.48938 133.843 4.47417 133.815C4.45897 133.787 4.43838 133.762 4.41359 133.742C4.38881 133.722 4.36031 133.707 4.32975 133.698C4.29919 133.69 4.26716 133.687 4.2355 133.69C4.17225 133.698 4.11461 133.731 4.07464 133.78C4.03467 133.83 4.01546 133.893 4.02102 133.957C4.11015 134.735 4.22087 135.534 4.3692 136.334C4.37398 136.376 4.39206 136.415 4.42073 136.445ZM36.0043 173.575C36.0288 173.606 36.0611 173.63 36.0978 173.644C36.1344 173.658 36.1743 173.663 36.2132 173.656C36.2446 173.653 36.275 173.644 36.3026 173.628C36.3303 173.613 36.3545 173.592 36.374 173.567C36.3935 173.542 36.4078 173.514 36.4161 173.483C36.4243 173.453 36.4264 173.421 36.4221 173.39C36.3327 172.695 36.2831 171.995 36.2738 171.294C36.9625 171.339 37.6435 171.364 38.3099 171.364C38.3415 171.364 38.3728 171.357 38.4018 171.345C38.4309 171.332 38.4572 171.314 38.4792 171.291C38.5013 171.269 38.5187 171.242 38.5304 171.213C38.5421 171.183 38.5478 171.152 38.5474 171.12C38.5456 171.058 38.52 170.999 38.4759 170.954C38.4317 170.91 38.3723 170.885 38.3099 170.883C37.5397 170.883 36.748 170.854 35.9423 170.794C35.8796 170.789 35.8173 170.808 35.7688 170.849C35.7203 170.889 35.6896 170.946 35.6832 171.009C35.6789 171.053 35.6871 171.097 35.7068 171.136C35.7265 171.175 35.757 171.208 35.7947 171.231C35.803 171.974 35.8549 172.716 35.9499 173.452C35.9575 173.499 35.978 173.543 36.0091 173.578L36.0043 173.575ZM48.3194 189.94C48.3475 189.972 48.3831 189.998 48.4232 190.013C49.1871 190.278 49.9725 190.477 50.7706 190.606C50.8018 190.612 50.8339 190.611 50.8649 190.604C50.8958 190.597 50.925 190.584 50.9507 190.565C50.9763 190.546 50.9978 190.523 51.0139 190.495C51.03 190.468 51.0404 190.438 51.0443 190.406C51.0543 190.344 51.0398 190.281 51.0039 190.23C50.968 190.179 50.9136 190.143 50.8521 190.132C50.0799 190.004 49.3195 189.813 48.5785 189.561C48.5488 189.551 48.5174 189.547 48.486 189.548C48.4546 189.55 48.4239 189.558 48.3957 189.572C48.3674 189.586 48.3422 189.605 48.3215 189.629C48.3007 189.652 48.2849 189.68 48.2749 189.71C48.2613 189.749 48.2583 189.79 48.2661 189.831C48.274 189.871 48.2923 189.909 48.3194 189.94V189.94ZM31.0134 170.48C31.0443 170.519 31.0891 170.546 31.1388 170.554C31.9243 170.732 32.7167 170.872 33.5064 170.991C33.5371 170.996 33.5686 170.995 33.5989 170.988C33.6292 170.98 33.6577 170.967 33.6827 170.948C33.7076 170.929 33.7285 170.906 33.7441 170.879C33.7596 170.852 33.7695 170.822 33.7731 170.791C33.7786 170.76 33.7777 170.728 33.7705 170.697C33.7633 170.666 33.75 170.637 33.7314 170.611C33.7127 170.586 33.6891 170.564 33.6619 170.548C33.6348 170.532 33.6046 170.521 33.5733 170.517C32.7961 170.406 32.0106 170.258 31.2404 170.087C31.1791 170.076 31.1162 170.09 31.0644 170.124C31.0126 170.159 30.9759 170.212 30.9619 170.272C30.9508 170.308 30.9498 170.347 30.959 170.384C30.9682 170.421 30.9873 170.454 31.0141 170.481L31.0134 170.48ZM5.56834 141.081C5.59808 141.117 5.63804 141.143 5.683 141.156C5.72796 141.17 5.77585 141.169 5.82042 141.154C5.88066 141.136 5.93133 141.095 5.96173 141.039C5.99213 140.984 5.99989 140.919 5.98337 140.859C5.73895 140.088 5.52447 139.318 5.33923 138.57C5.33192 138.54 5.31864 138.511 5.30016 138.485C5.28168 138.46 5.25835 138.438 5.23152 138.422C5.20468 138.405 5.17486 138.394 5.14376 138.389C5.11265 138.384 5.08088 138.385 5.05024 138.393C5.01961 138.4 4.99071 138.413 4.96521 138.432C4.93971 138.45 4.91809 138.474 4.9016 138.5C4.88512 138.527 4.87407 138.557 4.86911 138.588C4.86414 138.619 4.86535 138.651 4.87267 138.682C5.06487 139.448 5.28004 140.222 5.52447 140.999C5.53445 141.029 5.54927 141.056 5.56834 141.081V141.081ZM37.1595 178.197C37.1952 178.241 37.2456 178.272 37.3018 178.282C37.3579 178.293 37.416 178.283 37.4654 178.254C37.5147 178.225 37.5522 178.18 37.5708 178.126C37.5894 178.072 37.5881 178.013 37.5669 177.96C37.2935 177.222 37.0588 176.471 36.8636 175.709C36.8562 175.678 36.8428 175.65 36.8242 175.624C36.8055 175.599 36.7821 175.578 36.7551 175.562C36.7282 175.546 36.6983 175.536 36.6673 175.532C36.6363 175.528 36.6048 175.53 36.5746 175.538C36.5128 175.553 36.4594 175.592 36.4261 175.646C36.3928 175.7 36.3823 175.765 36.397 175.827C36.5961 176.608 36.8383 177.376 37.1226 178.13C37.1302 178.155 37.1427 178.179 37.1595 178.2V178.197ZM44.1259 187.697C44.1345 187.713 44.1473 187.726 44.1628 187.734C44.8116 188.217 45.4947 188.653 46.2067 189.037C46.2619 189.065 46.3258 189.071 46.3851 189.053C46.4444 189.035 46.4945 188.995 46.5249 188.941C46.5408 188.913 46.5509 188.883 46.5546 188.851C46.5583 188.82 46.5556 188.788 46.5467 188.757C46.5377 188.727 46.5226 188.699 46.5023 188.674C46.4821 188.65 46.4571 188.63 46.4288 188.615C45.7386 188.242 45.0754 187.822 44.4442 187.356C44.3981 187.319 44.3398 187.301 44.281 187.305C44.2222 187.31 44.1672 187.336 44.127 187.379C44.0868 187.422 44.0643 187.479 44.0641 187.538C44.0639 187.597 44.086 187.654 44.1259 187.697V187.697ZM39.2904 182.461C39.3281 182.505 39.3803 182.534 39.4373 182.542C39.4944 182.55 39.5525 182.537 39.601 182.506C39.6278 182.49 39.6511 182.469 39.6695 182.443C39.6879 182.418 39.7009 182.389 39.7079 182.359C39.7149 182.328 39.7156 182.297 39.71 182.266C39.7044 182.235 39.6927 182.206 39.6755 182.18C39.2508 181.517 38.8603 180.832 38.5056 180.128C38.492 180.1 38.4729 180.075 38.4495 180.054C38.4261 180.033 38.3988 180.017 38.3691 180.007C38.3395 179.997 38.3081 179.992 38.2768 179.994C38.2455 179.996 38.2149 180.004 38.1867 180.018C38.13 180.048 38.0874 180.098 38.068 180.159C38.0486 180.22 38.0539 180.287 38.0829 180.344C38.4428 181.063 38.841 181.762 39.2758 182.439C39.2827 182.447 39.2904 182.454 39.2904 182.461V182.461ZM41.0376 184.809C41.4449 185.283 41.8823 185.742 42.3189 186.172C42.3653 186.215 42.427 186.239 42.4907 186.237C42.5544 186.236 42.615 186.21 42.6594 186.164C42.681 186.142 42.6979 186.115 42.7093 186.087C42.7206 186.058 42.7261 186.027 42.7255 185.996C42.7248 185.965 42.718 185.934 42.7055 185.906C42.6929 185.878 42.6749 185.852 42.6524 185.831C42.0895 185.281 41.5579 184.7 41.0598 184.09C41.0406 184.064 41.0161 184.042 40.9881 184.026C40.96 184.009 40.9289 183.999 40.8967 183.995C40.8644 183.991 40.8317 183.993 40.8004 184.002C40.7692 184.011 40.7401 184.026 40.715 184.047C40.6899 184.068 40.6692 184.093 40.6543 184.122C40.6393 184.151 40.6304 184.183 40.6281 184.215C40.6258 184.247 40.6301 184.28 40.6407 184.311C40.6514 184.341 40.6682 184.37 40.6901 184.394C40.8008 184.533 40.9192 184.667 41.0383 184.808L41.0376 184.809ZM7.22777 145.561C7.25957 145.601 7.30352 145.629 7.35291 145.642C7.40231 145.654 7.45446 145.65 7.50144 145.631C7.55894 145.606 7.60433 145.559 7.62788 145.501C7.65144 145.443 7.65129 145.377 7.62748 145.319C7.30924 144.578 7.02025 143.831 6.74589 143.105C6.73519 143.076 6.71883 143.049 6.69775 143.026C6.67667 143.003 6.65129 142.985 6.62307 142.972C6.59485 142.959 6.56434 142.952 6.53331 142.951C6.50228 142.95 6.47134 142.955 6.44227 142.966C6.38261 142.989 6.33446 143.034 6.30836 143.093C6.28226 143.151 6.28033 143.217 6.303 143.277C6.56971 144.01 6.87332 144.758 7.1846 145.505C7.19499 145.528 7.2102 145.548 7.22916 145.565L7.22777 145.561ZM26.4293 169.132C26.4546 169.164 26.4877 169.188 26.5254 169.202C27.2517 169.476 28.0142 169.735 28.8067 169.968C28.8675 169.985 28.9327 169.978 28.9881 169.947C29.0435 169.917 29.0847 169.866 29.1026 169.805C29.112 169.775 29.1154 169.744 29.1127 169.713C29.1099 169.682 29.1011 169.652 29.0867 169.624C29.0722 169.597 29.0525 169.572 29.0286 169.552C29.0047 169.532 28.977 169.517 28.9473 169.508C28.1625 169.279 27.407 169.027 26.696 168.753C26.6362 168.731 26.5702 168.734 26.512 168.76C26.4539 168.786 26.4082 168.833 26.3847 168.893C26.3714 168.934 26.3685 168.978 26.3762 169.02C26.384 169.063 26.4022 169.103 26.4293 169.137V169.132ZM9.27159 149.879C9.30657 149.921 9.35512 149.95 9.40904 149.961C9.46295 149.972 9.51894 149.963 9.56755 149.938C9.62206 149.906 9.66235 149.854 9.68021 149.794C9.69807 149.733 9.69214 149.668 9.66364 149.612C9.29318 148.908 8.93804 148.19 8.60517 147.486C8.59155 147.458 8.5725 147.433 8.54909 147.412C8.52569 147.391 8.49841 147.375 8.46879 147.365C8.43917 147.354 8.4078 147.35 8.37648 147.352C8.34516 147.354 8.3145 147.361 8.28624 147.375C8.22875 147.402 8.18413 147.45 8.162 147.51C8.13986 147.57 8.14196 147.635 8.16786 147.693C8.50838 148.404 8.87118 149.123 9.24165 149.834C9.24802 149.851 9.25827 149.866 9.27159 149.879V149.879ZM11.6483 154.025C11.6846 154.069 11.7356 154.097 11.7916 154.105C11.8476 154.114 11.9046 154.101 11.9519 154.07C11.9791 154.054 12.0028 154.033 12.0217 154.008C12.0406 153.983 12.0543 153.955 12.0619 153.924C12.0695 153.894 12.0709 153.862 12.066 153.831C12.0611 153.8 12.05 153.771 12.0334 153.744C11.6114 153.07 11.204 152.381 10.8119 151.7C10.78 151.646 10.7281 151.606 10.6672 151.589C10.6063 151.573 10.5412 151.58 10.4861 151.611C10.4584 151.626 10.434 151.647 10.4145 151.671C10.3949 151.696 10.3806 151.725 10.3722 151.755C10.3639 151.785 10.3618 151.817 10.3661 151.849C10.3703 151.88 10.3808 151.91 10.3969 151.937C10.7897 152.626 11.204 153.314 11.626 153.995C11.6337 154.003 11.6413 154.018 11.6483 154.025V154.025ZM22.201 166.925C22.2156 166.932 22.2309 166.947 22.2455 166.955C22.8944 167.44 23.586 167.866 24.3116 168.227C24.3696 168.255 24.4363 168.259 24.4972 168.238C24.5581 168.217 24.6085 168.174 24.6375 168.116C24.666 168.06 24.671 167.995 24.6516 167.935C24.6321 167.876 24.5898 167.826 24.5338 167.797C23.8309 167.449 23.1594 167.04 22.5269 166.576C22.5021 166.557 22.4737 166.543 22.4435 166.535C22.4133 166.527 22.3818 166.525 22.3508 166.529C22.3198 166.533 22.29 166.543 22.2629 166.559C22.2359 166.575 22.2122 166.596 22.1933 166.62C22.162 166.665 22.1459 166.719 22.1473 166.774C22.1487 166.828 22.1675 166.881 22.201 166.924V166.925ZM14.3147 157.995C14.3527 158.041 14.407 158.07 14.4663 158.077C14.5257 158.084 14.5853 158.068 14.6329 158.032C14.6584 158.013 14.68 157.99 14.6964 157.963C14.7128 157.936 14.7237 157.907 14.7285 157.876C14.7333 157.844 14.7319 157.813 14.7243 157.782C14.7167 157.752 14.7032 157.723 14.6844 157.698C14.2255 157.061 13.7666 156.402 13.3223 155.743C13.3052 155.717 13.2829 155.694 13.2568 155.676C13.2306 155.658 13.2012 155.645 13.1701 155.639C13.139 155.632 13.107 155.632 13.0759 155.638C13.0448 155.645 13.0152 155.657 12.989 155.675C12.9627 155.693 12.9403 155.716 12.9231 155.742C12.9058 155.769 12.8941 155.799 12.8885 155.83C12.883 155.861 12.8838 155.893 12.8908 155.924C12.8979 155.955 12.9111 155.984 12.9296 156.01C13.3739 156.676 13.8349 157.333 14.2993 157.979C14.2993 157.987 14.307 157.987 14.3147 157.995V157.995ZM18.809 163.57H18.8166C19.3647 164.178 19.9204 164.763 20.4684 165.311C20.5129 165.355 20.5727 165.379 20.6349 165.379C20.6971 165.379 20.7568 165.355 20.8013 165.311C20.8458 165.268 20.8715 165.209 20.8729 165.146C20.8743 165.084 20.8514 165.024 20.8089 164.978C20.2679 164.43 19.7129 163.852 19.1725 163.253C19.1288 163.206 19.0686 163.179 19.0048 163.176C18.9411 163.173 18.8788 163.196 18.8313 163.238C18.7855 163.28 18.7576 163.338 18.7535 163.4C18.7493 163.462 18.7692 163.523 18.809 163.571V163.57ZM17.2463 161.764C17.2662 161.788 17.2906 161.808 17.3181 161.822C17.3456 161.836 17.3757 161.845 17.4067 161.848C17.4376 161.851 17.4688 161.847 17.4984 161.838C17.528 161.828 17.5555 161.813 17.5792 161.793C17.626 161.752 17.6552 161.695 17.6607 161.633C17.6663 161.571 17.6478 161.509 17.6091 161.46C17.1057 160.86 16.6015 160.238 16.1134 159.601C16.0733 159.553 16.0162 159.522 15.954 159.516C15.8918 159.509 15.8294 159.526 15.7798 159.564C15.7549 159.583 15.734 159.607 15.7183 159.634C15.7026 159.661 15.6924 159.691 15.6882 159.722C15.6841 159.753 15.6861 159.784 15.6942 159.814C15.7022 159.845 15.7162 159.873 15.7352 159.898C16.2317 160.534 16.7352 161.164 17.2387 161.764H17.2463Z" fill="#E3EDF7"/>
<path d="M16.1319 101.864C16.095 102.041 14.0359 106.796 14.0359 106.796C16.0282 110.506 17.783 113.735 19.9013 117.504L19.4271 118.489L17.235 116.223C17.0504 116.452 16.7169 116.815 16.5686 116.734C16.4202 116.652 16.6431 116.074 16.7775 115.748L15.5435 114.468C15.5435 114.468 14.9363 115.267 14.7288 115.164C14.5213 115.061 15.04 113.95 15.04 113.95L13.9363 112.81C13.9363 112.81 13.2699 113.631 13.0032 113.437C12.7365 113.242 13.2622 112.074 13.2622 112.074L12.2177 110.874C11.274 113.088 10.2009 115.244 9.00397 117.331L10.6105 120.826L10.0924 121.634C7.58548 118.264 7.92252 118.613 3.924 118.918L3.9832 118.007L7.70595 116.739C7.70595 116.739 7.79439 116.347 8.17947 115.34C8.56456 114.333 10.2686 110.097 10.2686 110.097L8.75049 110.208C8.75049 110.208 8.20246 111.378 7.99564 111.341C7.78882 111.304 8.13491 110.097 8.13491 110.097L6.20181 110.06C6.20181 110.06 5.80209 111.082 5.57508 110.986C5.34806 110.89 5.54583 110.068 5.54583 110.068L3.924 110.045C3.73668 110.359 3.42123 110.852 3.2729 110.777C3.14686 110.718 3.19909 110.325 3.26525 110.036L0 109.999L0.406676 108.746C4.5758 107.852 8.26304 107.098 12.2483 105.928C14.1069 102.092 14.407 101.426 14.407 101.426C15.6319 99.6555 16.689 99.2481 16.1319 101.864Z" fill="#E3EDF7"/>
<mask id="mask0_958_9929" style="mask-type:luminance" maskUnits="userSpaceOnUse" x="215" y="95" width="24" height="22">
<path d="M216.931 95.105L238.324 97.1346L236.439 117L215.046 114.97L216.931 95.105Z" fill="white"/>
</mask>
<g mask="url(#mask0_958_9929)">
<mask id="mask1_958_9929" style="mask-type:luminance" maskUnits="userSpaceOnUse" x="88" y="96" width="152" height="41">
<path d="M88.2369 106.309L237.463 96.4657L239.467 126.863L90.2405 136.706L88.2369 106.309Z" fill="white"/>
</mask>
<g mask="url(#mask1_958_9929)">
<mask id="mask2_958_9929" style="mask-type:luminance" maskUnits="userSpaceOnUse" x="88" y="96" width="152" height="41">
<path d="M88.2379 106.309L237.464 96.4657L239.468 126.863L90.2415 136.706L88.2379 106.309Z" fill="white"/>
</mask>
<g mask="url(#mask2_958_9929)">
<mask id="mask3_958_9929" style="mask-type:luminance" maskUnits="userSpaceOnUse" x="88" y="96" width="152" height="41">
<path d="M88.2389 106.309L237.465 96.4657L239.469 126.863L90.2425 136.706L88.2389 106.309Z" fill="white"/>
</mask>
<g mask="url(#mask3_958_9929)">
<path d="M225.832 115.635C225.525 115.657 225.208 115.579 224.936 115.396C224.282 114.958 224.11 114.074 224.554 113.424L233.088 100.887L218.165 102.997C217.392 103.12 216.664 102.569 216.548 101.79C216.438 101.015 216.985 100.296 217.766 100.186L235.879 97.6224C236.395 97.5449 236.992 97.7972 237.293 98.2744C237.594 98.7487 237.585 99.3561 237.263 99.8225L226.924 115.013C226.668 115.392 226.256 115.609 225.832 115.635Z" fill="#B0D3F5"/>
</g>
</g>
</g>
</g>
<mask id="mask4_958_9929" style="mask-type:luminance" maskUnits="userSpaceOnUse" x="87" y="82" width="148" height="69">
<path d="M93.2441 82.6597L234.319 98.6782L228.431 150.533L87.3562 134.514L93.2441 82.6597Z" fill="white"/>
</mask>
<g mask="url(#mask4_958_9929)">
<mask id="mask5_958_9929" style="mask-type:luminance" maskUnits="userSpaceOnUse" x="86" y="97" width="152" height="39">
<path d="M86.462 104.576L235.845 97.4905L237.287 127.92L87.9038 135.005L86.462 104.576Z" fill="white"/>
</mask>
<g mask="url(#mask5_958_9929)">
<mask id="mask6_958_9929" style="mask-type:luminance" maskUnits="userSpaceOnUse" x="86" y="97" width="152" height="39">
<path d="M86.462 104.576L235.845 97.4905L237.287 127.92L87.9038 135.005L86.462 104.576Z" fill="white"/>
</mask>
<g mask="url(#mask6_958_9929)">
<mask id="mask7_958_9929" style="mask-type:luminance" maskUnits="userSpaceOnUse" x="86" y="97" width="152" height="39">
<path d="M86.462 104.576L235.845 97.4905L237.287 127.92L87.9038 135.005L86.462 104.576Z" fill="white"/>
</mask>
<g mask="url(#mask7_958_9929)">
<path d="M175.371 119.767C172.76 121.45 170.757 123.274 170.231 124.931C169.978 125.723 170.082 126.432 170.554 127.161C171.037 127.907 171.461 128.239 171.903 128.171C173.121 127.939 174.854 125.224 175.203 123.447C175.463 122.143 175.517 120.921 175.371 119.767ZM171.945 131.018C170.944 131.068 169.454 130.714 168.147 128.701C167.217 127.271 166.994 125.671 167.501 124.078C168.376 121.314 171.416 118.832 174.535 116.926C173.988 115.79 173.194 114.732 172.147 113.744C163.279 105.351 138.972 104.878 130.649 106.911C117.429 110.141 99.0299 118.995 90.6881 133.312C90.2911 133.991 89.4169 134.223 88.7312 133.832C88.0485 133.44 87.8126 132.569 88.2095 131.89C97.0015 116.797 116.198 107.515 129.967 104.151C138.317 102.115 164.129 102.225 174.125 111.684C175.373 112.864 176.341 114.145 177.033 115.518C178.98 114.499 180.721 113.752 181.705 113.354C187.125 111.163 193.625 110.54 200.507 109.877C211.727 108.797 223.334 107.683 231.374 99.6382C231.929 99.0856 232.835 99.0769 233.397 99.6294C233.955 100.182 233.959 101.081 233.404 101.64C224.636 110.411 211.964 111.63 200.778 112.704C194.112 113.347 187.816 113.951 182.782 115.986C181.185 116.632 179.55 117.393 178.005 118.223C178.414 120.016 178.415 121.941 178.014 123.99C177.603 126.064 175.484 130.379 172.44 130.96C172.292 130.988 172.124 131.012 171.945 131.018Z" fill="#B0D3F5"/>
</g>
</g>
</g>
</g>
<path d="M261.135 86.2898L249.111 83.8884L246.455 85.5643L255.17 92.2167C257.16 90.244 259.148 88.2684 261.135 86.2898Z" fill="#5FB3F9"/>
<mask id="mask8_958_9929" style="mask-type:luminance" maskUnits="userSpaceOnUse" x="263" y="93" width="11" height="17">
<path d="M263.537 93.8145H273.514V109.38H263.537V93.8145Z" fill="white"/>
</mask>
<g mask="url(#mask8_958_9929)">
<path d="M264.248 99.8764L271.625 109.371L273.319 106.739L270.771 94.2163C268.553 96.051 266.397 97.9637 264.248 99.8764Z" fill="#5FB3F9"/>
</g>
<mask id="mask9_958_9929" style="mask-type:luminance" maskUnits="userSpaceOnUse" x="239" y="80" width="40" height="27">
<path d="M239.918 80H278.885V106.861H239.918V80Z" fill="white"/>
</mask>
<g mask="url(#mask9_958_9929)">
<path d="M277.33 80.5578C275.831 79.8353 270.105 80.5039 268.219 81.9189C265.425 84.0114 248.379 101.393 248.379 101.393L241.943 102.587L239.958 105.3C239.958 105.3 243.241 105.899 246.562 106.538C248.103 106.835 250.733 106.043 250.733 106.043C258.464 104.289 283.266 83.4208 277.33 80.5578ZM276.287 82.9801C276.173 83.5348 275.801 84.0084 275.393 84.3892C275.178 84.587 274.941 84.7639 274.698 84.9258C274.572 85.0097 274.101 85.1896 274.047 85.3065C275.9 81.4152 272.363 81.0345 272.363 81.0345C273.202 80.8486 274.224 80.5998 275.079 80.8576C275.984 81.1274 276.476 82.0838 276.287 82.9801Z" fill="#E3EDF7"/>
</g>
<path d="M58.7581 128.151H56V121.028H58.7581V116.615L69.7904 113.845V121.028H73.6038V128.151H69.7904V140.706C70.2521 140.796 70.7618 140.88 71.3134 140.958C71.865 141.03 72.4436 141.084 73.0522 141.114L72.5485 149.208C67.518 149.208 64.2413 148.933 62.7153 148.381C61.4262 147.919 60.4429 147.326 59.7654 146.606C59.0939 145.887 58.7581 144.825 58.7581 143.416V128.151Z" fill="white"/>
<path d="M81.5151 148.609V121.028H87.0313L90.0652 124.098C92.2717 122.077 94.9998 120.776 98.2555 120.2L98.8911 130.633C98.4654 130.633 97.9467 130.699 97.3322 130.825C96.7146 130.945 96.091 131.098 95.4615 131.281C94.8379 131.467 94.2653 131.688 93.7467 131.952C93.225 132.21 92.8263 132.504 92.5475 132.84V148.609H81.5151Z" fill="white"/>
<path d="M119.03 120.2C127.856 120.2 132.268 123.234 132.268 129.302V148.609H126.752L123.622 145.479C123.071 146.096 122.417 146.651 121.668 147.146C120.915 147.634 120.112 148.045 119.257 148.381C118.4 148.717 117.525 148.974 116.631 149.16C115.744 149.343 114.887 149.436 114.065 149.436C112.497 149.436 111.094 149.271 109.856 148.945C108.615 148.624 107.566 148.114 106.702 147.41C105.845 146.708 105.185 145.776 104.724 144.616C104.268 143.449 104.04 142.022 104.04 140.334C104.04 133.715 109.035 130.405 119.03 130.405H121.236V128.427C120.652 128.397 120.121 128.364 119.641 128.331C119.168 128.301 118.733 128.283 118.334 128.283C114.2 128.283 110.629 128.792 107.626 129.806L106.294 121.891C109.97 120.764 114.215 120.2 119.03 120.2ZM115.168 139.135V141.39H117.471C119.06 141.39 120.1 141.207 120.589 140.838C121.02 140.439 121.236 139.963 121.236 139.411V136.797H118.982C117.663 136.797 116.694 136.938 116.08 137.217C115.471 137.489 115.168 138.128 115.168 139.135Z" fill="white"/>
<path d="M160.031 148.609L166.926 121.028H155.894L152.86 138.956H152.308L149.275 121.028H138.242L145.137 148.609H160.031Z" fill="white"/>
<path d="M184.213 139.231V141.162C184.765 141.228 185.317 141.276 185.868 141.306C186.42 141.33 186.971 141.342 187.523 141.342C190.959 141.342 194.424 140.79 197.92 139.687L199.203 147.781C195.06 148.885 190.983 149.436 186.971 149.436C181.821 149.436 178.098 148.234 175.795 145.827C173.499 143.422 172.354 139.753 172.354 134.818C172.354 129.887 173.508 126.217 175.819 123.81C178.137 121.406 181.854 120.2 186.971 120.2C189.544 120.2 191.69 120.362 193.411 120.68C195.129 121.001 196.517 121.538 197.572 122.287C198.627 123.039 199.374 124.05 199.814 125.321C200.261 126.592 200.486 128.196 200.486 130.13C200.486 131.721 200.216 133.092 199.683 134.243C199.146 135.394 198.25 136.338 196.996 137.073C195.74 137.81 194.07 138.353 191.984 138.704C189.897 139.057 187.307 139.231 184.213 139.231ZM184.213 130.585V132.84H186.468C187.817 132.84 188.788 132.705 189.382 132.432C189.981 132.153 190.281 131.506 190.281 130.489V128.247H188.027C186.684 128.247 185.712 128.388 185.113 128.667C184.513 128.939 184.213 129.578 184.213 130.585Z" fill="white"/>
<path d="M208.395 112.742L219.427 111.915V140.707C220.009 140.827 220.531 140.919 220.986 140.982C221.448 141.039 221.832 141.084 222.137 141.114L221.634 149.209C216.948 149.209 213.839 148.933 212.304 148.381C211.015 147.92 210.041 147.32 209.378 146.583C208.722 145.848 208.395 144.793 208.395 143.417V112.742Z" fill="white"/>
<path d="M232.627 140.43C233.85 140.43 234.864 140.832 235.673 141.63C236.489 142.421 236.896 143.461 236.896 144.747C236.896 146.037 236.489 147.08 235.673 147.877C234.864 148.669 233.85 149.064 232.627 149.064C231.395 149.064 230.364 148.651 229.533 147.829C228.709 146.999 228.298 145.971 228.298 144.747C228.298 143.461 228.709 142.421 229.533 141.63C230.364 140.832 231.395 140.43 232.627 140.43Z" fill="white"/>
<path d="M243.885 148.609H270.362V140.335H259.558L259.378 140.011L270.051 126.544V121.028H244.988L245.815 129.302H254.557L254.689 129.626L243.885 143.093V148.609Z" fill="white"/>
<path d="M289.304 148.609H278.272V122.407L289.304 121.028V148.609ZM277.672 115.824C277.672 115.002 277.762 114.307 277.948 113.737C278.131 113.171 278.452 112.712 278.908 112.358C279.369 112.007 280.002 111.756 280.802 111.603C281.6 111.444 282.613 111.363 283.836 111.363C285.059 111.363 286.061 111.444 286.846 111.603C287.628 111.756 288.249 112.007 288.705 112.358C289.166 112.712 289.49 113.171 289.676 113.737C289.859 114.307 289.952 115.002 289.952 115.824C289.952 116.657 289.859 117.347 289.676 117.898C289.49 118.45 289.166 118.903 288.705 119.253C288.249 119.607 287.628 119.853 286.846 119.997C286.061 120.135 285.059 120.201 283.836 120.201C282.949 120.201 282.127 120.171 281.378 120.105C280.625 120.042 279.975 119.865 279.423 119.577C278.872 119.283 278.44 118.846 278.128 118.27C277.822 117.688 277.672 116.873 277.672 115.824Z" fill="white"/>
<path d="M298.591 157.71V121.028H304.107L306.134 123.786C307.756 121.397 310.757 120.2 315.14 120.2C317.346 120.2 319.199 120.602 320.704 121.4C322.206 122.191 323.426 123.255 324.361 124.589C325.297 125.926 325.968 127.479 326.376 129.254C326.79 131.029 327 132.885 327 134.818C327 136.689 326.814 138.452 326.448 140.107C326.079 141.761 325.468 143.224 324.613 144.496C323.756 145.767 322.623 146.771 321.208 147.506C319.799 148.243 318.054 148.609 315.967 148.609H309.624V156.883L298.591 157.71ZM309.624 130.309V141.39H311.326C312.676 141.39 313.647 141.255 314.24 140.982C314.84 140.703 315.14 140.059 315.14 139.051V128.247H313.437C312.646 128.247 312.001 128.28 311.506 128.343C311.018 128.4 310.589 128.595 310.223 128.93C309.855 129.236 309.654 129.695 309.624 130.309Z" fill="white"/>
</svg>
