<?xml version="1.0" ?>
<!-- Uploaded to: SVG Repo, www.svgrepo.com, Generator: SVG Repo Mixer Tools -->
<svg width="800px" height="800px" viewBox="0 0 32 32" xmlns="http://www.w3.org/2000/svg">
<defs>
<style>.cls-1{fill:#005792;}</style>
</defs>
<title/>
<g id="Folder">
<path class="cls-1" d="M28.5,11.5v14a1.93,1.93,0,0,1-.5,1.31,2,2,0,0,1-1.5.69H5.5A2,2,0,0,1,4,26.81V25H24a2,2,0,0,0,2-2V9.5h.5A2,2,0,0,1,28.5,11.5Z"/>
<path d="M26.5,28.1H5.5a2.59,2.59,0,0,1-2-.9,2.52,2.52,0,0,1-.64-1.7V9.5A2.61,2.61,0,0,1,5.5,6.9h6a1.6,1.6,0,0,1,1.6,1.6.4.4,0,0,0,.4.4h13a2.61,2.61,0,0,1,2.6,2.6v14a2.49,2.49,0,0,1-.66,1.71A2.54,2.54,0,0,1,26.5,28.1Zm-21-20A1.4,1.4,0,0,0,4.1,9.5v16a1.32,1.32,0,0,0,.34.9,1.41,1.41,0,0,0,1.06.5h21a1.38,1.38,0,0,0,1-.48,1.33,1.33,0,0,0,.36-.92v-14a1.4,1.4,0,0,0-1.4-1.4h-13a1.6,1.6,0,0,1-1.6-1.6.4.4,0,0,0-.4-.4Z"/>
</g>
</svg>