<svg width="24" height="35" viewBox="0 0 24 35" fill="none" xmlns="http://www.w3.org/2000/svg">
<path fill-rule="evenodd" clip-rule="evenodd" d="M6.05425 1.6059C9.79974 -0.57039 14.4036 -0.532352 18.1139 1.70554C21.7878 3.98902 24.0207 8.06435 23.9999 12.4483C23.9143 16.8034 21.5201 20.8973 18.5272 24.062C16.7998 25.8968 14.8674 27.5193 12.7695 28.8962C12.5535 29.0212 12.3168 29.1048 12.0712 29.143C11.8348 29.133 11.6046 29.0631 11.4014 28.9398C8.19849 26.8708 5.38861 24.2299 3.10687 21.1441C1.19759 18.5682 0.11286 15.4561 1.99476e-06 12.2305C-0.00247859 7.83818 2.30875 3.7822 6.05425 1.6059ZM8.21829 14.0485C8.84833 15.6017 10.3355 16.6149 11.9854 16.6149C13.0662 16.6227 14.1052 16.1897 14.8709 15.4125C15.6365 14.6354 16.0652 13.5785 16.0613 12.4775C16.0671 10.7969 15.0777 9.27851 13.5551 8.63129C12.0324 7.98408 10.277 8.33571 9.10827 9.522C7.93959 10.7083 7.58825 12.4952 8.21829 14.0485Z" fill="#0080FF"/>
<ellipse opacity="0.4" cx="11.9992" cy="32.5714" rx="8.57148" ry="1.7143" fill="#0080FF"/>
</svg>
