<svg width="305" height="88" viewBox="0 0 305 88" fill="none" xmlns="http://www.w3.org/2000/svg">
<mask id="mask0_957_9820" style="mask-type:luminance" maskUnits="userSpaceOnUse" x="179" y="17" width="27" height="25">
<path d="M181.121 17L205.198 19.2843L203.077 41.6415L179 39.3573L181.121 17Z" fill="white"/>
</mask>
<g mask="url(#mask0_957_9820)">
<mask id="mask1_957_9820" style="mask-type:luminance" maskUnits="userSpaceOnUse" x="36" y="18" width="171" height="46">
<path d="M36.2814 29.6096L204.23 18.5315L206.485 52.7424L38.5364 63.8205L36.2814 29.6096Z" fill="white"/>
</mask>
<g mask="url(#mask1_957_9820)">
<mask id="mask2_957_9820" style="mask-type:luminance" maskUnits="userSpaceOnUse" x="36" y="18" width="171" height="46">
<path d="M36.2824 29.6096L204.231 18.5315L206.486 52.7424L38.5374 63.8205L36.2824 29.6096Z" fill="white"/>
</mask>
<g mask="url(#mask2_957_9820)">
<mask id="mask3_957_9820" style="mask-type:luminance" maskUnits="userSpaceOnUse" x="36" y="18" width="171" height="46">
<path d="M36.2834 29.6096L204.232 18.5315L206.487 52.7424L38.5384 63.8205L36.2834 29.6096Z" fill="white"/>
</mask>
<g mask="url(#mask3_957_9820)">
<path d="M191.139 40.1054C190.794 40.1303 190.437 40.0422 190.131 39.8369C189.395 39.3434 189.201 38.349 189.701 37.6169L199.306 23.5072L182.511 25.8825C181.64 26.0202 180.821 25.4003 180.691 24.5237C180.567 23.651 181.182 22.8418 182.062 22.7185L202.447 19.8331C203.028 19.7459 203.699 20.0298 204.038 20.567C204.377 21.1007 204.367 21.7844 204.005 22.3093L192.368 39.4052C192.08 39.832 191.616 40.0761 191.139 40.1054Z" fill="#B0D3F5"/>
</g>
</g>
</g>
</g>
<mask id="mask4_957_9820" style="mask-type:luminance" maskUnits="userSpaceOnUse" x="35" y="2" width="166" height="78">
<path d="M41.917 2.99341L200.692 21.0217L194.065 79.382L35.2904 61.3538L41.917 2.99341Z" fill="white"/>
</mask>
<g mask="url(#mask4_957_9820)">
<mask id="mask5_957_9820" style="mask-type:luminance" maskUnits="userSpaceOnUse" x="34" y="19" width="171" height="43">
<path d="M34.284 27.6591L202.409 19.6851L204.031 53.9319L35.9067 61.9059L34.284 27.6591Z" fill="white"/>
</mask>
<g mask="url(#mask5_957_9820)">
<mask id="mask6_957_9820" style="mask-type:luminance" maskUnits="userSpaceOnUse" x="34" y="19" width="171" height="43">
<path d="M34.284 27.6591L202.409 19.6851L204.031 53.9319L35.9067 61.9059L34.284 27.6591Z" fill="white"/>
</mask>
<g mask="url(#mask6_957_9820)">
<mask id="mask7_957_9820" style="mask-type:luminance" maskUnits="userSpaceOnUse" x="34" y="19" width="171" height="43">
<path d="M34.284 27.6591L202.409 19.6851L204.031 53.9319L35.9067 61.9059L34.284 27.6591Z" fill="white"/>
</mask>
<g mask="url(#mask7_957_9820)">
<path d="M134.347 44.7564C131.408 46.6503 129.155 48.7035 128.563 50.5685C128.278 51.4598 128.395 52.2574 128.926 53.0784C129.47 53.9177 129.947 54.2911 130.444 54.2152C131.815 53.9532 133.765 50.8977 134.158 48.8981C134.451 47.4304 134.512 46.0553 134.347 44.7564ZM130.491 57.4193C129.364 57.4747 127.688 57.0772 126.217 54.8116C125.17 53.202 124.92 51.401 125.49 49.6083C126.475 46.4976 129.896 43.7042 133.406 41.5594C132.791 40.2806 131.897 39.0891 130.719 37.9775C120.739 28.5315 93.382 27.9992 84.0149 30.2872C69.1363 33.9223 48.4285 43.8873 39.04 60.0002C38.5933 60.7645 37.6094 61.0263 36.8376 60.5855C36.0693 60.1451 35.8037 59.1641 36.2505 58.3999C46.1455 41.414 67.7503 30.9668 83.2469 27.1812C92.645 24.8899 121.695 25.0134 132.945 35.6596C134.35 36.9872 135.439 38.4285 136.218 39.9737C138.409 38.8268 140.369 37.9865 141.476 37.5383C147.576 35.0729 154.892 34.3722 162.637 33.6251C175.265 32.4102 188.328 31.1565 197.377 22.1021C198.001 21.4802 199.021 21.4704 199.653 22.0923C200.282 22.7138 200.286 23.7262 199.661 24.3547C189.793 34.2262 175.531 35.5985 162.942 36.8075C155.44 37.5313 148.354 38.2106 142.688 40.5012C140.89 41.2275 139.051 42.0849 137.312 43.0182C137.772 45.0366 137.774 47.2033 137.322 49.5086C136.86 51.8433 134.475 56.7 131.049 57.3536C130.882 57.3856 130.693 57.4116 130.491 57.4193Z" fill="#B0D3F5"/>
</g>
</g>
</g>
</g>
<path d="M230.871 7.07883L217.338 4.37622L214.349 6.26231L224.157 13.7493C226.397 11.5292 228.634 9.3057 230.871 7.07883Z" fill="#5FB3F9"/>
<mask id="mask8_957_9820" style="mask-type:luminance" maskUnits="userSpaceOnUse" x="233" y="15" width="12" height="19">
<path d="M233.575 15.5476H244.804V33.0657H233.575V15.5476Z" fill="white"/>
</mask>
<g mask="url(#mask8_957_9820)">
<path d="M234.375 22.37L242.678 33.0556L244.584 30.0931L241.716 15.9998C239.22 18.0647 236.794 20.2173 234.375 22.37Z" fill="#5FB3F9"/>
</g>
<mask id="mask9_957_9820" style="mask-type:luminance" maskUnits="userSpaceOnUse" x="206" y="0" width="45" height="31">
<path d="M206.993 0H250.849V30.2314H206.993V0Z" fill="white"/>
</mask>
<g mask="url(#mask9_957_9820)">
<path d="M249.098 0.627647C247.411 -0.185498 240.967 0.566914 238.845 2.15946C235.7 4.51455 216.515 24.0773 216.515 24.0773L209.271 25.4201L207.038 28.4736C207.038 28.4736 210.732 29.1485 214.471 29.8671C216.205 30.2012 219.164 29.3104 219.164 29.3104C227.866 27.3366 255.779 3.84986 249.098 0.627647ZM247.924 3.35388C247.796 3.97807 247.378 4.51117 246.919 4.93968C246.676 5.16236 246.409 5.36143 246.136 5.54363C245.994 5.6381 245.465 5.84055 245.404 5.97213C247.489 1.59262 243.508 1.16412 243.508 1.16412C244.452 0.95493 245.603 0.674883 246.565 0.965051C247.584 1.26871 248.137 2.34504 247.924 3.35388Z" fill="#E3EDF7"/>
</g>
<path d="M3.10412 54.1923H0V46.1755H3.10412V41.2089L15.5206 38.0913V46.1755H19.8124V54.1923H15.5206V68.3228C16.0402 68.424 16.6138 68.5185 17.2346 68.6062C17.8554 68.6872 18.5066 68.7479 19.1916 68.7816L18.6247 77.8915C12.9631 77.8915 9.27525 77.5811 7.55786 76.9603C6.10702 76.4407 5.00034 75.7726 4.2378 74.9629C3.48201 74.1531 3.10412 72.9587 3.10412 71.3729V54.1923Z" fill="#66B2F5"/>
<path d="M28.7163 77.2166V46.1754H34.9246L38.3391 49.6304C40.8224 47.3563 43.8928 45.892 47.557 45.2441L48.2723 56.9858C47.7932 56.9858 47.2095 57.06 46.5178 57.2018C45.8227 57.3367 45.1209 57.5088 44.4124 57.7146C43.7106 57.9238 43.0661 58.1735 42.4824 58.4704C41.8953 58.7606 41.4466 59.0912 41.1328 59.4691V77.2166H28.7163Z" fill="#66B2F5"/>
<path d="M70.9376 45.2441C80.8708 45.2441 85.8374 48.6587 85.8374 55.4877V77.2166H79.6292L76.1066 73.6941C75.4858 74.3891 74.7503 75.0133 73.9068 75.5701C73.0599 76.12 72.1556 76.5823 71.194 76.9602C70.2291 77.3381 69.2438 77.6282 68.2384 77.8374C67.2397 78.0432 66.2747 78.1478 65.3502 78.1478C63.5856 78.1478 62.0065 77.9623 60.613 77.5945C59.2162 77.2335 58.0353 76.6599 57.0635 75.867C56.0986 75.0775 55.3563 74.0281 54.8367 72.7224C54.3238 71.4099 54.0674 69.8038 54.0674 67.9042C54.0674 60.4543 59.6885 56.7294 70.9376 56.7294H73.4209V54.5025C72.763 54.4688 72.1658 54.4317 71.6259 54.3946C71.0928 54.3608 70.6036 54.3406 70.1548 54.3406C65.502 54.3406 61.4835 54.9142 58.1027 56.0546L56.6047 47.1471C60.7412 45.8785 65.5189 45.2441 70.9376 45.2441ZM66.5918 66.5546V69.0919H69.1831C70.9714 69.0919 72.1421 68.8861 72.6921 68.4711C73.178 68.0223 73.4209 67.4858 73.4209 66.865V63.9229H70.8836C69.399 63.9229 68.3092 64.0814 67.6176 64.3952C66.9326 64.7023 66.5918 65.4209 66.5918 66.5546Z" fill="#66B2F5"/>
<path d="M117.083 77.2168L124.843 46.1755H112.427L109.012 66.3523H108.392L104.977 46.1755H92.5605L100.321 77.2168H117.083Z" fill="#66B2F5"/>
<path d="M144.299 66.6626V68.8355C144.92 68.9097 145.541 68.9637 146.161 68.9974C146.782 69.0244 147.403 69.0379 148.024 69.0379C151.89 69.0379 155.791 68.4171 159.725 67.1754L161.169 76.2854C156.506 77.527 151.917 78.1478 147.403 78.1478C141.606 78.1478 137.416 76.7948 134.825 74.0855C132.24 71.3795 130.951 67.2497 130.951 61.696C130.951 56.1457 132.25 52.0159 134.852 49.3065C137.46 46.6005 141.644 45.2441 147.403 45.2441C150.298 45.2441 152.714 45.4263 154.65 45.784C156.584 46.145 158.146 46.749 159.334 47.5925C160.521 48.4394 161.361 49.5764 161.857 51.007C162.36 52.4376 162.613 54.2427 162.613 56.419C162.613 58.2106 162.31 59.7525 161.709 61.0482C161.105 62.3438 160.096 63.4066 158.686 64.2333C157.272 65.0633 155.393 65.674 153.044 66.0688C150.696 66.4669 147.781 66.6626 144.299 66.6626ZM144.299 56.9318V59.4691H146.836C148.354 59.4691 149.448 59.3173 150.116 59.0102C150.791 58.6965 151.128 57.9677 151.128 56.8239V54.3001H148.591C147.079 54.3001 145.986 54.4587 145.311 54.7724C144.636 55.0795 144.299 55.7982 144.299 56.9318Z" fill="#66B2F5"/>
<path d="M171.515 36.8497L183.931 35.9185V68.3228C184.586 68.4578 185.173 68.5624 185.686 68.6332C186.205 68.6973 186.637 68.7479 186.981 68.7817L186.414 77.8916C181.141 77.8916 177.642 77.5812 175.914 76.9604C174.464 76.4407 173.367 75.7659 172.621 74.9359C171.882 74.1093 171.515 72.9216 171.515 71.3729V36.8497Z" fill="#66B2F5"/>
<path d="M198.787 68.0122C200.164 68.0122 201.304 68.4643 202.215 69.3618C203.133 70.2526 203.592 71.4234 203.592 72.8708C203.592 74.3217 203.133 75.4958 202.215 76.3933C201.304 77.2841 200.164 77.7295 198.787 77.7295C197.4 77.7295 196.24 77.2638 195.305 76.3394C194.377 75.4047 193.915 74.2474 193.915 72.8708C193.915 71.4234 194.377 70.2526 195.305 69.3618C196.24 68.4643 197.4 68.0122 198.787 68.0122Z" fill="#66B2F5"/>
<path d="M211.457 77.2168H241.257V67.9044H229.097L228.894 67.54L240.906 52.3838V46.1755H212.699L213.63 55.4879H223.469L223.617 55.8523L211.457 71.0085V77.2168Z" fill="#66B2F5"/>
<path d="M262.575 77.2168H250.158V47.7276L262.575 46.1755V77.2168ZM249.483 40.3182C249.483 39.3937 249.585 38.6109 249.794 37.9699C250 37.3322 250.361 36.8159 250.874 36.4178C251.393 36.023 252.105 35.7396 253.006 35.5675C253.903 35.3887 255.044 35.2976 256.42 35.2976C257.797 35.2976 258.924 35.3887 259.808 35.5675C260.689 35.7396 261.387 36.023 261.9 36.4178C262.419 36.8159 262.784 37.3322 262.993 37.9699C263.199 38.6109 263.303 39.3937 263.303 40.3182C263.303 41.2562 263.199 42.0322 262.993 42.653C262.784 43.2739 262.419 43.7833 261.9 44.1781C261.387 44.5762 260.689 44.8529 259.808 45.0149C258.924 45.1701 257.797 45.2443 256.42 45.2443C255.422 45.2443 254.497 45.2106 253.654 45.1363C252.807 45.0655 252.075 44.8664 251.454 44.5425C250.833 44.2118 250.347 43.7192 249.996 43.0714C249.652 42.4168 249.483 41.4991 249.483 40.3182Z" fill="#66B2F5"/>
<path d="M273.027 87.4602V46.1754H279.236L281.516 49.2795C283.342 46.5904 286.719 45.2441 291.652 45.2441C294.135 45.2441 296.221 45.6963 297.914 46.5938C299.605 47.4845 300.978 48.6823 302.031 50.1837C303.083 51.6886 303.839 53.4363 304.298 55.4338C304.764 57.4312 305 59.5197 305 61.696C305 63.8014 304.791 65.7853 304.379 67.6478C303.964 69.5103 303.276 71.1568 302.314 72.5874C301.349 74.018 300.074 75.1483 298.481 75.9749C296.895 76.805 294.932 77.2166 292.583 77.2166H285.444V86.529L273.027 87.4602ZM285.444 56.6214V69.0919H287.36C288.879 69.0919 289.972 68.9401 290.64 68.633C291.315 68.3192 291.652 67.5938 291.652 66.4601V54.3001H289.736C288.845 54.3001 288.119 54.3372 287.563 54.408C287.013 54.4722 286.53 54.6915 286.119 55.0694C285.704 55.4135 285.478 55.9297 285.444 56.6214Z" fill="#66B2F5"/>
</svg>
