<svg width="305" height="88" viewBox="0 0 305 88" fill="none" xmlns="http://www.w3.org/2000/svg">
<mask id="mask0_910_10518" style="mask-type:luminance" maskUnits="userSpaceOnUse" x="179" y="17" width="27" height="25">
<path d="M181.121 17L205.198 19.2843L203.077 41.6415L179 39.3573L181.121 17Z" fill="white"/>
</mask>
<g mask="url(#mask0_910_10518)">
<mask id="mask1_910_10518" style="mask-type:luminance" maskUnits="userSpaceOnUse" x="36" y="18" width="171" height="46">
<path d="M36.2814 29.6096L204.23 18.5315L206.485 52.7425L38.5364 63.8206L36.2814 29.6096Z" fill="white"/>
</mask>
<g mask="url(#mask1_910_10518)">
<mask id="mask2_910_10518" style="mask-type:luminance" maskUnits="userSpaceOnUse" x="36" y="18" width="171" height="46">
<path d="M36.2824 29.6097L204.231 18.5316L206.486 52.7426L38.5374 63.8206L36.2824 29.6097Z" fill="white"/>
</mask>
<g mask="url(#mask2_910_10518)">
<mask id="mask3_910_10518" style="mask-type:luminance" maskUnits="userSpaceOnUse" x="36" y="18" width="171" height="46">
<path d="M36.2834 29.6097L204.232 18.5317L206.487 52.7426L38.5384 63.8207L36.2834 29.6097Z" fill="white"/>
</mask>
<g mask="url(#mask3_910_10518)">
<path d="M191.139 40.1055C190.794 40.1305 190.437 40.0423 190.131 39.837C189.395 39.3435 189.201 38.3491 189.701 37.617L199.306 23.5073L182.511 25.8827C181.64 26.0204 180.821 25.4004 180.691 24.5238C180.567 23.6512 181.182 22.8419 182.062 22.7186L202.447 19.8332C203.028 19.746 203.699 20.03 204.038 20.5671C204.377 21.1009 204.367 21.7845 204.005 22.3094L192.368 39.4053C192.08 39.8322 191.616 40.0763 191.139 40.1055Z" fill="#B0D3F5"/>
</g>
</g>
</g>
</g>
<mask id="mask4_910_10518" style="mask-type:luminance" maskUnits="userSpaceOnUse" x="35" y="2" width="166" height="78">
<path d="M41.917 2.99347L200.692 21.0217L194.065 79.3821L35.2904 61.3539L41.917 2.99347Z" fill="white"/>
</mask>
<g mask="url(#mask4_910_10518)">
<mask id="mask5_910_10518" style="mask-type:luminance" maskUnits="userSpaceOnUse" x="34" y="19" width="171" height="43">
<path d="M34.2845 27.6593L202.409 19.6852L204.032 53.932L35.9071 61.906L34.2845 27.6593Z" fill="white"/>
</mask>
<g mask="url(#mask5_910_10518)">
<mask id="mask6_910_10518" style="mask-type:luminance" maskUnits="userSpaceOnUse" x="34" y="19" width="171" height="43">
<path d="M34.2845 27.6593L202.409 19.6852L204.032 53.932L35.9071 61.906L34.2845 27.6593Z" fill="white"/>
</mask>
<g mask="url(#mask6_910_10518)">
<mask id="mask7_910_10518" style="mask-type:luminance" maskUnits="userSpaceOnUse" x="34" y="19" width="171" height="43">
<path d="M34.2845 27.6593L202.409 19.6852L204.032 53.932L35.9071 61.906L34.2845 27.6593Z" fill="white"/>
</mask>
<g mask="url(#mask7_910_10518)">
<path d="M134.347 44.7565C131.409 46.6504 129.155 48.7036 128.563 50.5686C128.279 51.4599 128.395 52.2575 128.927 53.0785C129.47 53.9178 129.947 54.2912 130.445 54.2153C131.816 53.9533 133.766 50.8978 134.159 48.8982C134.451 47.4305 134.512 46.0554 134.347 44.7565ZM130.492 57.4194C129.365 57.4748 127.688 57.0773 126.217 54.8117C125.171 53.2022 124.92 51.4011 125.491 49.6084C126.475 46.4977 129.896 43.7044 133.406 41.5595C132.791 40.2808 131.897 39.0893 130.72 37.9776C120.739 28.5316 93.3825 27.9993 84.0153 30.2873C69.1368 33.9224 48.429 43.8874 39.0405 60.0003C38.5938 60.7646 37.6098 61.0264 36.8381 60.5856C36.0698 60.1452 35.8042 59.1643 36.251 58.4C46.146 41.4141 67.7507 30.9669 83.2474 27.1813C92.6455 24.89 121.695 25.0135 132.946 35.6598C134.35 36.9874 135.439 38.4286 136.218 39.9738C138.41 38.827 140.369 37.9866 141.476 37.5384C147.576 35.0731 154.892 34.3723 162.638 33.6252C175.265 32.4103 188.328 31.1566 197.377 22.1022C198.001 21.4803 199.021 21.4705 199.653 22.0924C200.282 22.7139 200.286 23.7263 199.661 24.3548C189.793 34.2263 175.532 35.5986 162.942 36.8076C155.44 37.5314 148.354 38.2108 142.688 40.5013C140.891 41.2276 139.052 42.0851 137.312 43.0183C137.772 45.0367 137.774 47.2034 137.322 49.5087C136.86 51.8434 134.475 56.7002 131.049 57.3537C130.883 57.3857 130.693 57.4117 130.492 57.4194Z" fill="#B0D3F5"/>
</g>
</g>
</g>
</g>
<path d="M230.871 7.07877L217.338 4.37616L214.349 6.26225L224.157 13.7493C226.397 11.5291 228.634 9.30564 230.871 7.07877Z" fill="#5FB3F9"/>
<mask id="mask8_910_10518" style="mask-type:luminance" maskUnits="userSpaceOnUse" x="233" y="15" width="12" height="19">
<path d="M233.575 15.5477H244.804V33.0657H233.575V15.5477Z" fill="white"/>
</mask>
<g mask="url(#mask8_910_10518)">
<path d="M234.375 22.37L242.679 33.0556L244.585 30.0931L241.717 15.9998C239.22 18.0647 236.794 20.2173 234.375 22.37Z" fill="#5FB3F9"/>
</g>
<mask id="mask9_910_10518" style="mask-type:luminance" maskUnits="userSpaceOnUse" x="206" y="0" width="45" height="31">
<path d="M206.993 6.10352e-05H250.849V30.2315H206.993V6.10352e-05Z" fill="white"/>
</mask>
<g mask="url(#mask9_910_10518)">
<path d="M249.098 0.627647C247.411 -0.185498 240.967 0.566914 238.844 2.15946C235.7 4.51455 216.515 24.0773 216.515 24.0773L209.271 25.4201L207.037 28.4736C207.037 28.4736 210.732 29.1485 214.47 29.8671C216.204 30.2012 219.163 29.3104 219.163 29.3104C227.865 27.3366 255.779 3.84986 249.098 0.627647ZM247.924 3.35388C247.796 3.97807 247.377 4.51117 246.918 4.93968C246.675 5.16236 246.409 5.36143 246.136 5.54363C245.994 5.6381 245.464 5.84055 245.403 5.97213C247.489 1.59262 243.507 1.16412 243.507 1.16412C244.452 0.95493 245.602 0.674883 246.564 0.965051C247.583 1.26871 248.136 2.34504 247.924 3.35388Z" fill="#E3EDF7"/>
</g>
<path d="M3.10412 54.1923H0V46.1756H3.10412V41.209L15.5206 38.0914V46.1756H19.8124V54.1923H15.5206V68.3228C16.0402 68.424 16.6138 68.5185 17.2346 68.6062C17.8554 68.6872 18.5066 68.7479 19.1916 68.7817L18.6247 77.8916C12.9631 77.8916 9.27525 77.5812 7.55786 76.9604C6.10702 76.4408 5.00033 75.7727 4.2378 74.9629C3.48201 74.1532 3.10412 72.9588 3.10412 71.373V54.1923Z" fill="white"/>
<path d="M28.7168 77.2167V46.1755H34.925L38.3396 49.6305C40.8229 47.3564 43.8933 45.8921 47.5575 45.2443L48.2728 56.9859C47.7937 56.9859 47.2099 57.0602 46.5183 57.2019C45.8232 57.3368 45.1214 57.5089 44.4129 57.7147C43.7111 57.9239 43.0666 58.1736 42.4829 58.4705C41.8958 58.7607 41.4471 59.0913 41.1333 59.4692V77.2167H28.7168Z" fill="white"/>
<path d="M70.9376 45.2443C80.8708 45.2443 85.8374 48.6589 85.8374 55.4879V77.2168H79.6292L76.1066 73.6943C75.4858 74.3893 74.7503 75.0135 73.9068 75.5702C73.0599 76.1202 72.1556 76.5825 71.194 76.9604C70.2291 77.3382 69.2438 77.6284 68.2384 77.8376C67.2397 78.0434 66.2747 78.148 65.3502 78.148C63.5856 78.148 62.0065 77.9624 60.613 77.5947C59.2162 77.2337 58.0353 76.6601 57.0635 75.8672C56.0986 75.0776 55.3563 74.0283 54.8367 72.7226C54.3238 71.41 54.0674 69.804 54.0674 67.9044C54.0674 60.4545 59.6885 56.7296 70.9376 56.7296H73.4209V54.5027C72.763 54.469 72.1658 54.4319 71.6259 54.3947C71.0928 54.361 70.6036 54.3408 70.1548 54.3408C65.502 54.3408 61.4835 54.9143 58.1027 56.0548L56.6047 47.1473C60.7412 45.8786 65.5189 45.2443 70.9376 45.2443ZM66.5918 66.5548V69.0921H69.1831C70.9714 69.0921 72.1421 68.8863 72.6921 68.4713C73.178 68.0225 73.4209 67.486 73.4209 66.8652V63.923H70.8836C69.399 63.923 68.3092 64.0816 67.6176 64.3954C66.9326 64.7024 66.5918 65.4211 66.5918 66.5548Z" fill="white"/>
<path d="M117.083 77.2168L124.843 46.1756H112.427L109.012 66.3524H108.392L104.977 46.1756H92.5605L100.321 77.2168H117.083Z" fill="white"/>
<path d="M144.299 66.6628V68.8357C144.92 68.9099 145.541 68.9639 146.161 68.9976C146.782 69.0246 147.403 69.0381 148.024 69.0381C151.89 69.0381 155.791 68.4173 159.725 67.1756L161.169 76.2855C156.506 77.5272 151.917 78.148 147.403 78.148C141.606 78.148 137.416 76.795 134.825 74.0857C132.24 71.3797 130.951 67.2499 130.951 61.6962C130.951 56.1459 132.25 52.016 134.852 49.3067C137.46 46.6007 141.644 45.2443 147.403 45.2443C150.298 45.2443 152.714 45.4265 154.65 45.7842C156.584 46.1452 158.146 46.7491 159.334 47.5927C160.521 48.4395 161.361 49.5766 161.857 51.0072C162.36 52.4378 162.613 54.2429 162.613 56.4192C162.613 58.2108 162.31 59.7527 161.709 61.0484C161.105 62.344 160.096 63.4068 158.686 64.2335C157.272 65.0635 155.393 65.6742 153.044 66.0689C150.696 66.4671 147.781 66.6628 144.299 66.6628ZM144.299 56.932V59.4693H146.836C148.354 59.4693 149.448 59.3175 150.116 59.0104C150.791 58.6966 151.128 57.9679 151.128 56.824V54.3003H148.591C147.079 54.3003 145.986 54.4588 145.311 54.7726C144.636 55.0797 144.299 55.7983 144.299 56.932Z" fill="white"/>
<path d="M171.515 36.8497L183.931 35.9185V68.3228C184.586 68.4578 185.173 68.5623 185.686 68.6332C186.205 68.6973 186.637 68.7479 186.981 68.7817L186.414 77.8916C181.141 77.8916 177.642 77.5812 175.914 76.9603C174.464 76.4407 173.367 75.7659 172.621 74.9359C171.882 74.1093 171.515 72.9216 171.515 71.3729V36.8497Z" fill="white"/>
<path d="M198.787 68.0123C200.164 68.0123 201.304 68.4645 202.215 69.3619C203.133 70.2527 203.592 71.4235 203.592 72.871C203.592 74.3218 203.133 75.496 202.215 76.3935C201.304 77.2842 200.164 77.7296 198.787 77.7296C197.4 77.7296 196.24 77.264 195.305 76.3395C194.377 75.4049 193.915 74.2476 193.915 72.871C193.915 71.4235 194.377 70.2527 195.305 69.3619C196.24 68.4645 197.4 68.0123 198.787 68.0123Z" fill="white"/>
<path d="M211.457 77.2168H241.257V67.9045H229.097L228.894 67.5401L240.906 52.3838V46.1756H212.699L213.63 55.488H223.469L223.617 55.8524L211.457 71.0086V77.2168Z" fill="white"/>
<path d="M262.575 77.2168H250.158V47.7276L262.575 46.1755V77.2168ZM249.483 40.3182C249.483 39.3937 249.585 38.6109 249.794 37.9699C250 37.3322 250.361 36.8159 250.874 36.4178C251.393 36.023 252.105 35.7396 253.006 35.5675C253.903 35.3887 255.044 35.2976 256.42 35.2976C257.797 35.2976 258.924 35.3887 259.808 35.5675C260.689 35.7396 261.387 36.023 261.9 36.4178C262.419 36.8159 262.784 37.3322 262.993 37.9699C263.199 38.6109 263.303 39.3937 263.303 40.3182C263.303 41.2562 263.199 42.0322 262.993 42.653C262.784 43.2739 262.419 43.7833 261.9 44.1781C261.387 44.5762 260.689 44.8529 259.808 45.0149C258.924 45.1701 257.797 45.2443 256.42 45.2443C255.422 45.2443 254.497 45.2106 253.654 45.1363C252.807 45.0655 252.075 44.8664 251.454 44.5425C250.833 44.2118 250.347 43.7192 249.996 43.0714C249.652 42.4168 249.483 41.4991 249.483 40.3182Z" fill="white"/>
<path d="M273.027 87.4604V46.1756H279.236L281.516 49.2797C283.342 46.5906 286.719 45.2443 291.652 45.2443C294.135 45.2443 296.221 45.6964 297.914 46.5939C299.605 47.4847 300.978 48.6825 302.031 50.1839C303.083 51.6888 303.839 53.4365 304.298 55.4339C304.764 57.4314 305 59.5199 305 61.6962C305 63.8016 304.791 65.7855 304.379 67.648C303.964 69.5105 303.276 71.157 302.314 72.5876C301.349 74.0182 300.074 75.1485 298.481 75.9751C296.895 76.8051 294.932 77.2168 292.583 77.2168H285.444V86.5291L273.027 87.4604ZM285.444 56.6216V69.0921H287.36C288.879 69.0921 289.972 68.9402 290.64 68.6332C291.315 68.3194 291.652 67.594 291.652 66.4603V54.3003H289.736C288.845 54.3003 288.119 54.3374 287.563 54.4082C287.013 54.4723 286.53 54.6917 286.119 55.0695C285.704 55.4137 285.478 55.9299 285.444 56.6216Z" fill="white"/>
</svg>
