<svg xmlns="http://www.w3.org/2000/svg" xmlns:xlink="http://www.w3.org/1999/xlink" width="500" zoomAndPan="magnify" viewBox="0 0 375 374.999991" height="500" preserveAspectRatio="xMidYMid meet" version="1.0"><defs><g/><clipPath id="6e0ecf8dc5"><path d="M 227 153 L 249 153 L 249 174 L 227 174 Z M 227 153 " clip-rule="nonzero"/></clipPath><clipPath id="8efb7b8282"><path d="M 94.410156 182.378906 L 248.117188 151.640625 L 254.441406 183.265625 L 100.734375 214.003906 Z M 94.410156 182.378906 " clip-rule="nonzero"/></clipPath><clipPath id="d2e083c804"><path d="M 94.410156 182.378906 L 248.117188 151.640625 L 254.441406 183.265625 L 100.734375 214.003906 Z M 94.410156 182.378906 " clip-rule="nonzero"/></clipPath><clipPath id="36d91d2799"><path d="M 94.410156 182.378906 L 248.117188 151.640625 L 254.441406 183.265625 L 100.734375 214.003906 Z M 94.410156 182.378906 " clip-rule="nonzero"/></clipPath><clipPath id="4c4f8cbc91"><path d="M 100 153 L 247 153 L 247 213 L 100 213 Z M 100 153 " clip-rule="nonzero"/></clipPath><clipPath id="99e4102521"><path d="M 94.410156 182.378906 L 248.117188 151.640625 L 254.441406 183.265625 L 100.734375 214.003906 Z M 94.410156 182.378906 " clip-rule="nonzero"/></clipPath><clipPath id="e35cde7ca8"><path d="M 94.410156 182.378906 L 248.117188 151.640625 L 254.441406 183.265625 L 100.734375 214.003906 Z M 94.410156 182.378906 " clip-rule="nonzero"/></clipPath><clipPath id="8c771d561f"><path d="M 94.410156 182.378906 L 248.117188 151.640625 L 254.441406 183.265625 L 100.734375 214.003906 Z M 94.410156 182.378906 " clip-rule="nonzero"/></clipPath><clipPath id="733f7cb039"><path d="M 272 144 L 279 144 L 279 155.214844 L 272 155.214844 Z M 272 144 " clip-rule="nonzero"/></clipPath><clipPath id="fd9c875b9c"><path d="M 254.09375 133.464844 L 283 133.464844 L 283 154 L 254.09375 154 Z M 254.09375 133.464844 " clip-rule="nonzero"/></clipPath></defs><g clip-path="url(#6e0ecf8dc5)"><g clip-path="url(#8efb7b8282)"><g clip-path="url(#d2e083c804)"><g clip-path="url(#36d91d2799)"><path fill="#5fb3f9" d="M 238.722656 173.34375 C 238.40625 173.40625 238.066406 173.371094 237.757812 173.214844 C 237.019531 172.84375 236.714844 171.941406 237.085938 171.199219 L 244.207031 156.875 L 228.992188 161.132812 C 228.203125 161.367188 227.367188 160.890625 227.140625 160.089844 C 226.917969 159.289062 227.386719 158.457031 228.183594 158.234375 L 246.65625 153.066406 C 247.183594 152.917969 247.839844 153.101562 248.214844 153.558594 C 248.59375 154.015625 248.667969 154.65625 248.402344 155.1875 L 239.769531 172.542969 C 239.558594 172.976562 239.160156 173.257812 238.722656 173.34375 " fill-opacity="1" fill-rule="nonzero"/></g></g></g></g><g clip-path="url(#4c4f8cbc91)"><g clip-path="url(#99e4102521)"><g clip-path="url(#e35cde7ca8)"><g clip-path="url(#8c771d561f)"><path fill="#5fb3f9" d="M 188.980469 184.398438 C 186.539062 186.566406 184.75 188.789062 184.46875 190.605469 C 184.332031 191.472656 184.550781 192.199219 185.15625 192.886719 C 185.777344 193.59375 186.265625 193.875 186.714844 193.734375 C 187.941406 193.300781 189.304688 190.191406 189.386719 188.273438 C 189.449219 186.871094 189.3125 185.582031 188.980469 184.398438 Z M 187.210938 196.710938 C 186.179688 196.914062 184.578125 196.78125 182.90625 194.875 C 181.714844 193.527344 181.230469 191.886719 181.5 190.140625 C 181.972656 187.109375 184.730469 184.039062 187.660156 181.554688 C 186.914062 180.453125 185.921875 179.46875 184.679688 178.597656 C 174.152344 171.199219 148.878906 174.5 140.570312 177.929688 C 127.375 183.375 109.703125 195.511719 103.328125 211.800781 C 103.023438 212.574219 102.152344 212.953125 101.382812 212.652344 C 100.609375 212.347656 100.230469 211.472656 100.53125 210.699219 C 107.253906 193.53125 125.683594 180.816406 139.425781 175.144531 C 147.761719 171.710938 174.539062 167.796875 186.402344 176.132812 C 187.882812 177.175781 189.089844 178.363281 190.023438 179.691406 C 191.882812 178.320312 193.570312 177.269531 194.527344 176.699219 C 199.796875 173.554688 206.4375 171.890625 213.46875 170.121094 C 224.929688 167.238281 236.789062 164.257812 243.847656 154.585938 C 244.332031 153.917969 245.273438 153.769531 245.941406 154.257812 C 246.609375 154.75 246.757812 155.691406 246.269531 156.363281 C 238.570312 166.914062 225.625 170.167969 214.199219 173.039062 C 207.390625 174.75 200.957031 176.367188 196.058594 179.285156 C 194.507812 180.210938 192.933594 181.261719 191.460938 182.371094 C 192.171875 184.183594 192.480469 186.199219 192.386719 188.40625 C 192.292969 190.636719 190.777344 195.488281 187.714844 196.570312 C 187.566406 196.625 187.394531 196.671875 187.210938 196.710938 " fill-opacity="1" fill-rule="nonzero"/></g></g></g></g><path fill="#5fb3f9" d="M 269.863281 138.214844 L 260.921875 136.445312 L 258.949219 137.679688 L 265.429688 142.578125 C 266.90625 141.125 268.386719 139.671875 269.863281 138.214844 Z M 269.863281 138.214844 " fill-opacity="1" fill-rule="nonzero"/><g clip-path="url(#733f7cb039)"><path fill="#5fb3f9" d="M 272.175781 148.21875 L 277.660156 155.210938 L 278.917969 153.269531 L 277.023438 144.050781 C 275.375 145.402344 273.773438 146.808594 272.175781 148.21875 Z M 272.175781 148.21875 " fill-opacity="1" fill-rule="nonzero"/></g><g clip-path="url(#fd9c875b9c)"><path fill="#5fb3f9" d="M 281.902344 133.996094 C 280.785156 133.460938 276.53125 133.953125 275.128906 134.996094 C 273.050781 136.539062 260.378906 149.335938 260.378906 149.335938 L 255.597656 150.214844 L 254.117188 152.210938 C 254.117188 152.210938 256.558594 152.652344 259.027344 153.121094 C 260.175781 153.339844 262.128906 152.757812 262.128906 152.757812 C 267.875 151.46875 286.3125 136.101562 281.902344 133.996094 Z M 281.125 135.777344 C 281.039062 136.1875 280.765625 136.535156 280.460938 136.8125 C 280.300781 136.960938 280.125 137.089844 279.941406 137.210938 C 279.847656 137.273438 279.5 137.40625 279.460938 137.492188 C 280.835938 134.625 278.207031 134.347656 278.207031 134.347656 C 278.832031 134.207031 279.589844 134.027344 280.226562 134.214844 C 280.898438 134.414062 281.265625 135.117188 281.125 135.777344 Z M 281.125 135.777344 " fill-opacity="1" fill-rule="nonzero"/></g><g fill="#5fb3f9" fill-opacity="1"><g transform="translate(76.292776, 229.180826)"><g><path d="M 3.140625 -16.625 L 0.890625 -16.625 L 0.890625 -22.40625 L 3.140625 -22.40625 L 3.140625 -25.984375 L 12.09375 -28.234375 L 12.09375 -22.40625 L 15.203125 -22.40625 L 15.203125 -16.625 L 12.09375 -16.625 L 12.09375 -6.421875 C 12.46875 -6.347656 12.878906 -6.28125 13.328125 -6.21875 C 13.773438 -6.15625 14.25 -6.113281 14.75 -6.09375 L 14.34375 0.484375 C 10.257812 0.484375 7.59375 0.257812 6.34375 -0.1875 C 5.300781 -0.5625 4.503906 -1.039062 3.953125 -1.625 C 3.410156 -2.207031 3.140625 -3.070312 3.140625 -4.21875 Z M 3.140625 -16.625 "/></g></g></g><g fill="#5fb3f9" fill-opacity="1"><g transform="translate(95.676896, 229.180826)"><g><path d="M 2.234375 0 L 2.234375 -22.40625 L 6.71875 -22.40625 L 9.1875 -19.90625 C 10.976562 -21.550781 13.191406 -22.609375 15.828125 -23.078125 L 16.359375 -14.59375 C 16.003906 -14.59375 15.578125 -14.539062 15.078125 -14.4375 C 14.585938 -14.34375 14.085938 -14.222656 13.578125 -14.078125 C 13.066406 -13.929688 12.597656 -13.75 12.171875 -13.53125 C 11.753906 -13.320312 11.429688 -13.082031 11.203125 -12.8125 L 11.203125 0 Z M 2.234375 0 "/></g></g></g><g fill="#5fb3f9" fill-opacity="1"><g transform="translate(115.546532, 229.180826)"><g><path d="M 12.84375 -23.078125 C 20.007812 -23.078125 23.59375 -20.613281 23.59375 -15.6875 L 23.59375 0 L 19.125 0 L 16.578125 -2.546875 C 16.128906 -2.046875 15.597656 -1.59375 14.984375 -1.1875 C 14.378906 -0.789062 13.726562 -0.457031 13.03125 -0.1875 C 12.332031 0.0820312 11.625 0.289062 10.90625 0.4375 C 10.1875 0.59375 9.488281 0.671875 8.8125 0.671875 C 7.539062 0.671875 6.398438 0.539062 5.390625 0.28125 C 4.390625 0.0195312 3.539062 -0.394531 2.84375 -0.96875 C 2.144531 -1.539062 1.609375 -2.300781 1.234375 -3.25 C 0.859375 -4.195312 0.671875 -5.351562 0.671875 -6.71875 C 0.671875 -12.09375 4.726562 -14.78125 12.84375 -14.78125 L 14.640625 -14.78125 L 14.640625 -16.390625 C 14.160156 -16.421875 13.726562 -16.445312 13.34375 -16.46875 C 12.957031 -16.488281 12.601562 -16.5 12.28125 -16.5 C 8.925781 -16.5 6.023438 -16.09375 3.578125 -15.28125 L 2.5 -21.703125 C 5.488281 -22.617188 8.9375 -23.078125 12.84375 -23.078125 Z M 9.703125 -7.6875 L 9.703125 -5.859375 L 11.578125 -5.859375 C 12.867188 -5.859375 13.710938 -6.007812 14.109375 -6.3125 C 14.460938 -6.632812 14.640625 -7.019531 14.640625 -7.46875 L 14.640625 -9.59375 L 12.8125 -9.59375 C 11.738281 -9.59375 10.953125 -9.476562 10.453125 -9.25 C 9.953125 -9.03125 9.703125 -8.507812 9.703125 -7.6875 Z M 9.703125 -7.6875 "/></g></g></g><g fill="#5fb3f9" fill-opacity="1"><g transform="translate(144.006112, 229.180826)"><g><path d="M 17.703125 0 L 23.296875 -22.40625 L 14.34375 -22.40625 L 11.875 -7.84375 L 11.421875 -7.84375 L 8.96875 -22.40625 L 0 -22.40625 L 5.59375 0 Z M 17.703125 0 "/></g></g></g><g fill="#5fb3f9" fill-opacity="1"><g transform="translate(170.374231, 229.180826)"><g><path d="M 10.984375 -7.625 L 10.984375 -6.046875 C 11.429688 -5.992188 11.878906 -5.957031 12.328125 -5.9375 C 12.773438 -5.914062 13.222656 -5.90625 13.671875 -5.90625 C 16.453125 -5.90625 19.265625 -6.351562 22.109375 -7.25 L 23.15625 -0.671875 C 19.789062 0.222656 16.476562 0.671875 13.21875 0.671875 C 9.039062 0.671875 6.015625 -0.300781 4.140625 -2.25 C 2.273438 -4.207031 1.34375 -7.191406 1.34375 -11.203125 C 1.34375 -15.210938 2.28125 -18.191406 4.15625 -20.140625 C 6.039062 -22.097656 9.0625 -23.078125 13.21875 -23.078125 C 15.3125 -23.078125 17.050781 -22.945312 18.4375 -22.6875 C 19.832031 -22.425781 20.957031 -21.988281 21.8125 -21.375 C 22.675781 -20.769531 23.289062 -19.945312 23.65625 -18.90625 C 24.019531 -17.875 24.203125 -16.578125 24.203125 -15.015625 C 24.203125 -13.710938 23.984375 -12.59375 23.546875 -11.65625 C 23.109375 -10.726562 22.378906 -9.96875 21.359375 -9.375 C 20.335938 -8.78125 18.976562 -8.335938 17.28125 -8.046875 C 15.59375 -7.765625 13.492188 -7.625 10.984375 -7.625 Z M 10.984375 -14.640625 L 10.984375 -12.8125 L 12.8125 -12.8125 C 13.90625 -12.8125 14.691406 -12.921875 15.171875 -13.140625 C 15.660156 -13.367188 15.90625 -13.894531 15.90625 -14.71875 L 15.90625 -16.546875 L 14.078125 -16.546875 C 12.984375 -16.546875 12.191406 -16.429688 11.703125 -16.203125 C 11.222656 -15.984375 10.984375 -15.460938 10.984375 -14.640625 Z M 10.984375 -14.640625 "/></g></g></g><g fill="#5fb3f9" fill-opacity="1"><g transform="translate(198.759119, 229.180826)"><g><path d="M 2.234375 -29.125 L 11.203125 -29.796875 L 11.203125 -6.421875 C 11.671875 -6.328125 12.09375 -6.253906 12.46875 -6.203125 C 12.84375 -6.148438 13.15625 -6.113281 13.40625 -6.09375 L 13 0.484375 C 9.1875 0.484375 6.660156 0.257812 5.421875 -0.1875 C 4.367188 -0.5625 3.570312 -1.046875 3.03125 -1.640625 C 2.5 -2.242188 2.234375 -3.101562 2.234375 -4.21875 Z M 2.234375 -29.125 "/></g></g></g><g fill="#5fb3f9" fill-opacity="1"><g transform="translate(215.678292, 229.180826)"><g><path d="M 5 -6.640625 C 6 -6.640625 6.828125 -6.316406 7.484375 -5.671875 C 8.148438 -5.023438 8.484375 -4.179688 8.484375 -3.140625 C 8.484375 -2.085938 8.148438 -1.238281 7.484375 -0.59375 C 6.828125 0.0507812 6 0.375 5 0.375 C 4.007812 0.375 3.175781 0.0390625 2.5 -0.625 C 1.832031 -1.300781 1.5 -2.140625 1.5 -3.140625 C 1.5 -4.179688 1.832031 -5.023438 2.5 -5.671875 C 3.175781 -6.316406 4.007812 -6.640625 5 -6.640625 Z M 5 -6.640625 "/></g></g></g><g fill="#5fb3f9" fill-opacity="1"><g transform="translate(228.713306, 229.180826)"><g><path d="M 1.125 0 L 22.625 0 L 22.625 -6.71875 L 13.859375 -6.71875 L 13.703125 -6.984375 L 22.375 -17.921875 L 22.375 -22.40625 L 2.015625 -22.40625 L 2.6875 -15.6875 L 9.78125 -15.6875 L 9.890625 -15.421875 L 1.125 -4.484375 Z M 1.125 0 "/></g></g></g><g fill="#5fb3f9" fill-opacity="1"><g transform="translate(255.529604, 229.180826)"><g><path d="M 11.203125 0 L 2.234375 0 L 2.234375 -21.28125 L 11.203125 -22.40625 Z M 1.75 -26.625 C 1.75 -27.300781 1.820312 -27.867188 1.96875 -28.328125 C 2.125 -28.785156 2.390625 -29.15625 2.765625 -29.4375 C 3.140625 -29.726562 3.648438 -29.9375 4.296875 -30.0625 C 4.941406 -30.1875 5.765625 -30.25 6.765625 -30.25 C 7.753906 -30.25 8.566406 -30.1875 9.203125 -30.0625 C 9.835938 -29.9375 10.34375 -29.726562 10.71875 -29.4375 C 11.09375 -29.15625 11.351562 -28.785156 11.5 -28.328125 C 11.644531 -27.867188 11.71875 -27.300781 11.71875 -26.625 C 11.71875 -25.957031 11.644531 -25.394531 11.5 -24.9375 C 11.351562 -24.488281 11.09375 -24.125 10.71875 -23.84375 C 10.34375 -23.5625 9.835938 -23.363281 9.203125 -23.25 C 8.566406 -23.132812 7.753906 -23.078125 6.765625 -23.078125 C 6.035156 -23.078125 5.363281 -23.101562 4.75 -23.15625 C 4.144531 -23.207031 3.617188 -23.347656 3.171875 -23.578125 C 2.722656 -23.816406 2.375 -24.171875 2.125 -24.640625 C 1.875 -25.117188 1.75 -25.78125 1.75 -26.625 Z M 1.75 -26.625 "/></g></g></g><g fill="#5fb3f9" fill-opacity="1"><g transform="translate(272.037957, 229.180826)"><g><path d="M 2.234375 7.390625 L 2.234375 -22.40625 L 6.71875 -22.40625 L 8.359375 -20.171875 C 9.679688 -22.109375 12.125 -23.078125 15.6875 -23.078125 C 17.476562 -23.078125 18.984375 -22.753906 20.203125 -22.109375 C 21.421875 -21.460938 22.410156 -20.597656 23.171875 -19.515625 C 23.929688 -18.429688 24.476562 -17.164062 24.8125 -15.71875 C 25.144531 -14.28125 25.3125 -12.773438 25.3125 -11.203125 C 25.3125 -9.679688 25.160156 -8.25 24.859375 -6.90625 C 24.566406 -5.5625 24.070312 -4.375 23.375 -3.34375 C 22.675781 -2.3125 21.753906 -1.492188 20.609375 -0.890625 C 19.460938 -0.296875 18.046875 0 16.359375 0 L 11.203125 0 L 11.203125 6.71875 Z M 11.203125 -14.859375 L 11.203125 -5.859375 L 12.578125 -5.859375 C 13.679688 -5.859375 14.472656 -5.96875 14.953125 -6.1875 C 15.441406 -6.414062 15.6875 -6.941406 15.6875 -7.765625 L 15.6875 -16.546875 L 14.296875 -16.546875 C 13.648438 -16.546875 13.128906 -16.519531 12.734375 -16.46875 C 12.335938 -16.414062 11.988281 -16.253906 11.6875 -15.984375 C 11.382812 -15.734375 11.222656 -15.359375 11.203125 -14.859375 Z M 11.203125 -14.859375 "/></g></g></g></svg>