<?xml version="1.0"?>
<!--
************* Copyright (c) 2017 Pareto Softare, LLC DBA Simplemaps.com *******************		
************* Free for Commercial Use, full terms at  http://simplemaps.com/resources/svg-license ************
************* Attribution is appreciated! http://simplemaps.com ***************************
-->
<svg baseprofile="tiny" fill="#7c7c7c" height="1064" stroke="#ffffff" stroke-linecap="round" stroke-linejoin="round" stroke-width="2" version="1.2" viewbox="0 0 1000 1064" width="1000" xmlns="http://www.w3.org/2000/svg">
 <path d="M372.9 1006.4l-1.3 0.9-1.7-0.5-0.6-0.7 0-1.6 1.1-3.1 0.5-0.5 1.3 1.1-0.1 0.5 0.6 1.5 0.2 2.4z m255-217.6l-1.3 0.6-0.9-0.2 0.2-1 1-0.5 1.5-1.8 0.2 0.9 0.7 0.2 0 0.8-1.4 1z m-31.8-1.6l0.9 0.7-0.7 0.9-1.8-1-2.4 0.4-1.1-1.7 0.9-1.3-0.9-0.4-0.8-1.1 0.6-0.5 1.8 1.7 2.4 2.1 1.1 0.2z m-24.2-7.3l1.1 1.2 0.9-0.7 0.9 0.4 0.5-0.6 1.5 0.2 0.6 0.4-0.6 1.2-1.4 0.2-3.2-0.7-0.3-1.6z m-3.9-1.1l-0.5-0.5-3.1-1-1-1.6 1.1-1.6 3.3 0.7 1.1 2.2 0 0.9-0.9 0.9z m49.9-9.3l-0.3 0.5-2.9 0-1-0.3-2.5-1.4 0.5-0.6 2.6-0.8 1.1 0.6 2.5 2z m-33.1-2.5l0.2 0.8-1.9-0.6-0.7-1.7 0.2-0.9 0.7-0.4 1.6 0.9 0.7 1-0.8 0.9z m33.7-3.4l3.2 1.5 1.9-0.3 1.5 0.7 0 1.1-0.9 0.4-1.4-0.2-1.4-0.9-3.4-0.6-0.7-1 1.2-0.7z m-4.8-8.4l1.1 3.9 0.7 1.1 1.2 0.4 0.6 1.8-0.9 1.7-1.8 1-2.7-0.4-0.9-1 0.4-0.9-0.2-1-1.2-2.2-0.1-2.9 1.3 1.5 0.5-1.5-0.4-0.6 0-1.2 1-1.2 0.7 0.2 0.1 1.2 0.6 0.1z m-55.3-2.9l-0.4 0-1.2-2.6 2.2 0.4 0.5 0.7-0.2 1.3-0.9 0.2z m9.6-1.9l-1.7 1.5-2.7-4.1 0.7-1.4 1.7-0.6 6.7 1.6-0.1 1-2.1 0.4-2.5 1.6z m51.5-17.4l-0.6 0.3-0.8-4.3 0.6-1.9-0.6-1.6 3.1-1.9 0.2 2.1-1.4 2.4 0.7 0.8 0 2.2-0.2 1.1-1 0.8z m19.6-10.9l-2.2 1.7-0.4-0.9-0.8-0.8-0.8 0.3-0.8 0.8-0.5-0.6 0.1-1.2 1.4-0.7 0.2-0.9-0.6-0.9 1.3-0.6 0.9-0.8 0-1.3 1.6-0.7 0.6-1 0.8-0.1 0.1 2.1-0.5 1.8 0 1.7-0.4 2.1z m-13.5-15.9l0.1 1.9-1.9-1.8-1.1-1.3 1.9-0.2 1 1.4z m-304.3-140.8l-1.9 1.5-0.6-0.8 0.3-2 1.7-1.4 1.1 1.7-0.6 1z m-26.4-7.3l1.1 1 1.2 0.6-1 0.7-2.3 0.2-0.9-1-0.5 1.3-0.6 0.6-0.7-1 0-1.5-0.7-1.4-0.1-1.1 2 0.4 0.9 1 1.6 0.2z m-14.3-4.7l-1.6 0.7-1.2-0.1 0.4-1.5 2.1-0.3 0.3 1.2z m-61.6-53.7l-0.4 0.9-0.8 0.2 0.3 1.2-0.9 0.6-1.1-0.8-0.5-1.4 1.4-1.4 2 0.7z m16.4-20.1l-2.9 1.2-1.9-0.4 0.9-1.3 1.2-1.3 2.1 0.3 0.6 1.5z m42.5-21.1l-0.9 1.2-1.5-0.9-1.5 0.6-0.1-0.5 0.7-2.1 1.1-1.1 0.6-1.9 0.7 0.4 0.5 2.3 1.1 1.2-0.7 0.8z m10.8-9.5l0.8 2.2 0.7 0.9 2.7 0.6 0 0.7-1.3 0.6-9.9-2.7-0.7-1.2 0.5-1.1 1 0 2.1 1 0.8-0.4 0.2-1.1 1.7-0.5 0.8 0.1 0.6 0.9z m-55.3-58.5l-0.5 1-0.8 0.4-0.7-0.5-2.4 1.2-1.1-1 0.8-0.5 3.5-1.5 0.9-1.8 0.7 0.9-0.4 1.8z m-13.1-69.2l0.9 0.4 0.5 0.9-2.6 0.2-1.2-1.5-0.9-2.7 1.3 0 0.9 1.4-0.3 0.8 1.4 0.5z m70.6-3.5l-2.6 0.7-0.7-0.6-1-2.6 0.4-1 3.8 1 0.5 1.6-0.4 0.9z m-76.1-8.8l0 1.4-1.9-0.2 0 1.3-0.2 1.3-1 0.2 0-0.9-0.8-0.6 0.1-1.3 0.7-0.5 0.1-1.3 0.8-0.2 2.2 0.8z m19-3.5l-1.5 4.7-1.3 0-0.6-0.8 1.5-1.3-1.2-0.6-0.9 0.1 1-1.5 3-0.6z m48.1-1.7l0.6 3.5-1-1-0.8-0.3 0-2.1 1.2-0.1z m-20.6-13.4l1.5 1.2 0.4 1.7 0.8 0.8 0.8 1.4-1.5-0.6-0.8-1.4-1.2 0-1.4-0.5-0.8-1.6 1.4 0 0.8-1z m-25-0.7l1 1.3 0.4 0.9 0 2-2.3-0.1-0.8-1.2-0.4-1.8 0.3-1 1.8-0.1z m85.8-8.6l0.7 3.5-2.6-1.1-0.7-1.7 1.1-1.4 1.5 0.7z m-56.2-7.8l5.9 2 2-0.4 0.4 1.1-1.1 1.7-1.8 0.3-1.5-0.5-1.4-0.8-1.1 0-2.3-1.7 0.2-1.4 0.7-0.3z m23.5-20.6l-1.8 1-2-0.1-1.2-4.1-0.8-0.8-0.1-1.3 0.7-1.7 0.9-0.2 1.3 1 1.9 2.5 1.5 1.5-0.4 2.2z m5.1-28.2l-0.5 0.5-4.7-1.3-0.6-1 1.4-1.5 1.3-0.7 0.5-0.7 1.1-0.6 1.4 0.3 0.7 1-0.2 3.2-0.4 0.8z m-20.7-2.8l-1 0.4-0.5-0.7-1.1-2.9-1.5-2 1-0.6 2.6 1.4 2.2 2.4 4.7 0.2 0.7 0.9-2 0.8-5.1 0.1z m-98.8-15.2l-1.2 0.4 0.5-1.9 1.5-0.6 0.3 1-1.1 1.1z m86.6-4.9l-0.8 0.3-2.6-1.9-1.9-2.4 0-0.6 4.1-0.4 0.3 0.8-0.2 2.9 1.1 1.3z m-9.4-9.3l0.8 2.6-0.4 1.3-1.3-0.2-2.5-2.3-2.3-0.2-1.1-1.1 5.8-2 1 1.9z m-9.4-2.5l-0.5 1.5-0.6-0.4-1.5-0.2-0.3-1.3 1.1-0.5 1.8 0.9z m14.7-5.9l-0.4 0.4-2.2-1.2 1-0.5 1.9 0.1 1 1.1-1.3 0.1z" id="KOR99" name="">
 </path>
 <path d="M639.7 322.2l-1.9 2.2-2.1 1.3-1.9-0.7-1.5 0.9-3.7 3.9-4 3.4-2.7 2.5-3.2 1.1-2 1.6-1.4 2.5-4.9 3.5-3.4 5-1.7 3.7-2 3.7 1.1 2 2.1 1.9-2.3 7.8-13.3 5.5-5.6-1.8-2.4-4.8-3.7-3.2-2.7-1.9-2-2.3-2.1 2-1.6 2.6-0.8 3.1-1.1 3.3-4.6-0.4-4.9-1.7-2.5-1.7-2.7 1.8-2.6 3.5-3.2 0.2-2.5-1.6-1.9 3.2-2 4.3-1.1 4.1 3.1 3.9 2.3 4.4-11.3-1.7-6-2.7-3.4 5.2-5.6 2.6-4.9 3.3-0.4 2.4 0.1 1.8-0.9 2-3.5 4.8-2.3 2.5-2.3 0.4-2.4 1.1 1.8 4.5 6.2 1.1 7.7 11.3-2.8 2.8-1.6 4.5-0.6 10.7-1 4.7 1 3.4 1.8 3.1-2.3 4.5-3.5 3.1 0.9 9.3 6.4-1.5 3.8 1.3 4.5 3.7 3.1 1.5 8.1-2 3.5 2.7 1.8 10.2-3.3-0.2-3.8-0.7-3.9 3.3 0.9 5.3 0.1 2.6-0.4 3.3-1.5 1.8-1.2 2.2-1.4 5-2.4 4.8-4 1.4-3.8 1.8-2 2.2-2.1 1.8-2.3-1.2-2.3-2.2-5.8 2.6-5.1 3.1-2.6-0.7-1.4-1.8-7.1-2.4-2.4-2.8-2.7-1.6-1 1.4-1.3 0.3-1.5-1.4-1.3-1.6-3.6-5.6-3.3-5.7-1.3-6.8 0.2-6.7-1.6-5.9-4.9-3-4.7-1.5-5.1 1.1-0.4-5.6 0.3-5.4 1.9-7.6 3.5-6.5 1.5-3.3 1.6-2.9 2.6-2 0.6-3.4-2-0.7-2.2-1-2.7 2-2.1 2.8-1.6-5.2-0.3-3.5-1.9-1.1 0.2-2.2-2.2-0.5-1.8 2.6-5.1 1.2-4.8-1.4 0.6-3.4-0.9-2.2-1.4-0.7-1.1-1.2-0.6-1.5 0.4-1.5 0.7-1.9 0.3-2.1-0.3-2-0.5-1.2 0.3-1.5 0.8-1.9 0.1-2.1-12-0.8-11.7 2.4 0.7-6.1 2-5.7-0.3-3.3 3.1-6.7 4.4-6.4 3.3-5.8 1.4-1.4 1.5 0.2 1.4-0.4 0.8-1.5 0.3-1.7 0.4-2.2 0.8-2 0.4-2.3-0.3-2.2-1.1-2-1.3-1.2 0.2-4.1-2.1-1.4-2.7-5.5-2.1-1.3-1.9-1.9-1.3-3 7.1-2 6.8-3.3 5.2-1.8 1.5-5.8 2.5-2.8 4.1-1.7 1.9-2.5 1.3-3.3 2.5-2.6 3.1 0.6 0.9 1.2 3.9-2.8 7.6-14.1 1.7-3.2 2.5-1.9 1.3-1.9 1.1-2.1 16.7-4.6 16.8-2.3-1.4 9.6 4.9-1.2 4.8 0.4 2.7 1.5 1.2-1.1 1.1-1.3 3.2-2.2-0.9-9.7 3-3.7 8.1-2.7 6 6.4 0 4.3 2 2.7 5.2-1.2 5.2-3 3.2-2.4 3.8 0.8 3.1-1.7 3.7-2.8 8.8 3.1 9 1.5 2.9 0.8-1.8 4.2-4.6 3.3-2.7 4.2 1.7 1.9 2.2 1.3 1.5 0 1.4-0.7 4.8-1.6 7.5-0.8 1.6 1.7-0.3 2.8 3.2 3.3 1.1 2.6 2.9-0.2 3.4-0.6 3.8-1.2 3.8-0.1 3.7 2.9 4.2 2.7 4.1 0.8 4.1 0.5 3.2 1.4 3.1 2z" id="KOR2494" name="North Chungcheong">
 </path>
 <path d="M311.6 226.7l1 2.4-0.8 0.4-1.4 1-0.5 0.7-2.8 0.6-1.2-0.2-5.4 2.4-2 1.8-1.1 2-6.9 5.2-1.5-0.3-2.1 0-0.7-2.5-1.2-0.8-0.6 0.7-0.8-1.9-1-0.2-1.6 1.7-1.2-0.6-1.7-0.4 1-1-0.3-1.1-1.7-1.6-0.5-1.1 0.6-1.5 1-0.2 1.3 0.6 7.2-5 5.1-0.6 3.5 0.1 3.2-1.7 1.1-4.5 2.2-0.8 1.9 1.9 2.7 1.2 1.8 0.2 1.3 0.7 1.2 1.6 0.9 0.8z m22.7 25l-0.4-1.4-8.3-1-3.9 4.9-4-3 1.6-3.7 2.1-3.1-1.3-2.3-5.4-2.9 0.3-3.6-0.5-2.9 1.6-2.7 4.5-1.3 1.4-0.7 0.3-1.7-2.1-0.6-0.6 1.8-3.3 0.3-0.8-2-0.4-3.6 0.8-4.9 15.3-0.5 9.4 9-0.1 4.7 1.7 3.9 2.6 1.7 1.5 2.4-1.5 5-2.2 4.3-3.3 2.4-5 1.5z" id="KOR2495" name="Incheon">
 </path>
 <path d="M762 402.5l-1.6-0.1-5.3-1.2-5.1 2.3-10.9-4.1 1.7-4.7-0.5-4.4-1.4-4.9-0.4-5.5 2.1-5.3 1.7-4.9-1.2-1.5-1.4-1.3 0.7-4.5-11.6-0.9-3.4-1.9-3.7-1.6-1.5-3.6-1.1-4.2-5.2-2.5-3.3-4.9-0.7-6.5 1.1-4.9 2.7-2 3-1.1 4.6 1.8 3.8-2.8-1.6-4.6-4.9-3-5.4-1.2-4.3 2.2-4.2 1.1-5.8-2.7-6.2-1-2.1 0.8-1.7-0.2-1.4-1.8-1.9-0.8-4.5 3.5-4.7 1.9-0.4-3.5 0.4-3.4-2.8-1.4-3-0.7-2.2-3.9-4.4-0.4-4.3 2.1-2.8 3.5 1 4.9-0.5 4.5-0.9 4.2-4.1-0.3-4.7-1.1-3.9-1.6-4.1-2.2-3.1-2-3.2-1.4-4.1-0.5-4.1-0.8-4.2-2.7-3.7-2.9-3.8 0.1-3.8 1.2-3.4 0.6-2.9 0.2-1.1-2.6-3.2-3.3 0.3-2.8-1.6-1.7-7.5 0.8-4.8 1.6-1.4 0.7-1.5 0-2.2-1.3-1.7-1.9 2.7-4.2 4.6-3.3 1.8-4.2-2.9-0.8-9-1.5-8.8-3.1-3.7 2.8-3.1 1.7-3.8-0.8-3.2 2.4-5.2 3-5.2 1.2-2-2.7 0-4.3-6-6.4-8.1 2.7-3 3.7 0.9 9.7-3.2 2.2-1.1 1.3-1.2 1.1-2.7-1.5-4.8-0.4-4.9 1.2 1.4-9.6-16.8 2.3-16.7 4.6 8.5-15.9 7.1-17.4 9.7-20.8 1.2-4.5-0.9-4.5 2.1-3.6 2.9-3.6 3.2-1.3 1.6-3.5-1.8-3.1-2.3-2-3.8-0.4-3.9-1.5-5.3-0.7-8.9-4.9-4-1.7-4-2.6-4.3-0.7-4.3 1.4-3.5-3 0.3-3.3 1.7-3.4 0.6-3.9 0.1-4.1-4.2 1.4-1.9-2.4 4.6-5.5-0.8-3.6-1.2-3.6 0.9-2.7-0.1-3.3-0.3-3.1 8.1-5.9 3.2-1.1 1.8-2.8 0.8-8.1-3.7-5.8-3.1-0.6-2.9-1.3-2.2-6-3.5-0.1-3.8 0.2-4-3-2-5.3-0.8-9.5-1.5-4.7-1.1-1-1.2 0.3-0.9 0.8-1 0.1-2.7-1.9-6.6 2.3-6.1-1.4-2.4-1.5-2.5-2.3-0.1-3.8 1.2-3.6 1.6-2.6-1.1-0.9-1.3-0.3-1.3 0.2-1.1 0.9-2.1 2.7-2.4 2.4-3.6 0.6-3.1-2.1-0.6-2-0.3-2-1.1-0.7-1.2 1.3-0.4 2-0.1 6.6-2 3.3-5.8-2.8-5.3-4.8-1.9-2-2 0.3-1.7-2.6-1.1-3.3-1.5-1.7-1.7-1.4-1.3-3.2-7.9-5-3.2-1.6 1-1.1 8.6-7.2 10.1-6.3 10.6-4.4 10.2-1.1 5.1 0.6 19.5-1.7 15 4.5 4.8-0.4 9.3-2.8 30.5-2.7 1.3 0.9 2 2.9 1.9 2 2.2 0.5 10.5-2.2 16.6 1 10.8-0.9 10.8-3.8 10.1-6.6 8.4-8.8 3.7-5.3 3.1-5.6 2-6.3 0.7-7.1-1.3-7-0.4-3.5 1-2.6 4.3-3.4 9-4.7 12.1 24 1.5 6.4 3.7 9.7 14 27.7 10.9 29.1 1.8 3.1 5.6 7.1 2.2 5.9 26.4 37.8 10.2 14.9 12.3 13.6 1.7 1.4 8.2 9.7 0.5 4.1 0 4.9 1 4.2 5.6 3.1 1.6 3.4 4.6 15.1 2.1 3.4 2.5 1.5 2 2.2 7.2 14.2 4.4 5.4 1.5 3 0.5 3.2 1.1 3.1 7.7 8.4 2.4 6.9 2.2 15.1 2.9 8.2 8.2 11.4 0.6 2.3-1 2.3-1.4 2.2-1 2.2 0 1.9 1.1 6.2 1.4 17.7 1.5 8.2 5.2 16.6 0.5 8.2-1.7 7.5-3.5 6.9-2.9 8.1z" id="KOR2496" name="Gangwon">
 </path>
 <path d="M398.4 211.4l-1.5 5.7 4.4-0.1 3.7-1.3 3.2-0.1 1.2 2.9-0.4 3-2.2 1.1-2.4 1.6 0 3.6 1.3 1.5-2.7 3.7-1.5 2.6-4.1 2.4-4.5 1.1-4.7 2.3-1.8-4.1-3.9 0.9-4 1.2-2.7 1.6-2.9 0.5-6.8-0.3-4.7-6.1-4.6-1.4-3.1-2-0.8-5.8-3.2-4.4-3.7-4.6 2.3-5.1 4.5 0.2 5 3.1 3.8-1.2 3.4-2.1 0.2-3.4 0.9-3.2 7.1-0.7 3.7-4.6 2.2-4.8 3.2-3.3 4.9-1.2 5.7 0.4 2.7 4.7 1.1 6.4 1.6 4.4 0.1 4.9z" id="KOR2497" name="Seoul">
 </path>
 <path d="M245.6 280.6l-0.7 1.2-2 2.1-1.4 0.6-1.9 0.3-1.6-0.7-1.4-2.9-1.5 0.8-0.7-0.2 0.5-4 0.9-2.7 1.1-1.6 1.3 0.9 1.1 1.9 1.2 0.9 3.9 2.1 1.2 1.3z m50.4-1.9l-1.3 1.6-1.8 0.4-1.2-0.9-1.3 0.1-1.1-0.6-0.3-2.5 0.3-2.6 1.3-1.8 2.8-1.5 3.6 0.3 1.6 1.1 0.6 2.4-0.7 0.9-1.7 0.5-0.6 1.3-0.2 1.3z m15.2-7.5l0.6 1.6 1.9 1.1 3 1.2 0.8 0.9 0.8 2.6-0.8 1.8-8.1 6.5-3.7 0.4 0.1-1 1.7-2.3 0.2-1.4-0.7-1.1 2-2.4 0.1-2.4-0.8-2.9-1.2-2-1.2-1.4 0.4-0.4 2.6 1.3 2.2-2 0.5 0.2-0.4 1.7z m-139.3-74.8l-0.9 0.4-1.4-3.5 0.2-1.8 1.2-0.2 1.8 0.3 1.1 1.1-0.5 2.2-1.5 1.5z m107-0.9l-3.2 0.2-10.7-8.4 1.4-1.2 0.6-1.6 0.9-3.8 1.3-2 0.9-0.7 0.9-0.3 0.6 0.4 0.6 1.4 0.5 3.7 1 2 1 1.1 4.1 3.4 1.5 1.8 0.3 1.9-1.7 2.1z m-253.9-24l0.8 0.7-0.3 1-1.1 0.3-1.5-0.4-1.1 0.5-1 1.2-1.4 0.7 0.7-2.1 1.1-0.8 0.3-1.1 2.1 0.1 1.4-0.1z m239.1-6.6l3 1.8 3.1-0.1 2.9 0.5 1.5 1.6-1.1 3.6-2.8 2.4-3.4 0.3-6.6-1.5-3.3 1.6-1.5 0-0.6-2.2 0.3-0.7 1.8-5.5 2-1.9 2.2-0.6 2.5 0.7z m40 37.3l-1.8 4.2-1.6 1.4-1.2 0.2-0.9-0.5-1.7-1.8-1.2-0.7-0.8 0.3-1.3 1-8.3 0.5-3.1-1.5-3.3-4.3 4.9-1.3 1.2-0.8 1.3-2.1-0.2-0.9-0.9-0.6-0.8-1.1-5.6-10.8-0.4-1.7 0.6-2.1-0.1-9.5 0.6-2.2 1.6-0.5 3.7-4.4 2.9-0.7 2.5 1.8 2.4 2.8 2.4 2.2 5.1 2.6 2 2 0.8 3.2-0.2 1.7-0.8 2.7-0.2 1.2 0.4 1.3 1.4 2.7 0.4 1.5 0.5 7.2-0.5 1.7 0.8 1.1 1.4 3-2 1.2z m-287.2-37l-1.2 0.7-1.2-0.1-1 0.4-0.8 0.8-1-1.6-1.2-1.7 0.5-1.5 2.6-2.2 2.5-2.4 1.2 0.2 1.2 0.6 0.3 1.3-0.8 1.8-0.4 2-0.7 1.7z m2.9-34.2l1.8 2.1-0.3 3-2.2 1.6-3-1.9-4.1 0.4-0.8 0.4 0.1 2.1 1.5 0.7 1.8 0.4 0.9 0.7-3.2 2.6-6.5-0.9-4.8-4.1 1.6-7.1 4.1 1.4 8.7-3.1 4.4 1.7z m454.9 169.6l-1.1 2.1-1.3 1.9-2.5 1.9-1.7 3.2-7.6 14.1-3.9 2.8-0.9-1.2-3.1-0.6-2.5 2.6-1.3 3.3-1.9 2.5-4.1 1.7-2.5 2.8-1.5 5.8-5.2 1.8-6.8 3.3-7.1 2-7.4-1-6.1-5.1-6.9-3.1-13.1 5.6-6.2 0-7.5-1.5 2.1-1.6 2.4-1.1 1.7-1.9 1-4.8-0.3-0.9-1.7-2 0.8-0.8 1.7 0 2.2-1.3 1.4-0.2 1-0.7 0.5-2.3-9.5 2.7-1.4 2 0.5 6.1-1.2 1.4-3.7 1.2-5.2-0.7-6.2-3.6-5.6-5.6-2.2-5.3 9.5-1 0-1.2-2.1-1.5 1.7-0.2 1.7 0.1 1.6 0.5 1.3 1.1-0.6-3.8-2.2-3.4-1.6-3.8 1.2-5.3-1.8-0.8-1.4 1.8-0.8 3.2-0.3 3.2-0.8 3.5-1.5 0.8-1.5-1.5-3 0.6-3 0.8-7.3-2.2 0-2.3-0.7-1.9 0.6-2.7-0.3-3.4 1.8-3.4 2.2-3 2.5-1.2 2.7-1 4-0.1 4.3-1.2 0.9-1.3 0.3-3.7-1-0.7-2.2 1.2-3.3 2.9-2.1-0.5-1.5-0.9-0.8-1.5 0-2.4-3.7 1.9-3.1 2.2-5.6 6.1-1.5 1.2-1.8 0.6-1.7 0-1-1.1 0-1.8 1-1.8 2.3-3.3-4.6 1.1-1.4-0.5-0.6-2.7 0.9-2 1.9-1.1 2.2-0.8 1.6-0.9 1.9-2.6-0.5-0.7-4.2 0.6-1.4-0.9-1.1-2.1-1.1-2.7-1.2-2.5 0.7-0.2 1.4-1.2 1.2 0.9 1.7-0.1 3.1-0.8 2.5 0.7 2.1 1.3 2.1 0.6 2.4-1.2-0.2 2.3 0.2 2.1 0.8 1.7 1.5 0.7 1.7-0.6 0.7-1.9 0.8-4.3 2.7-4 2.2 0.4 2.5 1.5 3.5-0.6-0.8-1.6-1-1.2-1.2-0.8-1.5-0.4-2.2 0-1-1.5-2.3-0.4-1.9 0.6-1.9-0.1-3-0.6-5-1.6-6.9-5.2-0.3-2.3 3-4.5 2.1-2.1 5-1.5 3.3-2.4 2.2-4.3 1.5-5-1.5-2.4-2.6-1.7-1.7-3.9 0.1-4.7-9.4-9-15.3 0.5-2-4.7-3-5.1-1.8-1.8-0.1-2.7-0.6-4-1.7-6.3-2.3-16.5 0.6-2.7 2.1-0.4 8.7 3.2 2.8-0.6 2.3-1.1 2.1-0.4 2.1 1.4 0.8 2.4 0.3 3.6-0.2 3.8-0.9 2.6-0.1 4.7 4.9 4.1 6.2 2.6 3.8 0.2-3-3.1-9.1-6.6 2.6-7.1 0.8-4.2-0.6-3-1.5-3.1-0.3-4.1 0.7-4 1.6-3.2-1.2-1.5-1.5 0.2-2.4 1.7-1.1-17.3 0.8-4.7 1.9-1.4 3-0.4 4-1.5 6.3-5.1 13.6-20.7 2.7-2.8 6.1-4.7 2.6-3.1 5.4-13.3 1.9-2.5 3.2 1.6 7.9 5 1.3 3.2 1.7 1.4 1.5 1.7 1.1 3.3 1.7 2.6 2-0.3 1.9 2 5.3 4.8 5.8 2.8 2-3.3 0.1-6.6 0.4-2 1.2-1.3 1.1 0.7 0.3 2 0.6 2 3.1 2.1 3.6-0.6 2.4-2.4 2.1-2.7 1.1-0.9 1.3-0.2 1.3 0.3 1.1 0.9-1.6 2.6-1.2 3.6 0.1 3.8 2.5 2.3 2.4 1.5 6.1 1.4 6.6-2.3 2.7 1.9 1-0.1 0.9-0.8 1.2-0.3 1.1 1 1.5 4.7 0.8 9.5 2 5.3 4 3 3.8-0.2 3.5 0.1 2.2 6 2.9 1.3 3.1 0.6 3.7 5.8-0.8 8.1-1.8 2.8-3.2 1.1-8.1 5.9 0.3 3.1 0.1 3.3-0.9 2.7 1.2 3.6 0.8 3.6-4.6 5.5 1.9 2.4 4.2-1.4-0.1 4.1-0.6 3.9-1.7 3.4-0.3 3.3 3.5 3 4.3-1.4 4.3 0.7 4 2.6 4 1.7 8.9 4.9 5.3 0.7 3.9 1.5 3.8 0.4 2.3 2 1.8 3.1-1.6 3.5-3.2 1.3-2.9 3.6-2.1 3.6 0.9 4.5-1.2 4.5-9.7 20.8-7.1 17.4-8.5 15.9z m-76.3-89.2l-0.1-4.9-1.6-4.4-1.1-6.4-2.7-4.7-5.7-0.4-4.9 1.2-3.2 3.3-2.2 4.8-3.7 4.6-7.1 0.7-0.9 3.2-0.2 3.4-3.4 2.1-3.8 1.2-5-3.1-4.5-0.2-2.3 5.1 3.7 4.6 3.2 4.4 0.8 5.8 3.1 2 4.6 1.4 4.7 6.1 6.8 0.3 2.9-0.5 2.7-1.6 4-1.2 3.9-0.9 1.8 4.1 4.7-2.3 4.5-1.1 4.1-2.4 1.5-2.6 2.7-3.7-1.3-1.5 0-3.6 2.4-1.6 2.2-1.1 0.4-3-1.2-2.9-3.2 0.1-3.7 1.3-4.4 0.1 1.5-5.7z" id="KOR2498" name="Gyeonggi">
 </path>
 <path d="M269 598.6l0.3 1.1-0.6 1.5-2.9 2.5-1.9 2.2-1.8 1.4-0.9 0.2-0.7-0.7-0.5-1.3 0.3-1.2 1.7-0.9-1-0.8 1.2-1 0.6-0.8 1.5-0.4-0.2-1.1 2.4 0.4 1.8-1.7 0.7 0.6z m207.6-80.7l1.3 1.6 1.5 1.4 1.3-0.3 1-1.4 2.7 1.6 2.4 2.8 7.1 2.4 1.4 1.8 2.6 0.7 5.1-3.1 5.8-2.6 2.3 2.2 2.3 1.2 2.1-1.8 2-2.2 6.5 11.1-0.8 12.5-5.8 6.2-1.5 4.1-7.9 4.2-3.9 1.2-2.1-0.2-1.6 1-3 6.4-3.4 3.6-3.6 3.2-1.8 5.1-0.4 6-2 4.4-2.5 4.6-1.8 5.9-1.4 6-2.2 4.6-0.1 4.9 4 1.7 0.6 2.1 0.3 2.5 1.8 4.6-0.3 4.9 1.6 3.7 2.3 1.5-1 5.4-6.6 7.9-1 5.2-0.3 4.8-3.3 3.4-9-7.3-10.1-3.7-5.8 3.2-4.6 5-4.9 0.7-5.3 0-5.7 0.8-5.9-0.1-2.7-1.6-2.4-1.9-2.7 0.7-3.3 0-4.8 0.8-4.5 2.7-5.9-0.9-3.8-4 0.2-6.4-3.3-3.7-0.9-3.6 1.4-5.6-3.2-4.9-4.7 0.3-1.1 2-1.6 1.5-1 2.6-0.4 2.7-4.8 0.1-7.5-10.1-4.8-4-2.8-1.1-2.8-0.2-2.7 3.1-5.3-0.5-4 3.5 0 2.7 0.1 2.6-1.4 2.2-2 1.5 0.1 2 0.3 2-1.3 2.8-2.1 1.8-2.6 1.3-2.7 0.7-2.3 1.4-2.1 1.6-5.3 0.8-5.1 1.8-4.7 1.2-3.9-1.3 0.2-5.3 1-5.2 0.9-7.1-4.5-1.2-15.4 4.3-3.3 1-2.2-2.5-0.7-2 1.1-4.6 2.7-5.7 4.3-10 3.6-5.3 5.2-1.8 5.9-1.2 5-0.3 2.3-1.9 2.3-3.2 3.1-0.8 2.8 3.2 2.9 3.6 2.1 0.7-2-7.3-1.5-3.3-2.4-1.4-22.4 3.7-7.8-4.9 0.6-7.3 3.7-1.9 3.2-3.2 3-3.4 4.7-2.8 5.9-3.2 4.4-6.2 0.7-5.8 4.2-2.6 1-0.8 5.6-0.6 5.6 0.7 3.5 2.7 2.5 0.6 1.7 3 0.7-1.6 0.5-2.2 0.2-2.3-3.5-2.8-3.1-1.5-3.4-2.3-2.8-2.1-1.4-0.8 0.4-1.7 1.3-1.8 1.3-1.1 1.4-0.3 8.9 0.6 1.9-0.2 1.4-0.7 1-1.8 0.4-1.4 0.7-1 2.2-0.4 0.7-0.6-0.8-1.5-1.7-1.4-1.9-0.7-0.5 0.4-11.6 4.7-3.9 0.2-7.7-0.5-7.5-0.6-0.1-3.4-0.5-4.6-1.5-1.3-4.7-1.6-6.9 1.1-0.7-5.9 14.3-1.6 7.8-1 7.9-0.4 2.6-1.6 2.7 0.8 3.3-1.7 5.8-4.4 7.4-3 3.2-2.2 0.3-2.8-9.3 2.8 7.1-8.8 7.6-0.8 8.9-1.9 16.4-5.2 5.8 1.2-1.4 8.6 3.4 5.3 4.6-0.9 4.5-1.7 8.7-1.7 2.3-0.8 2.2-1 3.3-0.7 2.2-3.3 2.6-2.7 5.1 4.5 7.1 12.8 5.2 2.6 2.1 0.6 0.9 1.9-1.1 2.2 0.6 1.6 9.2 1.2 3.4-0.8 4.7-0.2 4.7-1.3 3.8-3.4 3.8-3.8z" id="KOR2499" name="North Jeolla">
 </path>
 <path d="M368.2 668.9l8.1 3.1 3.2 8.9-6.2 8.3-9.8-1.6-8.6-5.2-4.3-9.5 3.4-3.2 5.7 1.5 4.1-1 4.4-1.3z" id="KOR2500" name="Gwangju">
 </path>
 <path d="M284.4 429.5l-0.3 2.2 0.4 1.9 1.2 3.6 2.2 3.3 0.9 3.1-1.6-0.7-7 0.4-2.3-0.4-0.4-2.9 0.8-1 1.2-1.2 0.6-1.7-3.7 2.4-1.8-0.9 0.5-2.9 2.8-4-1-1.2-2.2 2.6-0.7-1.8-1.7 0.9 0.9-4.7-0.6-7.3-0.8-4.3-1.6-5.5 1.4-1.8 2.8-2.6 3-1.1 2.1 3.4 0.3 1.2-0.7 1.5-1.2 0.9 0.1 1.4 2.7 6 0.4 2-0.7 1.6 0.8 1.4 1.8 1.1 1.4 2.4-3.3 0 0 1.2 1.1 0.2 2.2 1.3z m88.1-84l7.5 1.5 6.2 0 13.1-5.6 6.9 3.1 6.1 5.1 7.4 1 1.3 3 1.9 1.9 2.1 1.3 2.7 5.5 2.1 1.4-0.2 4.1 1.3 1.2 1.1 2 0.3 2.2-0.4 2.3-0.8 2-0.4 2.2-0.3 1.7-0.8 1.5-1.4 0.4-1.5-0.2-1.4 1.4-3.3 5.8-4.4 6.4-22.5-9-3.7 10.2 0.5 29.9-2.4 2.3-1.4 4.1 14.4 2.9 10.8-3 8.4 13.3 2.9 5.6 0.8 14.3 3.3 10.7 7.8-2.1 6.9-5.1 2.3-0.8 4.1-3.3 2.3-8.5 2.1-3.4 0.7-4.6 2.1-2.8 2.7-2 2.2 1 2 0.7-0.6 3.4-2.6 2-1.6 2.9-1.5 3.3-3.5 6.5-1.9 7.6-0.3 5.4 0.4 5.6 5.1-1.1 4.7 1.5 4.9 3 1.6 5.9-0.2 6.7 1.3 6.8 3.3 5.7 3.6 5.6-3.8 3.8-3.8 3.4-4.7 1.3-4.7 0.2-3.4 0.8-9.2-1.2-0.6-1.6 1.1-2.2-0.9-1.9-2.1-0.6-5.2-2.6-7.1-12.8-5.1-4.5-2.6 2.7-2.2 3.3-3.3 0.7-2.2 1-2.3 0.8-8.7 1.7-4.5 1.7-4.6 0.9-3.4-5.3 1.4-8.6-5.8-1.2-16.4 5.2-8.9 1.9-7.6 0.8-7.1 8.8-3.3 1-3.2 2.2-2.7 2.6-2.9 1.4-3.5 0.6-3.4 1.5-2.4-1.2-0.8-1.3-0.2-1.8-0.9-2.5-1.3-2.1-2.6-3.5-1.5-2.4 2.2-1.8-1-1.2-4.1-1.6-3.7-6.2-2.7-1.2-2.1 1.2-1 0-0.1-2.2-3.6-2.3-3.1 0.5-0.9 3.7-0.6 1.3-1-1 0.6-5.8 5.4-2.7 4.7-1.5 6.6 1.9-2.3-3.9-1.3-1.5-1.8-1.3-1.1-0.2-1.2 0.7-0.9-0.5-1.2-1.3-1-1.4 3.3-9.1 1.9-4.1 2.4-1.5-1.8-2.2-6.7-2-2.4-1.3 2.4-2.2 7-1.7 1.5-2.1-1.1-2.6-2.5-0.6-5.2-0.1-1-0.7-1.9-2.3-1.3-1.1 0-1.4 2.1 0-2.4-4.4 2.9-1.6 3.2-1 3.1-4.4 6.5-1.8 3.1-1.7-9.3 0-2.2 1.3-3.4 5.1-2.5 0.5-1.6-1.9-1.4-3.7-0.9-3.7 0.1-2.2 3.3-3.9 1.5-2.4-0.5-1.1-3 1.1-1.4-1.2-1.3-0.9-0.7-0.1-0.7-1.8 0.7-1.7-0.2-1.8-0.8-3.4-0.9-1.4-0.1-0.9 2.2-0.1 3.1-1.5 3.3 0.1 0.3-2.4 0.9-2.1-1.3-1.7-1.8-0.4-2.6-2.5 1.6-2.3 2.3-1.8-1.5-2.8-3.8-0.7-0.8-3.3 1.2-2.4 3.7-0.6-2.1-2.4-0.7-1.2-0.5-1.8-1.4 1.2-2.2 2.4-2.5 1.1-0.5 1.4 0.1 1.4 1.1 1.7 0.2 3.3-1.2 3.9 0.7 5.2-1.7 4.4-1.4 1.8-2.9-2.3-3.1-0.1-3-2.1 0.7-10.6 1-3.9-1.8-0.8 0.5-5-1.7-2.1-2.5 0.5-1.5 2.5-0.4 3.2-1.1 2.3-3.6 0.1 1.5 3 2.9 4.6 1 3.3-1.7 1.5 0.2 1.6 2.7 3.6-2.5 0.5-2 1.2-1.7 1.6-1.4 2.1 0-1.5-0.5-2.8-0.6-1.1 2.2-4.8-4.6-7.7 1.4-3.8-1.2-5.4-3 1.7-4.1 5.3-3.1 1.1-1.9 0.4-1.6 0.6-1.6 0.1-1.9-1.1-1.1-2.8-0.3-1.8 0.8-0.8 6.5 0.1 1.7-1.2-0.1-2.9-1.7-3.1-2.4-1.2-2.5-0.8-2.1-1.7-0.8 2.4-0.5 4.9-0.9 2.3-1.8 1.7-0.6-1.6 0.2-5-0.3-4.8 0.4-1.3 4.1-5.2 0.8-1.8 0.6-2.5 0.5 1.9 1.5 3.4 1.1 1.6 0.8-0.8 1.1 0.1 2.5 0.7-1.6-2.4-1.7-3 4.5 1.3 1.9-0.5 1.2-2.3-4.1-0.3-2.5-1.1-0.3-2.5 2.6-4.2-3.5-3 0.2-2.7 2.7-2.3 3.9-1.4-1 4.9 0.4 1.3 2.1 0.5 4-0.1 1-0.7 1.1-1.8 0.2-4.5-0.4-5.9 0.8-4.9 3.7-1.2-0.5 2.8 0.1 4.2 0.7 4.4 2 5.2-1 1.8-1.5 1.7-1 1.7 0 1.8 1 2.9 0.2 0.8-0.9 1-3.4 2.3 0.1 1.7 0.5 1.8 0.9 1.1 1.1-0.5 2.7-2.5 2 0 4.5 3.1-3.3-7.1-1.1-4.4 1.7-2 2.5 3.3 1.6 1 0.7-2.2 0.7-0.6 1.6-0.7 3.2-0.8 0-1.2-1.3-0.2-3-1.3 0-1.2 3.8-0.9 2.2-3.7 0.6-4.4-1.2-3.3-1.4-0.5-4.2-0.1-2-0.8-1.5-1.9-0.5-1.8 0.7-0.6 2.3 1.6 1-3.1-1.1-1.8-2.4-0.7-2.9 0.2 1.2-1.5 1.5-1.1 1.7-0.3 1.6 0.9 1.5 1.1 1.3 0.3 0.6-0.6-0.7-1.5 0-1.5 5.9-0.1 2.8 1 1.1 2.6-0.8 1.6-1.5 1.7-0.9 2.3 1 3.2 1.4-1.4 1.8-1 1.5 0.1 0.7 1.6 0.2 1.4 0.7 1.3 0.2 1.3-1.8 2.3-0.4 1.2 0 8.8 0.5 2.6 1.2 1.8 1.1 0.7 0.6-1 0.6-4.9 2.9-9.5 0.7-4.6 0.8-1.1 1.9 1.3 2.8 3 1.1 2.2 0.8 2 1.2 1.3 2.3 0.1 0-1.3-1.2-1.5-1.3-4-1.3-2-9.7-10.3-0.6-0.5 0.5-2.2 1.3 0.3 1.7 1.5 2.5 3.2 1.3 1.1 1.7 0.8 1.9 0 1.5-0.9 0.1-1.3-1-1.3-2.3-0.6-3-1.4-3.3-3.1-1.4-4.6-0.4-3.1 2.9 0 2.5 1.2 2.3 2 6.2 4.3 1.2 1.3 2.4 1.7 2.3 1.2 1.6 2.7-0.7 2.7-1.6 1.8 0.4 1.5 1.5 3 0.2 1.8-0.6 3.3 1.8-1.2 0.7-1.5 0.4-1.6-0.6-4.9 0.6-1.6 2.5-4.5 2.6-1.2 2.5 0 2.7 0.3 3 1.2 3.9 1 2.7 1.8 3.4 3.4 0.2 4.3-2.5 8.5 1.9-1.2 3-3.9 1.6-0.3 1.1 1.7 0.7 2.9 0.3 5.6-0.1 1.2-0.8 2.7-0.1 1.6 0.3 1.6 1.4 2.4 1.3 6.1-0.4 1.8-2.6 0.8 0.5 1.7 0.6 1.1 0.9 0.8 1.3 0.6 0.9-4.5 1.6-2.6 0.8-2.8-1.3-5 3.2 1 3.3 0.4-5.4-6.1-1.6-3.3 3.2-1.4 2.9-0.5 6.9-2.8 3-2.3z" id="KOR2502" name="South Chungcheong">
 </path>
 <path d="M434.4 429.6l-0.4 1.5 0.6 1.5 1.1 1.2 1.4 0.7 0.9 2.2-0.6 3.4 4.8 1.4 5.1-1.2 1.8-2.6 2.2 0.5-0.2 2.2 1.9 1.1 0.3 3.5 1.6 5.2-0.7 4.6-2.1 3.4-2.3 8.5-4.1 3.3-2.3 0.8-6.9 5.1-7.8 2.1-3.3-10.7-0.8-14.3-2.9-5.6-8.4-13.3 17.5-4.8 3.6 0.3z" id="KOR2503" name="Daejeon">
 </path>
 <path d="M656.6 550.7l-2.5 2.6-1.1-0.4-1.5 0.1 0 1.3-0.2 1.7-1.5 3.9 0 1.2-0.4 1.9-3.6 2.1-9.1-2.4-5.1-0.5-2.3 1.8-2.2 4-1.3 1-1.4-1.2-2-1.3-2.8-2.3-1.8-3.6-2.3-2.3-2.5-0.9-0.9-3.6 2.1-3.1 2.4 0 2.6-0.4 0.6-1.9 0.3-1.9-1.4-0.5-1.5-0.3 1.7-3.8 2.8-3-1-8.9 7.4-6.2 10.1-1.4 8.3-0.5 6.4 4.6 2 3.5-0.1 1.6-0.8 1.3 0.1 4.9 1.3 2 1.7 1.4 0.3 3.1 0.1 3.3-0.9 3.1z" id="KOR2504" name="Daegu">
 </path>
 <path d="M579.8 789.2l0.7 0 3-1.4 0.4 0.4-0.3 1-1.5 1.9-1.7 0.6-1.5-0.3-1.2 0.2-1.7 0.8-0.8 0.8-1 0.2-0.1-0.7 0.5-1.3-0.1-1-0.7-0.7-1.3-0.6 0.5-1.9 0-1 0.7-0.6 1-0.3 5.1 2.7 0 1.2z m17-36.8l1.1 0.6 1.5-0.6 2.4-0.7 2.8-0.1 1.6 1.5 0.4 2.5-0.9 1.5 0.6 0.9-0.7 1.2-1.6-0.6-0.6 0.8 1.3 0.3 1.3 1.1-0.6 1.1-1.6 2-2.6 0.1-1.2-1.5-0.6-1.5-1.3-0.1 0.3-1.2-0.4-1.3-2.1-0.3-0.7-0.6 1.5-1.2 0.3-1.4-1.5-1.3-2.9-0.9-1.8 0.5-1.1 0-0.3-1.3 1.3-1.4 1.8-0.5 2.5 1 1.8 1.4z m-21.7 4.5l-0.5 0.5-2.4-0.8-1.8-1.2-1-1.6 0.2-1 1.1-1.8 2.1-1.6 2 0.5 2.4 2.6 0.9 1.5-0.7 1.1-1.7 0-0.8 0.4 0.2 1.4z m-36.1-13.4l0.8 0.6 0.9-2.1 1.9-3 1.5-0.2 0.5 1.3 1.6 1.3 0.3 2.3 0.9 3.2 1.6 1.8 0.9 1.3-1.7 0.4-7.2-1.9-3.9 1.3-2.3-0.3-2.3-1.4-1.4-2.8 1.1-3 2.1-2.8 1.4-2.6 1.5-1.9 2.5-0.6 0.8 2.1-1.1 3.1-0.6 2.1 0.2 1.8z m-10.1 8.6l1.9 3.4 3.1-0.5 3.9-1.6 3.6-0.7 5.4 0.9 1.1 0.4 0.8 2.2-0.5 1.9-0.9 2-0.4 2.5 0.4 4-0.1 2.3-0.9 1-1.3 0.7 1.4 3.9-0.7 2-2.4 0.4-2.4-1.4-2.5-1.1-2.9 1.4-2.6 0.3-1.5-3.7-1.8-7.8-2.6-1.4-2.1 1.5-1.4 3.2-0.5 4-1 1.7-2.2 0.1-2.4-0.8-1.4-1-1-1.7-0.3-3.1-0.3-2.5-4.4-14.2-0.6-3.5 0.4-3.3 1.9-3.5 1.2-0.9 1.2-0.2 1-0.7 0.7-4.2 0.9-1.3 2.6-2 2.1-1 2.4 0.8 2.1 1.8 1.2 2.5-0.2 2.5-1.4 2.4-3.6 3.8 0.7 1.3 0.7 3.4 0.9 1.7 1.3 1 3.4 1.1z m122.5-25.1l1 1.8 0.7 1.9-0.1 2.6-0.6 2.3-2.5 6.5 3.2-1.1 1.5-1.1 0.5 0.4 0.2 3.3-0.2 2.2-0.7 2.5-1.4 1.3-2.1-0.9 0.8 2.6 2.1 4.4 0.4 2.9-1.2 0.5-2.8-0.9-2.9-1.6-1.8-1.3-0.5 2.7-0.5 1.4-2.8 3.2-0.9 2.6 1.9 1.4 2.6 1.1 1.3 1.5-2.4 2.1-11.5 3.6-3.4 0.2 5.4-3.9-2.3-1.1-0.8-1.7 0.1-2.3 0.8-2.8-4.9 2.5-1.5-1-0.7-2.2 0.1-2.2 1-1 4-0.8 1.1-2.2 0.1-3 0.8-3.4-2.2-1.3-1.6 2-5.7 2.5-2.5 2.1-1.8-2.8-2.2-2.5-1.9-2.8-0.5-3.6 1.1-2.3 2-2 2.4-1.6 2.1-0.9 5.9-1.2 1.7 0 2.6 1.1 2 1.4 2.2 1.1 2.9 0.2 0-1.2-2.9-2-1.7-2.9-0.8-3.3-0.1-3 2.1 0.2 11-6.3-1.9-3.6 0.9-3.5 2.5-1.9 2.8 1.1 0.7 1.6 0 1.8-1 7.2 0.1 1.2 0.7 2.2z m17.1-7.6l-0.8 0.3-0.4-0.8-0.8-3.4-1.2-1.3-0.4-1 0.2-1.3-0.6-1.6-0.8-1.6 0.4-1.4 1.7-0.9 1.8-0.2 1.6 0.5 1.1 2.4-0.1 4.9-0.7 4-1 1.4z m27.9-113.6l0.7 7.7-4 8 2.4 4.8 9.8 1.5 4.1 3.2 6.8 7.8 8.1 4.5 3.7 2.8 1 5.4 3.5 3.4 4.5 1.6 0.6 0.6-0.7 2.6-0.3 3.5-0.9 1.9-1.1 1.6 0.9 2.6 0 1.1-1.7 3.6-2.6 5.4-2.8 3.4-1.8 3.8-0.3-0.7-3.2-3.3-2.8-3.7-3.7-2.9-2.8-4-0.9-4.2-3.1-2-4-0.2-3.7 1.5-3 2.2-2.3 2.8-1.6 11.5-2.3 3.4-2.4 3-1.3 2.4-0.8-0.7-1.4 2.2-4.8 8.5-2.2 0.1-0.2-3.9 0.2-3.7-1.1-0.1-1.3 3-1.2 4.7-3.9-0.5-10.4 0.2-0.6-3.6-1.1-1.9-1.4 5.4-1.6 0.8-3.7-1.7-1.7-3.2-1.9-0.2-2.4 1.8 0-8.4-0.7-0.7-1.3 0.5-1.2 1.8-0.1 3-2.5-2-1.9-2.8-2.2-1.8-3.2 1.3 0.7-2.7-1.3-3.9 0.6-1.5-1.6-5-0.9-0.6-1.8 1.7-2 3.1 0 2.1 2 4.2 1.1 5.1 0.7 1.8 1.3 2.3 2.7 3.6 0.4 1.8-0.8 2.5 1.3 0.2 3 1.2-1.4 0.9-1.3 0.4-3.3 0-1.6-0.4-0.5-1-0.1-1.3-0.5-1.3-1.5-1.6-1.1-0.9-8.6-3-2.4-0.1-5.2 1-1.4 0.7 0.1 1.3 1.8 2.6-2.9 0.6-5.5 2.8-6.2 1.7-0.8 2.4-0.3 2.7-1.7 1.7 0 1.3 15.8-8.4 2.7-0.2 0.5 3.4 1 2.5 0.3 2.3-1.3 2.5-2 1.2-3.1 0.5-3.1-0.2-2-0.8-1.1 1.9 0.7 0.9 1.5 0.8 1 1.7 0.2 2.4-0.2 4.1-1.1 7.9 1.4 1.3 1.4-0.4 1.1-1.6 0.5-1.9 2.1 2.6-2.2 3.9-4 5.2-3.5 1.1-4.8-0.3 0.1-3 3.1 0 1.3-0.3 0.8-1.2-9.9-1.2-2-0.8-2.3-3.1-0.3-1.6 1.6-1 3.7-1.5-3.6-7.2-2.6 2.6-2.6 5-3.7 0.2-3.3-4.5-1.8-1.1-3.6-0.4-1.6 1-0.8 2.3-0.4 3 0.1 2.9-3.3-0.6-7.4 0.3-2.9-1.6-0.3-1-0.1-2.9-0.1-0.7-0.8-0.2-1.7 0.3-2.3-0.5-3.7-0.3-1.3-0.7-0.8-1.6 0.1-1.5 0.7-2.8-0.3-14.3 0.3-2.3 1.2-2.5 0.7-1.8 0.2-2.4-2.5 3-2 3.4-2.5 2.6-3.8 0.3 2.9 6.9-2 1.3-4.3-0.1-4.1 2.6-1.6-4.6-1-1.9-1.8-1.4-0.5 6.2-1.7 5-3.3 2.9-4.2 0.4-3.2-1-1.2 0.1-1 0.9-2.4-1.9-1.6-0.5-0.4-0.8 0-3.6-2.1-5.3-9.9-10.7-1.7-3.6-1.4-4.1-3.5-3.7-3.9-2.8-2.1-3.9-0.7-10.3-1.6-5-3.2-3.8 0.8-4.2 3.3-3.4 0.3-4.8 1-5.2 6.6-7.9 1-5.4-2.3-1.5-1.6-3.7 0.3-4.9-1.8-4.6-0.3-2.5-0.6-2.1-4-1.7 0.1-4.9 2.2-4.6 1.4-6 1.8-5.9 2.5-4.6 2-4.4 0.4-6 1.8-5.1 3.6-3.2 3.4-3.6 3-6.4 1.6-1 2.1 0.2 3.9-1.2 7.9-4.2 1.5-4.1 5.8-6.2 1.3 4.3 3.2 1.9 2.9 2.3 0.2 1.6 0.6 1.6 2.6 1 4.8 0.4 2 1.7 2.6 1.7 4.5 0.4 4.5 0 4.1 1.3 3 3.3 2.1 4 3.5 2.5 0.9 1.8 0.6 1.7 2.4 1.5 2.1 2.5-0.1 4.6-1.9 4.4 2.5 9 9.8 0.4 4.7-0.6 4.6 0.7 4.3 2.1 4 3 4.5 0.9 8.5-4.3 4.3 0.9 3.9-5.6 3.7-2.9 1.3 10.8 4 4.9 4.9 3.1 5.8-0.6 5.9-1.1 5.2 1.6 4.9 2.6 5.9 0.2 5.2-4.1 2.2-0.8 2.3-0.3 2.2-1.9 1.8-2.4 5.7-2.3 6.1 1.5 4.7 2.2 4.4-1.5z" id="KOR2505" name="South Gyeongsang">
 </path>
 <path d="M274.6 918.7l-0.6 0.7 0.3 1-0.7 0.5-1.5 0-0.3 1.3 0 1.2-1.1-0.2-2.4-4 1.9-0.4 1.5 0.5 2.9-0.6z m93.8-3.3l-3.6 0.6-0.4-3 1.3-0.8 1.2 0.2 1.5 3z m59.7-16.2l1 0.5 1-0.1 0.4 2.4 0.7 0.4 0.4 1.3-0.7 0.4-1.9-0.8-0.9-1.4-0.9-1.8 0.2-1.2 0.7 0.3z m-2.7-0.5l0.4 0.8-0.6 1.8 0.3 1.9 2 3.4 0.9 0.8 1.2 0.3 0.4 0.7-0.2 0.9-2.2-1.1-2.2-0.5-0.9-1.9-0.4-1.6-1.1-1-0.3-1.3 0.2-2.5 1.1 0.1 1.4-0.8z m-341.5 1.9l-0.5 0.9-1.8-0.9-3.1-2.8-1.8-1.1-0.4-1.5 0.8-2 1.2-1.1 1.8 0.6 1.4 1.7 2.2 4.7 0.2 1.5z m232.1-9.1l-3.6-0.5 1-1.2-0.5-1.1 0.5-0.5 1.1 0.2 1 1.6 0.5 1.5z m-5.8-13.3l1 0.1 1.3-0.4 1.8 0 2.2 0.9 1.3 1.6-0.3 0.9-1.3-0.7-0.2 0.7-2.1-1-1.5 0-0.8 0.9-0.6 1-1.7 1.2-1.6 1.4-2.4 1.4-3-0.1-1.7-2.2-0.1-2.9 1.4-2.9 2.8-1.9 2.4 0 3.1 2z m15.5 9.5l-1.6 0.4-0.8-0.5-0.3-0.9-1.6-0.8-0.3-2.5 1-4.5 0.3-2.4-1-1-0.3-0.9 1.3-1.2 0.1-0.7 1.3 0 2.7 1.4 0.4 1.9-1.5 1.3-0.3 1.4 1.6 2.4 0.6 0.4 0.6 0.9-1.2 0.7-0.2 1.1 0 2-0.8 1.5z m15.2-12.4l-0.4 1.3-1-1.6-0.9-0.8 0.4-1.5-0.1-1 2.3-1.9 1 2.6-0.2 1.6-1.1 1.3z m25 3.2l-1 1.8-1.8 1-2.4 0.2-1.7-0.9-1.4-1.3-1.1 0.1-0.5 1-0.6-0.4-0.7-2.9 1-2 0.3-1.8 0.6-1.5 1.1-1.1 2.3-1.1 2.7 0.7 1.6 2.3 2.4 2.5-0.4 2.4-0.4 1z m-52.3-2.3l-0.8 0.6-2.4-0.6-1.3-1.2-0.3-0.8-1.4-0.4-0.2-0.6 1.3-3.1-0.1-1.5 0.9-0.7-0.9-1.9 0.5-0.4 2.5 1 3.3 0.6 2.5 1.5 0.7 0.9 0.1 1.7-1.1 0.9-0.5 2.2-2.3 0.1-1.3 0.3 0.8 1.4z m-100.3-12l-1.7 1.8-1.2 0.4-1.4 0 0-0.9 0.6-1.7 0.8-0.7 2.9 1.1z m206.6 4.7l-0.4 1-2.9-0.6-2.8 0.7 1.3-4.1 1.6-1.5 0.5-1 1.6-0.9 0.7 0.1 0.7 1.7-0.2 2.1-0.9 1.6 0.8 0.9z m-102.7-6.5l1.4 0.6 0.8 1.6-0.8-0.1-1.1 1-0.7-0.2-1.7 0.5-1-1.6 1.3-1.2 1.8-0.6z m-88.3-0.6l0.9 0.6 0.6-0.2 0.2 2-1.4 2.9-1.1-0.4-0.9-1-0.8 1.8-0.6-1.4-1.8-0.9 1.1-1 1.4 0.2 1-0.2 1-0.8-0.1-1 0.5-0.6z m-20.4-0.9l0.2 2.4-0.4 0.5-0.6-1.5-1.2 0.4-0.5 1.1-1.7-1.1 1.3-1.7 1.5-0.5 1.4 0.4z m255.3-0.9l-0.7 0.5-1.3-1.4 1.3-0.6 0.7 0.2 0 1.3z m-154-4.1l0.9 0.8-2.1 1.1-1.5-0.3-1.4 0.2 0-1.8 1.5 0.5 2.6-0.5z m132 0.4l-1.5 0.9-0.5-3.1 2.2-0.1-0.2 2.3z m-7.6-2.5l0.6 1.3 1.9-0.8 0.6 0.8-0.7 0.5-0.4 1-2.4 2.5 0.4-5.3z m-208.6-3.6l5.5 1.1 2.3-0.4 1 0.6-0.1 2.1 0.2 1.4-0.7 1.1-1.6 0.2-0.9 0.7-0.6-0.3-0.7-1-0.8 0.9-1 0.2-3.3-1.4-1.1-1.6-0.1-1 0.7-0.9 0-1 1.2-0.7z m150.4 1.4l-1.2 0.5-1.1-0.1-0.5-0.8-0.8-0.5-0.8-0.9 0.1-1.7 0.5-1.2 2.1-1.2 3.9-0.1 2.5 1.3 0.1 1.3-0.8 1.1-3.1 2.3-0.9 0z m-156.2-6.6l2.1 0.9 1.3-0.8 3 0.4 3.2 1.8 0.3 1.1-0.8 0.3-3.7-1-3.2 0.6-2.2-0.5-0.7-2.3 0.7-0.5z m75.7 0.9l-0.7 0.5-0.9-1.2 0.2-1.1 1.6 0.7-0.2 1.1z m58.3-2.5l1.2 0.3 1.3-0.2 1.8 0.2 2.2 0.6 1.4 0.8-0.3 1.4-0.9 1.1-0.4 2-1 1.1-1.3-0.3-1.5 0.3-1.5 1.4-1.4 0.3-0.8-1.1-0.3-1.5-0.9-1.2-1.2-0.5-1.6 0.2-1.9 0.7-1.5 0-1.2-0.7-3.5-1.6-0.2-0.6 1.6-0.2 1.6-0.5 1.2-0.7 1.3 0.2 1.4 0.7 1.8-0.7 2.1-1.8 1.6-0.4 0.9 0.7z m32.1-1.5l1.2 0.6 2.2-0.7 1.6-0.2 0.7 0.7 2.3 3.5-0.9 0.2-1.4-0.7-1.5-0.4-1.2 0.5 1.4 1.1-1.1 1.1-2.8 2.2-1.6 0.7-0.2-1.7 0.8-1.2 1-0.6-0.6-0.8-3.4-0.7 0.4-0.8-0.4-0.9-1-0.7-2.7-0.2-1-0.4-0.1-0.6 1.2-0.3 0.9-0.6 1.5-1.8 1.9-1.6 1.2 1.1 1 1.5 0.6 1.7z m-273.6-5.4l-1.6 0.5-0.6-0.4-1 1-2.1-3.5 1-0.2 1.4 0.5 2.9 2.1z m226.1 11.9l2.9 2.8 0.3 1.2 0.9 2.2-0.6 0.5-1.5-0.4-2.7-1.4-0.6 0.2-0.2 1.1-0.7 0.4-1.4-0.6-2.4-0.6-3-1 0-1.2 1.4-1.2-0.3-1.4-1.4-0.3-1.7 0.4-2-0.6-1.9-1.2-1.1-1.4-0.4-2.1-0.2-2.4 0.1-2.4 0.7-2.4 1.2-1.9 1.7-0.8 3.7-0.5 1.8 0.6 1.7 1.2 1.9 2.2 1.5 3.7 0.4 3 0.5 1.5 0.9 1.1 0.5 1.7z m31.7-15.4l-0.8 3.1-0.6 0.6 0.6 2.1-1.2 1.2-1.3 0-0.7 1.1-1 0.8-1.2 0.5-2-0.6-1.1-0.9-0.8-1.6 0.4-1.9-0.3-0.7-1 0.6-1 1.2-0.7 0.1 0.1-5.1-0.6-0.8 1.1-0.3 1.1 0.8 3.6 0.2 1.3 0.3 1 0.9 1.4 0.4 1.3-0.1 1.1-1.3 0.7-1.8 0.5-0.2 0.1 1.4z m51.3 4.4l-0.6 0.2-2.3-0.7-0.6-0.9 0.2-2.5-1.3-0.7-0.3-1.6 0.5-0.4 0.8 0.2 0.7 1.2 1 0.8 0.4 1.1 1.7 2.7-0.2 0.6z m-64.9-3.4l0.1 1.2-1.1 0.2-3.3-1-1.3 0.3-0.8 1.2-4.2 2-1.5 1.9-0.4 2.1-0.9 0.6-1-1.2 0-2-0.3-1.6-1.5-0.7-0.7-0.7 1.3-2.2 1.1-2.5 2.2-2.9 3.1-1.7 3.3-0.8 2 0.3 0.7 1.2 0.2 1.2-0.9 0.9 0.2 0.4 1.4 0.9 1.2 1.4 1.1 1.5z m-247.4-8.3l-2.2 1.5-0.3-0.8 1.5-2.5 0.8 0.3 0.2 1.5z m276.2-3.1l1.6 0.8 0.5-0.4 1.2 1.3 1.8 4.7-0.7 0.9 0 1.4-0.7 0.7-0.8 0.2-0.7-3.1-1.4 1.5-0.8-0.6-2.7-6.2 0.8-0.8 1.9-0.4z m120.5 9.3l-0.2 0.3-1.9-1.5-0.6-1.2 0.8-0.9-0.8-0.8 0.9-1.6 0.4-1 0-1.3 0.2-1.2 0.8-0.3 0.5 0.9 1.3 1-1 4.5 0 1.8-0.4 1.3z m-50.2-10.3l0.8 0.3 1.4-1.4 1.5-0.1 3.5 3.7 0.7 1.9 0 1.1-1.2 1.3-2.9 1.9-2.5 0.8-0.9-0.5-0.1-1.7-1.1-1.1-1.6-0.5-0.7-1 0.4-0.8-2.7-1.9 0.5-1.4-0.3-1.9 0.7-0.5 2.3 1.2 2.2 0.6z m-43.7 7.6l-6.6 1.2-2.5-0.3-1.8-0.9-3.8-2.6 0-1.4 0.8-1.1 0.2-0.9-0.6-0.8-1.5-1 2.2-1.7 2.5-1 5.2-1 4.9-0.5 2.6 0.2 2.2 1 1.7 3.1-0.5 3.6-2.1 2.9-2.9 1.2z m-182.5-11.7l1.7 0.6-0.4 0.8-1.8 1.3-1.3 1.5-1.1 0.5-0.3-2.3-0.7-1.4 2.1-2.1 0.4-1.2 1.4 0.3 0.9 0.8-0.9 1.2z m279.4 1l-0.9 0.7-1.1 0-0.9-0.4-1.1 0.6 0-1.9 1.1-1.7 1.5-0.7 1.3-0.2 0.4 0.4-0.9 1.1 0.4 0.9 0.2 1.2z m-109.1-6.4l-1.1 1.4-2.1 0.8-0.7-1.1-0.9-0.3-0.1-1.5 1.1 0.1 0.5-1 1.9 1.1 0.4-1.6 1.1 0.4-0.1 1.7z m53.9-0.6l-0.9 1.1 5 1.6 0.8 1.7-0.3 0.6-1.3 0.9-1.5-0.1-3.4 0.9-1.2 0.5-1.9-1.9-0.1-1.2 1.3-0.8 1.2 0.1-1-1.5-0.4-1.5-2.3-0.6 0.7-0.7-0.2-0.8 0.5-1.4 1.3-1.5 2.5-0.2 1.6 1.4-2 1.5 1.1 0.8 0.5 1.1z m48.3 5.3l-1.3 0.1-0.8-1.1-1.5-0.8-2.3-0.8-1.5-1.2-0.7-1.7-0.8-1.1-1.3-0.7-1.1-1.4 0.8-1.6 2.7-1.3 2.9-0.4 2 1.5 2.4 4.7-0.2 2 1.3 0.3 1 0.6 0.7 1.1-0.3 1.2-2 0.6z m-231.6-9.5l1.1 0.8 0.7-0.2 3.6-2.3 0.1 1.7 4.7 7.6 0.3 2.7-0.5 2.9-0.8 2.9-3.1 6.7-1.3 2-1.6 1.1-0.2-0.6-2.7-2.6-1.3-0.8 0 1.2-0.6 3.1-15.1 8.2-1.8 0.7-6.7 0.5-1.8-0.5-0.4-1.6 0.9-1.4 1.2-1.2 0.4-1-0.8-1.2-4.6-2.8 0 4-3.3-3.9 2-6.4 4.5-5.2 4.4-0.3 1.4-4.2 1-1.5 1.4-1.6 1.7-1 1.5-0.2 1.2-0.9 0.4-2.7 1.9 2.3 2.5 0.3 2.2-1.5 1-2.9-1.2-2.4-4.1-3.3 1.1-1.6 2.5-0.1 2.7 1.4 2.2 1.8 1.7 0.9 1.6 3.1z m214-7.2l0.5 0.3 1.9 0 0.5-0.5 1.1 0.4 0.7 1.3-0.6 0.9-0.9 0.4-0.8-1.6-1 1.9-0.9 0.7-2.7 0.4-1.7-2.4-1-0.3 0.8-1.8 0.8-0.8 1.7-0.8 0.7 0.2 0.7 0.7 0.2 1z m-89.2-4.3l-0.9 0.4-1-2.4 1-0.6 1.4 1.3-0.5 1.3z m72-3.6l1 1 0.1 1-1.9 0.5-0.7 1.8-1.1-0.3-0.6-1.3-2.3-0.4-0.4-1.1 0.7-1.4 1.8 0.9 0.6-0.7 1.4-0.5 1.4 0.5z m-237.6 16.2l-1.7 0.2-1.9-0.5-0.5-1 1.9-0.4 1.7-1.5-0.2-0.6-3.5-0.8 0.9-1 2.2-0.4 2.3 0 1.8-1.4 0.7-1.9-0.7-1.9-1.6-2.6-1-3.2 1.2-0.9 1.9 1.5 1.2 1.2 1.9 1.1 0.1 1.7 0.7 1.4-0.2 1.9-0.5 2.2-0.1 1.8-0.9 1-2.6 2.2-3.1 1.9z m-31.7-17.1l0.4 2-0.3 0.8-0.9 0.7-2.4 0.8-1.3-0.1-1.3 0.6-1.1-0.5 0-1.1 1.1-0.2 0-0.5-3-2.5 0.9-0.3 1.3 0.7 1.6 0.3 3.5-2.1 1.1 0 0.4 1.4z m28.6 10l-1.5 0.7-1.3-1.1-0.6-6.7 0.6-3.7 1.3-1.7 2 4.4 1.7 2.5 1.3 2.7-0.4 2.3-1.4 0.4-1.7 0.2z m-9.7-11.5l0 2-1.4-0.6-0.6-1.1-0.6 0.3-1.5-0.3-0.8-1.7 1.9-1.5 1.6 0.3 0.5 1.5 0.5 0.1 0.4 1z m-79.8-2.7l-1.1 1.1-1.6-1.2 0.5-1.1 0.9-0.3 0.3-0.9 2.4-0.1-0.4 1-1 1.5z m108.3-2.8l0.2 0.8 2.5-2 1.8 1.9 0.3 2.6 1.8-0.1 0.3 0.7-3 1.5-0.8 1.1-1.1 0-1.2-0.4-0.9 0.4-0.5 0.7-1.5 0.2-1.8 1-1.1-0.4 0.6-4.9-1.2-0.6-0.9-0.9 0.6-0.7 1.1-0.6 0.6-0.8 3-2.2 0.7-0.1 1.1 0.5 0.1 1.1-0.7 1.2z m-123.6-3l-0.8 1.3-1.4-1.9 1.9-1 1.2 0.8-0.9 0.8z m9.2-4.3l0.5 1.4 1.4 0 1.8-0.5 0.3 0.8-2.1 2.2-0.4 1.1-2.5 2.9-0.5 1.4-1.1 1.7-1.4 1.9-1.6-0.7-1-2.7 0.2-2.6 0.9-2.3 1-2.1 1.2-1.8 1.3-1 1.3-0.3 0.7 0.6z m106.7-1.1l-0.9 0.9-1.3-1.1 0.5-1.2 1.6-0.9 0.1 2.3z m-143.1-2.8l0.4 0.5 1.2-0.4 0 3.1-1 2.2-2.2 1.5 0.5 1.6-1.4 0.7-0.3 1.1-1.1-1.4 0.2-0.9-0.3-1.4 1.1-0.9 0.5 0.3 1.8-3.6 0.1-1.9 0.5-0.5z m410.5 26.2l-1.8 0.1-1.8-0.9-5.6-5.7-0.7-2.3 1-3.5 0.7-0.9 3-2.3 0.5-1.1 1.2-4.9-2.4-2.6 0.3-1.5 1.7-0.8 2-0.3 1.7 0.8 0.4 1.8-0.8 2.1-1.9 1.8 1.6 0.4 1.5 2.3 1.1 2.8 1.3 4.9 0.2 2.8-0.5 2.7-1.2 2.7-1.5 1.6z m-8.8-24.4l-1.6 1.3-1.3-0.7-1.2-1.8 1-1.2 1.2 1.4 1.9 1z m-275.9 5.6l-2.4 3.2-1.1 0.8-2.7 0 0-0.6-2.3-1.4-2.5-1-0.7 0.2-1.4-3.2 1.1-1.5 4.6-1.9 2.9-3.9 1-0.5 0.6 0.4 1.3 2.5 1.9 1.7 0.5 0.8 0.2 1.5-0.3 1.5-0.7 1.4z m18.8-17.9l1.5 0.7 0.9 1 1.4 0.7 1.9 0.2 1.6 0.3 1 1 0.6 1.1 0 2.2 0.6 1.7 0 2.1-0.9 1.8-2 0.2-1.9-1.8-1.4-2.2-1.7 0-1.4 1-1.2 0.1-1.1-0.8-0.3-1.6-1.4-2.7-3.2-3.3-0.6-1.6 1.5 0.4 1.3 0 1.1-0.6 1.7-0.2 2 0.3z m31.8 1.9l-0.6 0.1-1.4-3.8 1.2-0.7 0.6-0.9 0.7 0.3 1.1 1.1-0.9 1.1-0.9 0.5-0.1 0.8 0.4 0.5-0.1 1z m-49.3-4l0.1 4.1-2.6-0.8-0.8-0.5-1.3 1.8-2.2 0-2-0.4-0.8 0.5-0.4 2.6-0.8 2.3-1.4 1.7-1.9 0.8-1.8-0.2-1.4-1.3-0.8-2-0.3-2.6 0.5-2.4 1.2-1.7 1.8-1.1 1.9-0.7 2.2 0.8 2.8-0.6 5.2-2 1.8 0 0.6 0.5 0.4 1.2z m231-3.8l-0.2 2.1-1.7 1.1-0.6 1.3-1-0.3-0.6-0.6 0.7-0.7-0.1-1.2 0.9-0.8 1.4 0.3 1.2-1.2z m-207.1 7l-1.9 0.5-1.8-1-2.1-1.8-2.6-1-2-1.1 1.6-1.4 3.9-0.6 2.3-1 1.2-1 1.5 0.7 1.6 2.3-1.1 1.8 0.4 2.6-1 1z m-2.5-22.1l0.8 0.4 0.7 1.1 0.2 1.2-2.1 1.4 0.7 3-0.3 1.8-1.2 0.7-1.5-0.1-1 1.2 0 2.1-0.5 1.9-1.7 0.9-1.4-0.1-0.3-1.9-2.4-2.7-1.3-1.8-1.1-2.1 0.5-1.5 2.3-1.2 1.9-0.2 1.5 0.9 1.5 0 0.4-1.2-0.3-2.3 1.5-1.4 3.1-0.1z m249.9-3.5l1.3 0.7 1.5-0.2 0.9 0.5-3.5 4.1-1.7 0.3-1.2-0.4-1.5-1.5-0.2-0.8 0.9-1.3 1.7-1.3 1.8-0.1z m-215.5 7.5l0.3 4-3.1 2.9-1.7-0.6 1-1.2 0.5-1.1-0.4-0.7-5.1-2.8-4.7 0.7-2 1.1-2.4 0.3-1.9-0.6-0.9-1.3 0.8-1 2.5-0.1 3.3-1.2 1-1.3 0.2-0.8 2-0.6 0.7-1.2 0.1-1.4-1.3-1.7-0.5-1.9 1.7-0.9 2.8 0.6 2.8 1.5 2 2-0.2 1.1-1.4 0.2-2.4 1.6-0.3 0.9 0.3 2 1 0.4 2.3 0 3 1.1z m-42.8-10.2l0.4 2.8-0.5 2.6-1.2 2.4-1.9 1.6-2.3 0.6-1.3-0.5-1-0.9-1.4-0.4-5.1 1.1-2 0.1 0-1.2 1.6-1.4 2.8-4.6 2.2-2 2.5 0.5 1.3 0 0.6-1.2 0.7-2.5 1.6-0.4 1.7 1.2 1.3 2.2z m24.9-1l-1.4 0.6-2 0-0.8-1.8 0.4-1.8 1.2-0.7 2.7 0 0.9 0.4 0.1 0.8-0.5 2-0.6 0.5z m4.7-10.2l0.6 0.8 1.3 0.7 1.9 4.5-0.6 1.1-2.5-0.9-0.6-2-1.4-2.6-1-1.3 2.3-0.3z m-9.9 0.6l-0.3 2.5-0.8-0.5-1.2-2.7 0.7-1.7 2.1-1.4 0.2 0.8-0.7 3z m7.4-2l-0.9 0.8-1-1.5 0.2-1.1-0.1-2.4-1-1.2 0.7-0.5 1 0.3 1.3 1.1 1.3 1.7 0.1 2.7-1.6 0.1z m-14.2-4.5l1.1 0.6 0.3 0.9-0.3 2.7-2 1.6-3 0.7-0.3 1.2 0.3 1.2-0.2 0.5-2.9 0.7 0.3-1.2 1.1-2.6 0.4-4.1 1.7-0.7-0.1-1.1-0.9 0.3-4.3 0.2-1.6-0.1-1.1-0.5-0.1-0.9 1.7-0.9 0.8-1.2 1.5-0.9 0.7-0.8 1.1-0.4 2.8 0.6 1.4 1.4 0.4 2.1 1.2 0.7z m-4.3-11.2l1.4 0.6 2-0.1 1.4 0.4 1.1 1.7 0.1 2.9-1.4 1.1-0.9-0.4-1.4-1.5-0.7-0.5-1.6 0.4-0.2-0.9-1.4-0.2-0.2-0.5 1.1-0.8-1.8-0.4 0.3-0.9 1.2-0.8 1-0.1z m-18.7-6.9l0 3.4-1.6-1.1-0.9-1.4 0.1-1.6 1.7-0.6 0.7 1.3z m25.9-1.7l1.5 0.9 1.3-0.4 1.6-0.8 0.9 0.5 0.4 0.8 1.7-0.3 0.4 1.3-1.1 1.1-1.4 0.1-0.6 0.7 0 1 1.7 1.8 1.5 0.7 1.6 0.1 0.9 1.3 0.5 1.7 0.8 1.1 0.3 1.5-0.6 1.9-2.9-0.5-1.4-2.2 0-1.7 0.3-0.9-1-0.3-4.1-0.7-0.9-0.8-2.1-0.3-1.6-1.1-0.8-1-1.7-4 1-1.6 2-0.6 1.8 0.7z m-11.8 8.3l-0.6 1.5-0.9 0.3-4.2-1.2-1.5 0.3-1.4-1.2-0.7-0.1 1.3-6.2 0.8-1.8 1.1-0.6 1.9-0.6 1.7-0.9 0.8-1.2 1.2-2.7 2.9-1.8 3.2-0.8 2.4 0.7-4.8 2.8-1.1 1.6-0.1 1.9 0.7 2 2.1 3.5-1.7 0.7-1.8 1.7-1.3 2.1z m5.5-41.7l-1.4 1.1-1.6-3.1 0-0.6 1.2-1.9 1 0.5 0.8 0.9 0.3 1.8 0.5 0.9-0.8 0.4z m-17.8-14.5l0.4 1.2-1.5 1.4-2.6 0.7 0.4-1-1.5-1.4 1.7-1-1.3-1 2-1.6 1 0.9 0.3 0.7 0.8 0.3 0.3 0.8z m250.1 14.1l-0.8 4.2 3.2 3.8 1.6 5 0.7 10.3 2.1 3.9 3.9 2.8 3.5 3.7 1.4 4.1 1.7 3.6 9.9 10.7 2.1 5.3 0 3.6 0.4 0.8-1-0.3-6.5 0.1-2.1-0.4-0.8-1-0.4-1.4-1-1.9-1.8-1.4-0.4 1.4 0.3 2.4 0.3 1-1.1 3.5-0.7 1.3-1.4 1.7-6 4.7-3.3 1.5-2.4-2-3-6.1-2.5-1-1.7 2.5-0.9 3.8 0.2 3.3 1.5 3.4 2.4 4.4 2.8 3.8 2.6 1.7 1.7 2.3 1.7 0.8 2-1.3 4.9-4.6 3.4-0.5 2.9 0.6 2.7 0.2 2.9-1.6-0.1 3.8-0.5 2.7-1.6 5.5-1.8 9.6-1.3 2.2-5.6 1.9-4.4-2.2-3.5-0.8-2.9 6.4-1-0.6-1.2 0.6 1.2 2.5 1 2.7 1.1 8.6-0.7 1.6-1.6-0.9-2.6-2.7-3.8-0.5-2.8-1.5-1.9-2.9-0.7-4.3 0.9-4.1 2.1-4 1.5-3.8-0.7-3.2-1.3-1.8-2.5-5.5-0.7-0.4-1.8-0.2-0.8-0.8 0-1 0.7-1.9-2.4-5-0.4-1.9 0.1-1.2 0.7-1.9 0.2-0.9-0.4-1.1-0.7-0.9-0.7-0.2-0.9 1.2-2.7 6.9-1.1 1.5-6.7 2.3-3.2 0.4-6.8-0.1-2.6 0.7 2.1 1.7 4.1 1.8 3.3 1 0 1.2-6.7 2.2-3.4 1.9-0.6 2.6 1.4 1.1 3-1.2 1.6 0.7 1.1 1.9-0.4 0.6-1.2 0.8 2.2 7.6 4.5 4.1 5 3.2 3.4 4.9-1.7-0.3-2.7 0-1.2 0.3 6.8 2.6 0.8 2.1 0.5 4.1-3.1 2.8-3.1-0.2-1.9 0.5-7.2-4.5-2.3-0.7-2.1 0.4-2.5 1.2-2.2 1.5-0.9 1.5 2.2 4.6 2.3 0.5 1.3 0.9 6-1.6 3.3 2.8-7.5 6.9-2.7 3.8-2.9-1.3-4.5 3.4 0.5 3.4 2 2.2-4.4 0-6.5-8.6-2.2-4.5-5.9-6.5-1.8 0.4-6.3 3.3 0.6 2 0.5 0.8-2.6-0.9-2.5-0.5-2.1-1.1-1.5-2.8-0.2-2.8 1-1.7 3.5-2.1 1.2-1 3.2-4.2 1.9-4.2 1.2-1.4 2.3-1.1-0.2 3.2-0.8 3.1-2.3 5.6 4.7-0.3 3.8-1.4 2.4-3.2-0.1-5.7-0.9-2.2-1.2-1.3-1-1.5-0.1-2.9 0.8-1.5 4.6-5.1 1.6 0.9 1.1 1.2 0.3 1.5-0.9 1.8 1 2.5 1.4 1.8 1.8 0.6 2.4-0.9 1-1.4 2.2-4.6 1.2-2-2.2-3.3-0.8-3.4-1.1-1.6-3 2.3-3.5 1.5-2.8-2.4-3.9-6.3-2.3 3.5-3.2 8.3-2.2 2.7-2.3 0.9-1.9-0.1-4-0.8-1.8 0.6-1.8 1.6-2.8 3.8-1.3 1.1-5.8 3.4-3.1 2.4-2 1.2-2 0.5-1.2 0.6-0.2 1.6 0 2.1-0.3 2.2-1 1.6-1.5 1.7-0.7 2.1 1.2 2.5-8.7 8.6 0.2 7.9-1.4 1.4-4.3-2.1-1.3 1.6-0.7 1.9 0.1 2.1 0.9 2.2-2.1-0.6-4.4-3.2-6.1-1.8-1.4-0.8-1.2-3.7 0.6-9.7-0.6-3.8 0.9-2.4-0.2-3-1-2.6-1.8-1.3-1.7 0.5-1.8 1.6-1.3 2.1-0.5 1.8 0.6 2.7 1 2.3 0.1 1.6-4.9 1.7 0.6 2.3 3.6 4.5-6.1 3.5-2.3 2.1 2.4 1 0.5 0.4 0 1.9-0.5 0.4-1-0.2-1.5-0.9-0.7-0.2-2.1 0.3-0.4 0.9-0.1 1.4-0.8 1.9-1.2 0.9-4.7 1.2-1.8 1.4-0.6 1.3-3.8 12.9-0.4 1.9 0 2.2-3.8-0.8-7.3 2.4-1.8-0.4-0.3-2.2 1.5-4.7-0.3-2.1-1.4-1.3-2-0.4-4.1 0.2 0-1.2 1.1-1.8 0.3-3 1.2 0.1 0.7-0.5 2.3-4.1 0.4-1.9-0.6-2-0.8-0.6-1.2-0.4-2.3-0.3-1.7-0.5-0.3-1 0.9-1.2 0-2.5 0.6-2.4-0.3-1.2-2.5 0.8 0.7-4.6 3.1-2.3 4.3-0.9 3.9 0-0.7-1.5-1-1.2-1.2-0.8-1.5-0.5 2.5-1.7 1.5-2.1 0.1-1.8-2-1.1-0.7 0.3-1.4 1.8-1 0.7-1.3 0-2.1-1.3-1 0-1 0.8-0.7 1.4-0.5 1.7-1.4 0.3-2.9-0.3-3.4 0.1-1.8 0.3-2.4 0.9-0.3-3-1.3-1.8-3.8-1.9 0.1-0.6-0.8-1.5-1-1-0.9 2-1.1 0.7-1.3 0.2-1-0.4-3.3-3.1-0.4-0.2-0.5-1.9 0.9-0.9 0.6-1 0.6 0.9 1.6 0 1.1-0.9-0.6-2-4.2-2.1-3.3-2.4-0.3-5.5 1.4-6.2 1.6-4.3 0.2-1.5-0.1-1.7 0.2-1.5 1.3-0.7 2.4 0.5 0.9 0.6 1.1 2.3 4.8 7.3-1.5 2-0.5 1.9 0.3 2 0.5 2.1 3.3 9.2 2 1.2 7.8 1.3 3.4 2.3 1.8-0.2 1.3-3.3-1.8 0.3-0.9-0.5-3.3-0.7-1.5-2.4-2-2 0.5-4.5-2.1 0.4-1 2.7-1.6 0.2-1-3.6-0.5-4.8 1.2-2.8-0.9-3.3 4.3-0.4 6.6 1.4 0.9 1.5-0.4 2.5 0 1.6 0.3 1.1 1.7 1.1 0.9 1.3 2.1 1.3 2.8 1.2 1.8 1.6 3.8 2.7 0.7-0.8-3.3-4.4 2-0.4 6.7 3.7 4.5 1.5 3.4-0.9-3.4-0.5-2.7-1.8-4.7-4.1 1.1-1.5-3.4-2.5-5.2-6.6-2.9-1.4-3.9-0.8-4.7 0.3-3.2-2.1-4 1.1-3.6-1.2-0.5-1.8 2.2-2.9 2.3-0.9 4.7 0.7 6-2.6 7.2 5.3 2.5-0.5 1.4 1.2 0.7 0.3-0.7-3.7 0.3-3.4 1.9-2.5 3.9-1 7.3 2.2 3.7 0.3-1.2-2.5 2.5-1.2 1.3-0.3 1.6 0.1-2.3-2.7-3.6-0.7-8.2 0.8 0.6-1.9-0.6-2.6 0-2 0.6-1.3 1.5-2.1 0-2-1.2-2.9-2.2-0.6-2.4 1.1-1.7 2.4-0.2 1.6 1.1 3.2 0.2 1.8-0.3 0.3-1.9 3.8-1.8 6.5-1.6 2.3-3.1 0.3 0-0.5-1-0.7 0.6-1.1 0.9-2 0.6-1-2.1-1.1-1.5 0.6-1.4 1.3-2.1 0.6-4.2-0.9-1.3 0.6-0.3 2-2.1 0-3.5 1.1-1.6-0.9-0.6-2 1.2-1.9 3.2-3.2 1.2-1.8 0.6-1.4 0.4-2.8-0.5-2.9 0.6-1.4 2-1.8-1.9-1.6-1.8-3.2-0.9-3.8 0.3-3.2 2.2-2 3-2.1 0.9-1.7-3.9-0.9-1.8 0.3-1.9 1.9-2.8 1.2 0.3 1.9 0.7 2.2 0.1 1.8-2.2 2.1-2.9 0.2-2.8-0.9-1.9-1.4 2.1-1.3-1.4-1-1.2-1.2-0.9-1.4-0.8-1.8 1.8-0.9 1.8 0.1 3.9 0.8-0.4-4.1 4.4-4.4-1.2-4.1-4.5-6.2-2.8-2.6-3-1 1.2 4.3-1.1 2.5-2.2 0.1-2.2-3 1.4-2-4-5.4-0.6-3.2 2.3-2.7 3.2-0.4 2.9 1.4 1.3 3.1 2-1.3 1.1-2.2 1.3-4.4 1.1 2.2 0.2 1.8-0.4 3.6-0.8 1.8-0.1 1.1 0.3 1.2 1.3-0.3 0.5 0.3 0.8 3.7 0.6 0.6 1.9 1.1 1.5 0.6 2.7 0.1 1.2 0.7-0.9 2.2 0.2 2.1 1.1 2 1.7 1.7 4-9 0.4-3.1 0-3.5-0.8-1.2-3-0.8-1.2-0.7-1.1-1-1.6-4.4-5.2-6.1-1.2-2.7 0.3-1 1.5-1.8 0.4-1.8-1.7-1.2-0.8-1.6 0.3-2.6-2 0.8-2.1 0.3-4.5 0.1 1.7-2.2 2.9-0.7 3.3-0.2 2.9-0.7-1-0.3-1-0.9-1.3-0.2 0.8-1.8 3-2.9 0.5-1.5-1-3.8 0.5-3 1.4-3 3.5-5.3 0.9 0.9 2.3 3 2.8 0.9 1.4-0.1-0.4-1.4-3-3.5 3.3-1 15.4-4.3 4.5 1.2-0.9 7.1-1 5.2-0.2 5.3 3.9 1.3 4.7-1.2 5.1-1.8 5.3-0.8 2.1-1.6 2.3-1.4 2.7-0.7 2.6-1.3 2.1-1.8 1.3-2.8-0.3-2-0.1-2 2-1.5 1.4-2.2-0.1-2.6 0-2.7 4-3.5 5.3 0.5 2.7-3.1 2.8 0.2 2.8 1.1 4.8 4 7.5 10.1 4.8-0.1 0.4-2.7 1-2.6 1.6-1.5 1.1-2 4.7-0.3 3.2 4.9-1.4 5.6 0.9 3.6 3.3 3.7-0.2 6.4 3.8 4 5.9 0.9 4.5-2.7 4.8-0.8 3.3 0 2.7-0.7 2.4 1.9 2.7 1.6 5.9 0.1 5.7-0.8 5.3 0 4.9-0.7 4.6-5 5.8-3.2 10.1 3.7 9 7.3z m-108.1 4.2l-4.4 1.3-4.1 1-5.7-1.5-3.4 3.2 4.3 9.5 8.6 5.2 9.8 1.6 6.2-8.3-3.2-8.9-8.1-3.1z" id="KOR2506" name="South Jeolla">
 </path>
 <path d="M710.4 706.9l-1.3 1.6-1-0.8-1.1-1.4-3-1.7-1.5-1.7 0.1-2.4 1.2-1.2 1.6 0.1 1.5 2.1 1.4 1.5 1.1 0.6-1 0.8-0.2 1.4 2.2 1.1z m16.2-20.3l-0.8 1.5-4.2-0.1-2.2 0.4-1.7-0.1-1.7 0.8-1.9 0.2-0.1 2.7 1.2 1.9 0.2 2.3-0.8 2.5-3.5 1.7-4.6-4-1.3-1.5-4.2 4.4-1.9 3.6-0.6 3.7-1.2 0.9-0.8-1.9-1.9-2 0.5 5.7-1.2 0-0.5-1.3-0.7-0.3-3.1 2.1-1.1-1.3-1.3-4.4 0.6-3.9 1.2-5 0.2-2.8 1.3-2.4 2.4-3 2.3-3.4 1.6-11.5 2.3-2.8 3-2.2 3.7-1.5 4 0.2 3.1 2 0.9 4.2 2.8 4 3.7 2.9 2.8 3.7 3.2 3.3 0.3 0.7z" id="KOR2507" name="Busan">
 </path>
 <path d="M767.7 599.7l1.3 2.2-0.6 4.2-0.3 5-1.1 7.6-1.6 3.2-2.6 3.5-2.4 1.3-1-3.4-1-4.5-2-3.3-2.2-0.6-1.3 3.8 2.1 0.5 1.3 1.6 0.6 2.4 0.2 2.8-0.7 2.6-1.6 0.6-1.8 0.2-1.3 1.2 0.2 1.4 0.2 3.6 0.7 3.8-2.8 4.8 1.3 1.8 1 1.1-0.2 2.6-3.2 1.1-3.1 1.8-4.4 4.4-3.7-0.1-0.1 0.2-0.6-0.6-4.5-1.6-3.5-3.4-1-5.4-3.7-2.8-8.1-4.5-6.8-7.8-4.1-3.2-9.8-1.5-2.4-4.8 4-8-0.7-7.7 3.8-3.1 4.1-2.4 2.4 0 1-2-1.5-2.5-0.8-2.7 5.3-4.1 6.7-2.4 5.5-0.8 5.3 1.1 5.6 2.4 1.4 2.4 0.1 2.9 0.4 2.6 2 1.4 2.6 0.7 14.8-2.6 12.5 3 0.1 0z" id="KOR2508" name="Ulsan">
 </path>
 <path d="M762 402.5l0.8 8.1 2.2 8.1 0.8 8.1-0.9 16.8-1 3.6-4.9 6-1.9 3.3-0.8 3.9-0.7 23.7 0.5 3.2 1 1.8 1 0.7 0.9 1 0.9 6.7 1.2 5.1 1.3 0.9 0.8 1.1-0.6 3.1-1.3 1.7-1.6 0.8-1.6 0.5-2.6 2.2-0.2 2.7 3.4 3.1 2.4 2.7 2.5 3.1 3.2 0.5 4.1-3.2 10-11 2-3.3 2.6 2.1 0.6 3.4 1.1 3.5 0.8 3.9-2.5 3.9-5.7 11.3-0.4 5.1-1.7 13.4-4.1 11.6 0.2 7.3-4.2 12.6-3.1 6.1-1.3 3.1 1.3 3.4 1.2 1.5-0.1 0-12.5-3-14.8 2.6-2.6-0.7-2-1.4-0.4-2.6-0.1-2.9-1.4-2.4-5.6-2.4-5.3-1.1-5.5 0.8-6.7 2.4-5.3 4.1 0.8 2.7 1.5 2.5-1 2-2.4 0-4.1 2.4-3.8 3.1-4.4 1.5-4.7-2.2-6.1-1.5-5.7 2.3-1.8 2.4-2.2 1.9-2.3 0.3-2.2 0.8-5.2 4.1-5.9-0.2-4.9-2.6-5.2-1.6-5.9 1.1-5.8 0.6-4.9-3.1-4-4.9-1.3-10.8-3.7 2.9-3.9 5.6-4.3-0.9-8.5 4.3-4.5-0.9-4-3-4.3-2.1-4.6-0.7-4.7 0.6-9.8-0.4-2.5-9 1.9-4.4 0.1-4.6-2.1-2.5-2.4-1.5-0.6-1.7-0.9-1.8-3.5-2.5-2.1-4-3-3.3-4.1-1.3-4.5 0-4.5-0.4-2.6-1.7-2-1.7-4.8-0.4-2.6-1-0.6-1.6-0.2-1.6-2.9-2.3-3.2-1.9-1.3-4.3 0.8-12.5-6.5-11.1 3.8-1.8 4-1.4 2.4-4.8 1.4-5 1.2-2.2 1.5-1.8 0.4-3.3-0.1-2.6-0.9-5.3 3.9-3.3 3.8 0.7 3.3 0.2-1.8-10.2-3.5-2.7-8.1 2-3.1-1.5-4.5-3.7-3.8-1.3-6.4 1.5-0.9-9.3 3.5-3.1 2.3-4.5-1.8-3.1-1-3.4 1-4.7 0.6-10.7 1.6-4.5 2.8-2.8-7.7-11.3-6.2-1.1-1.8-4.5 2.4-1.1 2.3-0.4 2.3-2.5 3.5-4.8 0.9-2-0.1-1.8 0.4-2.4 4.9-3.3 5.6-2.6 3.4-5.2 6 2.7 11.3 1.7-2.3-4.4-3.1-3.9 1.1-4.1 2-4.3 1.9-3.2 2.5 1.6 3.2-0.2 2.6-3.5 2.7-1.8 2.5 1.7 4.9 1.7 4.6 0.4 1.1-3.3 0.8-3.1 1.6-2.6 2.1-2 2 2.3 2.7 1.9 3.7 3.2 2.4 4.8 5.6 1.8 13.3-5.5 2.3-7.8-2.1-1.9-1.1-2 2-3.7 1.7-3.7 3.4-5 4.9-3.5 1.4-2.5 2-1.6 3.2-1.1 2.7-2.5 4-3.4 3.7-3.9 1.5-0.9 1.9 0.7 2.1-1.3 1.9-2.2 4.1 2.2 3.9 1.6 4.7 1.1 4.1 0.3 0.9-4.2 0.5-4.5-1-4.9 2.8-3.5 4.3-2.1 4.4 0.4 2.2 3.9 3 0.7 2.8 1.4-0.4 3.4 0.4 3.5 4.7-1.9 4.5-3.5 1.9 0.8 1.4 1.8 1.7 0.2 2.1-0.8 6.2 1 5.8 2.7 4.2-1.1 4.3-2.2 5.4 1.2 4.9 3 1.6 4.6-3.8 2.8-4.6-1.8-3 1.1-2.7 2-1.1 4.9 0.7 6.5 3.3 4.9 5.2 2.5 1.1 4.2 1.5 3.6 3.7 1.6 3.4 1.9 11.6 0.9-0.7 4.5 1.4 1.3 1.2 1.5-1.7 4.9-2.1 5.3 0.4 5.5 1.4 4.9 0.5 4.4-1.7 4.7 10.9 4.1 5.1-2.3 5.3 1.2 1.6 0.1z m-105.4 148.2l0.9-3.1-0.1-3.3-0.3-3.1-1.7-1.4-1.3-2-0.1-4.9 0.8-1.3 0.1-1.6-2-3.5-6.4-4.6-8.3 0.5-10.1 1.4-7.4 6.2 1 8.9-2.8 3-1.7 3.8 1.5 0.3 1.4 0.5-0.3 1.9-0.6 1.9-2.6 0.4-2.4 0-2.1 3.1 0.9 3.6 2.5 0.9 2.3 2.3 1.8 3.6 2.8 2.3 2 1.3 1.4 1.2 1.3-1 2.2-4 2.3-1.8 5.1 0.5 9.1 2.4 3.6-2.1 0.4-1.9 0-1.2 1.5-3.9 0.2-1.7 0-1.3 1.5-0.1 1.1 0.4 2.5-2.6z m338.6-316.2l-3 1.6-4-0.8-3.9-2.4-2.6-3.1-0.9-4.1 1.4-3 2.8-1.9 5.6-1 3.8-1.4 1.9-0.4 2.7 2.1-0.2 5-1.7 5.7-1.9 3.7z" id="KOR2509" name="North Gyeongsang">
 </path>
 <path d="M350.7 994.4l1.8 2.8 2.4 1.8 7.6 3.1 2.3 2.3 1.6 5.7 1.5 2.2 1.8-1.7 0.4-0.8 1.2 2.5-0.8 0.8-1.5 0.5-1.1 1.3 0.1 1.1 1 1.8 0 1-0.5 1-1.7 2.3-2.8 3.4-5.4 4.3-1.7 3.5-2.3 4.2-0.2 1.7-1 2.5-3.9 0.4-1.5 0.8-4.2-0.3-6 4.8-16 2.9-5.4 4.6-6.5 1.4-7.1-0.7-8 1.5-6.6-2-15.1 0.2-4.7 2.2-2.7 5-2.6 0.5-2.5-1.2-3.6-5.9-4.8-1.6-4.7-4.9-1.6-5.9 2.8-7.8 2.7-4.7 1.6-1.7 5.5-3.3 4.7-8.2 4.3-1.1 2-4.3 7.4-2.6 16.2-4.6 4-3.5 15.4-1.6 10.5-4.6 2.6 0.7 12.7-2 7.5-0.7 4.9 0.9z" id="KOR2510" name="Jeju">
 </path>
 <path d="M417.6 396.7l-3.1 6.7 0.3 3.3-2 5.7-0.7 6.1 11.7-2.4 12 0.8-0.1 2.1-0.8 1.9-0.3 1.5 0.5 1.2 0.3 2-0.3 2.1-0.7 1.9-3.6-0.3-17.5 4.8-10.8 3-14.4-2.9 1.4-4.1 2.4-2.3-0.5-29.9 3.7-10.2 22.5 9z" id="KOR5129" name="Sejong">
 </path>
 <circle cx="382.7" cy="319.5" id="0">
 </circle>
 <circle cx="449.5" cy="323.2" id="1">
 </circle>
 <circle cx="509.5" cy="584.4" id="2">
 </circle>
</svg>