<?xml version="1.0" encoding="UTF-8" standalone="no"?>
<!-- Created with Inkscape (http://www.inkscape.org/) -->
<svg
   xmlns:dc="http://purl.org/dc/elements/1.1/"
   xmlns:cc="http://creativecommons.org/ns#"
   xmlns:rdf="http://www.w3.org/1999/02/22-rdf-syntax-ns#"
   xmlns:svg="http://www.w3.org/2000/svg"
   xmlns="http://www.w3.org/2000/svg"
   xmlns:sodipodi="http://sodipodi.sourceforge.net/DTD/sodipodi-0.dtd"
   xmlns:inkscape="http://www.inkscape.org/namespaces/inkscape"
   width="131"
   height="106"
   id="svg2"
   sodipodi:version="0.32"
   inkscape:version="0.46"
   version="1.0"
   sodipodi:docname="aéroport.svg"
   inkscape:output_extension="org.inkscape.output.svg.inkscape">
  <defs
     id="defs4">
    <inkscape:perspective
       sodipodi:type="inkscape:persp3d"
       inkscape:vp_x="0 : 526.18109 : 1"
       inkscape:vp_y="0 : 1000 : 0"
       inkscape:vp_z="744.09448 : 526.18109 : 1"
       inkscape:persp3d-origin="372.04724 : 350.78739 : 1"
       id="perspective10" />
    <inkscape:perspective
       id="perspective2390"
       inkscape:persp3d-origin="372.04724 : 350.78739 : 1"
       inkscape:vp_z="744.09448 : 526.18109 : 1"
       inkscape:vp_y="0 : 1000 : 0"
       inkscape:vp_x="0 : 526.18109 : 1"
       sodipodi:type="inkscape:persp3d" />
    <inkscape:perspective
       id="perspective2494"
       inkscape:persp3d-origin="372.04724 : 350.78739 : 1"
       inkscape:vp_z="744.09448 : 526.18109 : 1"
       inkscape:vp_y="0 : 1000 : 0"
       inkscape:vp_x="0 : 526.18109 : 1"
       sodipodi:type="inkscape:persp3d" />
    <inkscape:perspective
       id="perspective3394"
       inkscape:persp3d-origin="372.04724 : 350.78739 : 1"
       inkscape:vp_z="744.09448 : 526.18109 : 1"
       inkscape:vp_y="0 : 1000 : 0"
       inkscape:vp_x="0 : 526.18109 : 1"
       sodipodi:type="inkscape:persp3d" />
    <inkscape:perspective
       id="perspective3458"
       inkscape:persp3d-origin="16 : 10.666667 : 1"
       inkscape:vp_z="32 : 16 : 1"
       inkscape:vp_y="0 : 1000 : 0"
       inkscape:vp_x="0 : 16 : 1"
       sodipodi:type="inkscape:persp3d" />
  </defs>
  <sodipodi:namedview
     id="base"
     pagecolor="#ffffff"
     bordercolor="#666666"
     borderopacity="1.0"
     inkscape:pageopacity="0.0"
     inkscape:pageshadow="2"
     inkscape:zoom="1.4"
     inkscape:cx="106.39892"
     inkscape:cy="-22.447543"
     inkscape:document-units="px"
     inkscape:current-layer="layer1"
     showgrid="false"
     inkscape:window-width="1400"
     inkscape:window-height="1000"
     inkscape:window-x="-8"
     inkscape:window-y="-8" />
  <metadata
     id="metadata7">
    <rdf:RDF>
      <cc:Work
         rdf:about="">
        <dc:format>image/svg+xml</dc:format>
        <dc:type
           rdf:resource="http://purl.org/dc/dcmitype/StillImage" />
      </cc:Work>
    </rdf:RDF>
  </metadata>
  <g
     inkscape:label="Calque 1"
     inkscape:groupmode="layer"
     id="layer1">
    <g
       id="g3462"
       transform="translate(1,-945.875)">
      <path
         id="rect3381"
         d="M 33,947.375 L 33,963.375 L 20,963.375 L 20,972.3125 L 20,972.375 L 20.03125,972.375 L 26.34375,982.6875 L 39.875,982.71875 L 46.9375,972.375 L 47,972.375 L 47,963.375 L 35,963.375 L 35,947.375 L 33,947.375 z"
         style="fill:#000000;fill-opacity:1;fill-rule:evenodd;stroke:none;stroke-width:1.25;stroke-linejoin:round;stroke-miterlimit:4;stroke-dashoffset:0;stroke-opacity:1" />
      <path
         id="rect3383"
         d="M 8,1018.3622 L 120,1018.3622 L 120,1048.3622 L 8,1048.3622 L 8,1018.3622 z"
         style="fill:#c6c6de;fill-opacity:1;fill-rule:evenodd;stroke:none;stroke-width:1.25;stroke-linejoin:round;stroke-miterlimit:4;stroke-dashoffset:0;stroke-opacity:1" />
      <path
         id="rect3385"
         d="M 76,1010.3622 L 106,1010.3622 L 106,1017.3622 L 76,1017.3622 L 76,1010.3622 z"
         style="fill:#efe7ff;fill-opacity:1;fill-rule:evenodd;stroke:none;stroke-width:1.25;stroke-linejoin:round;stroke-miterlimit:4;stroke-dashoffset:0;stroke-opacity:1" />
      <path
         id="rect3400"
         d="M 21,984.36218 L 46,984.36218 L 46,1017.3622 L 21,1017.3622 L 21,984.36218 z"
         style="fill:#efe7ff;fill-opacity:1;fill-rule:evenodd;stroke:none;stroke-width:1.25;stroke-linejoin:round;stroke-miterlimit:4;stroke-dashoffset:0;stroke-opacity:1" />
      <path
         id="rect2500"
         d="M 20,982.375 L 20,985.375 L 20,990.375 L 20,994.375 L 20,998.375 L 20,1002.375 L 20,1016.375 L 9.09375,1016.375 L 6.96875,1016.375 L 6.96875,1046.375 L 0,1046.375 L 0,1050.375 L 129,1050.375 L 129,1046.375 L 121.15625,1046.375 L 121.15625,1016.375 L 121,1016.375 L 108,1016.375 L 108,1008.375 L 77,1008.375 L 74,1008.375 L 74,1011.375 L 74,1016.375 L 47,1016.375 L 47,982.375 L 20,982.375 z M 23,985.375 L 44,985.375 L 44,990.375 L 23,990.375 L 23,985.375 z M 23,994.375 L 44,994.375 L 44,998.375 L 23,998.375 L 23,994.375 z M 23,1002.375 L 44,1002.375 L 44,1016.375 L 23,1016.375 L 23,1002.375 z M 77,1011.375 L 105,1011.375 L 105,1016.375 L 77,1016.375 L 77,1011.375 z M 9.09375,1019.375 L 74,1019.375 L 77,1019.375 L 119,1019.375 L 119,1046.375 L 102,1046.375 L 102,1032.375 L 92,1032.375 L 92,1046.375 L 9.09375,1046.375 L 9.09375,1019.375 z M 13,1024.375 L 13,1027.375 L 36,1027.375 L 36,1024.375 L 13,1024.375 z M 40,1024.375 L 40,1027.375 L 63,1027.375 L 63,1024.375 L 40,1024.375 z M 66,1024.375 L 66,1027.375 L 89,1027.375 L 89,1024.375 L 66,1024.375 z M 92,1024.375 L 92,1027.375 L 115,1027.375 L 115,1024.375 L 92,1024.375 z M 13,1032.375 L 13,1042.375 L 36,1042.375 L 36,1032.375 L 13,1032.375 z M 40,1032.375 L 40,1042.375 L 63,1042.375 L 63,1032.375 L 40,1032.375 z M 66,1032.375 L 66,1042.375 L 89,1042.375 L 89,1032.375 L 66,1032.375 z M 105,1032.375 L 105,1042.375 L 115,1042.375 L 115,1032.375 L 105,1032.375 z"
         style="fill:#000000;fill-opacity:1;fill-rule:evenodd;stroke:none;stroke-width:1.25;stroke-linejoin:round;stroke-miterlimit:4;stroke-dashoffset:0;stroke-opacity:1" />
      <path
         id="rect3402"
         d="M 23,967.36218 L 43.999997,967.36218 L 43.999997,971.36218 L 23,971.36218 L 23,967.36218 z"
         style="fill:#efe7ff;fill-opacity:1;fill-rule:evenodd;stroke:none;stroke-width:1.25;stroke-linejoin:round;stroke-miterlimit:4;stroke-dashoffset:0;stroke-opacity:1" />
      <path
         sodipodi:nodetypes="czccsccscczzcc"
         d="M 91.227481,989.8173 C 91.227481,989.8173 89.754286,975.72462 88.84731,975.26037 C 87.894655,974.77274 82.614456,978.25198 82.614456,978.25198 L 79.122836,984.8938 C 79.122836,984.8938 78.615442,980.7394 77.847305,979.13663 C 76.93656,977.23631 74.046392,974.01081 74.046392,974.01081 L 80.630714,974.99677 C 80.630714,974.99677 86.404004,971.9878 86.069498,971.32982 C 84.102778,967.46129 77.14942,961.08044 77.14942,961.08044 L 93.816926,968.47035 C 93.816926,968.47035 102.09561,963.91341 103.72026,964.42288 C 105.37689,964.94238 105.05066,964.70223 105.3252,966.54168 C 105.59761,968.36688 96.269269,971.55529 96.269269,971.55529 L 91.227481,989.8173 z"
         id="path3451" />
    </g>
  </g>
</svg>
